<?xml version="1.0" encoding="utf-8"?>
<!-- Generator: Adobe Illustrator 27.5.0, SVG Export Plug-In . SVG Version: 6.00 Build 0)  -->
<svg version="1.1" xmlns="http://www.w3.org/2000/svg" xmlns:xlink="http://www.w3.org/1999/xlink" x="0px" y="0px"
	 viewBox="0 0 750 500" style="enable-background:new 0 0 750 500;" xml:space="preserve">
<g id="Background_Complete">
	<path style="fill:#F5F5F5;" d="M722.998,253.727l-6.203-10.804l-9.715,1.428l-8.022-10.079l4.134-10.036l-10.832-7.189
		l-8.087,8.155l-10.649-1.867l-4.318-12.525l-12.943,1.366l-0.733,10.956l-9.644,4.899l-10.209-7.227l-10.355,7.542l5.381,11.595
		l-6.162,9.284l-11.196-0.595l-2.925,13.81l10.654,4.099l0.917,11.605l-11.044,6.341l5.279,11.974l11.431-1.775l7.573,8.741
		l-3.961,10.894l10.472,7.396l8.172-8.842l11.338,3.067l3.527,11.702l12.601-0.85l1.627-10.511l10.804-6.203l8.84,7.055
		l11.177-8.333l-5.652-9.844l5.508-9.867l11.334,0.835l3.476-12.85l-9.729-5.268l-1.295-11.707L722.998,253.727z M679.105,291.539
		c-12.199,7.004-27.766,2.793-34.771-9.406c-7.004-12.199-2.793-27.766,9.406-34.771c12.199-7.004,27.766-2.793,34.771,9.406
		C695.515,268.967,691.304,284.535,679.105,291.539z"/>
	<g>
		<g>
			<g>
				<g>
					<g>
						<path style="fill:#F5F5F5;" d="M132.848,381.316c19.158-16.554,21.08-43.81,17.78-67.792c-0.55-4.003-0.546-8.284-2.82-11.612
							c-2.276-3.327-6.982-5.276-10.405-3.212c-2.839,1.712-3.781,5.317-5.154,8.359c-1.826,4.048-4.809,7.549-8.493,9.971
							c-2.421,1.591-5.502,2.729-8.171,1.597c-3.662-1.555-4.565-6.299-4.952-10.298c-0.721-7.452-1.444-14.904-2.165-22.354
							c-0.387-3.998-0.797-8.079-2.43-11.742c-1.634-3.664-4.743-6.903-8.654-7.576c-3.912-0.672-8.385,2.004-8.784,5.998
							c-0.166,1.662,0.34,3.317,0.4,4.987c0.06,1.67-0.523,3.585-2.051,4.21c-1.546,0.633-3.262-0.335-4.577-1.381
							c-4.54-3.609-7.875-8.517-11.023-13.415c-3.149-4.898-6.233-9.928-10.429-13.942c-4.196-4.014-9.731-6.967-15.487-6.701
							c-5.756,0.267-11.488,4.427-12.355,10.194c-0.869,5.783,3.007,11.158,7.053,15.349c6.003,6.218,12.897,11.553,20.395,15.785
							c1.352,0.764,2.817,1.589,3.451,3.019c1.143,2.574-1.108,5.48-3.648,6.627c-2.876,1.299-6.139,1.323-9.217,2.011
							c-3.078,0.688-6.311,2.41-7.186,5.477c-1.215,4.252,2.642,8.181,6.292,10.638c7.308,4.92,15.45,8.562,23.958,10.72
							c3.05,0.772,6.241,1.397,8.824,3.217c2.583,1.822,4.384,5.264,3.243,8.226c-1.142,2.966-4.725,4.245-7.862,3.991
							c-3.136-0.253-6.065-1.64-9.113-2.444c-5.704-1.506-12.756-0.396-15.784,4.712c-1.989,3.358-1.745,7.722-0.192,11.32
							c1.552,3.598,4.254,6.556,7.076,9.25c9.865,9.417,21.989,16.567,35.182,19.669
							C108.742,387.274,120.667,387.252,132.848,381.316"/>
					</g>
				</g>
			</g>
		</g>
		<g>
			<g>
				<g>
					<g>
						<g>
							<path style="fill:#E0E0E0;" d="M135.004,399.126c-1.855-9.444-5.108-20.487-9.925-32.256
								c-4.795-11.78-11.122-24.257-18.188-37.079c-1.778-3.198-3.535-6.359-5.267-9.474c-1.736-3.105-3.457-6.186-5.326-9.094
								c-3.715-5.835-7.731-11.161-11.701-16.097c-3.969-4.94-7.916-9.483-11.637-13.704c-3.732-4.215-7.285-8.078-10.673-11.461
								c-6.758-6.793-12.845-11.616-17.159-14.757c-2.154-1.578-3.866-2.747-5.037-3.524c-0.563-0.368-1.004-0.658-1.337-0.875
								c-0.304-0.193-0.462-0.287-0.469-0.276c-0.008,0.011,0.137,0.126,0.427,0.34c0.322,0.233,0.751,0.542,1.296,0.936
								c1.142,0.817,2.826,2.023,4.952,3.633c4.255,3.209,10.27,8.078,16.96,14.897c3.355,3.396,6.877,7.271,10.583,11.497
								c3.699,4.236,7.623,8.787,11.568,13.726c3.945,4.936,7.934,10.252,11.619,16.059c1.855,2.895,3.558,5.95,5.296,9.064
								c1.73,3.114,3.484,6.274,5.261,9.471c7.06,12.813,13.389,25.249,18.205,36.98c4.836,11.718,8.127,22.701,10.041,32.098"/>
						</g>
					</g>
				</g>
			</g>
		</g>
		<g>
			<g>
				<g>
					<g>
						<g>
							<path style="fill:#E0E0E0;" d="M96.085,311.216c0.05,0.003,0.123-0.618,0.214-1.745c0.096-1.126,0.181-2.758,0.256-4.777
								c0.155-4.036,0.178-9.618,0.18-15.771c0.002-6.157,0.104-11.722,0.32-15.745c0.103-2.011,0.201-3.639,0.284-4.763
								c0.076-1.125,0.095-1.751,0.044-1.758c-0.051-0.006-0.165,0.608-0.33,1.726c-0.171,1.117-0.35,2.743-0.518,4.757
								c-0.351,4.028-0.537,9.616-0.538,15.778c0.013,6.073,0.026,11.566,0.035,15.764c-0.007,1.896-0.015,3.494-0.021,4.777
								C96.011,310.586,96.033,311.213,96.085,311.216z"/>
						</g>
					</g>
				</g>
			</g>
		</g>
		<g>
			<g>
				<g>
					<g>
						<g>
							<path style="fill:#E0E0E0;" d="M43.725,306.915c0.004,0.051,0.743,0.061,2.074,0.034c1.33-0.018,3.255-0.056,5.633-0.026
								c4.757,0.022,11.328,0.284,18.564,0.889c7.238,0.618,13.764,1.457,18.466,2.2c2.355,0.354,4.253,0.693,5.566,0.919
								c1.313,0.231,2.043,0.335,2.056,0.285c0.01-0.051-0.701-0.251-1.999-0.571c-1.299-0.313-3.187-0.732-5.538-1.155
								c-4.694-0.878-11.233-1.802-18.492-2.424c-7.258-0.606-13.857-0.785-18.628-0.671c-2.386,0.038-4.314,0.155-5.644,0.264
								C44.454,306.775,43.722,306.862,43.725,306.915z"/>
						</g>
					</g>
				</g>
			</g>
		</g>
		<g>
			<g>
				<g>
					<g>
						<g>
							<path style="fill:#E0E0E0;" d="M124.35,365.991c0.024,0.008,0.122-0.22,0.288-0.663c0.186-0.527,0.412-1.17,0.687-1.949
								c0.589-1.695,1.377-4.17,2.31-7.241c1.871-6.14,4.189-14.704,6.619-24.188c2.432-9.488,4.667-18.061,6.407-24.232
								c0.855-3,1.56-5.469,2.082-7.303c0.223-0.796,0.406-1.452,0.556-1.991c0.119-0.457,0.17-0.701,0.146-0.71
								c-0.024-0.007-0.122,0.221-0.288,0.664c-0.186,0.527-0.412,1.169-0.687,1.948c-0.589,1.695-1.377,4.17-2.311,7.241
								c-1.871,6.141-4.189,14.704-6.62,24.192c-2.431,9.485-4.666,18.057-6.406,24.229c-0.857,2.999-1.559,5.469-2.082,7.302
								c-0.223,0.796-0.406,1.453-0.556,1.991C124.377,365.739,124.325,365.983,124.35,365.991z"/>
						</g>
					</g>
				</g>
			</g>
		</g>
		<g>
			<g>
				<g>
					<g>
						<g>
							<path style="fill:#E0E0E0;" d="M53.819,351.032c-0.004,0.026,0.24,0.097,0.706,0.209c0.552,0.124,1.23,0.276,2.051,0.46
								c1.892,0.405,4.447,0.951,7.554,1.615c6.378,1.365,15.166,3.351,24.873,5.559c9.71,2.21,18.525,4.117,24.934,5.35
								c3.204,0.618,5.801,1.091,7.603,1.382c0.832,0.129,1.519,0.235,2.076,0.323c0.476,0.066,0.729,0.087,0.733,0.062
								c0.004-0.025-0.24-0.097-0.706-0.211c-0.551-0.123-1.229-0.274-2.051-0.458c-1.892-0.405-4.445-0.95-7.553-1.615
								c-6.379-1.364-15.168-3.351-24.878-5.56c-9.708-2.209-18.521-4.116-24.93-5.349c-3.204-0.618-5.801-1.091-7.604-1.381
								c-0.832-0.129-1.517-0.237-2.076-0.323C54.076,351.028,53.824,351.007,53.819,351.032z"/>
						</g>
					</g>
				</g>
			</g>
		</g>
	</g>
	<g>
		<path style="fill:none;" d="M613.008,192.822l-3.688-6.424l-5.776,0.849l-4.769-5.993l2.458-5.967l-6.44-4.274l-4.808,4.849
			l-6.331-1.11l-2.568-7.447l-7.695,0.812l-0.436,6.514l-5.734,2.913l-6.07-4.297l-6.156,4.484l3.199,6.894l-3.664,5.52
			l-6.656-0.354l-1.739,8.211l6.334,2.437l0.545,6.9l-6.566,3.77l3.138,7.119l6.796-1.055l4.502,5.197l-2.355,6.477l6.226,4.397
			l4.858-5.257l6.741,1.824l2.097,6.958l7.492-0.506l0.967-6.249l6.424-3.688l5.256,4.195l6.646-4.954l-3.36-5.852l3.275-5.866
			l6.738,0.496l2.067-7.64l-5.784-3.132l-0.77-6.96L613.008,192.822z M586.911,215.304c-7.253,4.164-16.508,1.661-20.673-5.592
			c-4.164-7.253-1.661-16.508,5.592-20.673c7.253-4.164,16.509-1.661,20.673,5.592C596.668,201.884,594.164,211.139,586.911,215.304
			z"/>
		<g>
			<path style="fill:#E0E0E0;" d="M586.911,215.304c-0.048-0.069,1.179-0.659,2.9-2.325c0.871-0.817,1.785-1.98,2.613-3.453
				c0.819-1.476,1.503-3.314,1.764-5.426c0.253-2.101,0.122-4.489-0.731-6.84c-0.858-2.329-2.301-4.682-4.477-6.46
				c-1.057-0.917-2.295-1.676-3.638-2.255c-1.336-0.599-2.797-1-4.311-1.152c-3.026-0.375-6.256,0.29-9.07,1.871
				c-2.786,1.633-4.99,4.088-6.192,6.891c-0.632,1.385-1.022,2.849-1.179,4.305c-0.178,1.452-0.146,2.904,0.113,4.28
				c0.439,2.776,1.744,5.209,3.323,7.124c1.601,1.921,3.597,3.239,5.539,4.079c1.955,0.839,3.888,1.175,5.576,1.211
				c1.69,0.027,3.155-0.176,4.299-0.516C585.748,215.989,586.876,215.227,586.911,215.304c0.004,0.008-0.065,0.053-0.206,0.135
				c-0.169,0.094-0.377,0.209-0.632,0.351c-0.276,0.159-0.626,0.34-1.063,0.502c-0.431,0.176-0.925,0.393-1.513,0.54
				c-1.152,0.375-2.636,0.612-4.359,0.612c-1.721-0.009-3.701-0.326-5.714-1.163c-1.999-0.839-4.063-2.174-5.725-4.138
				c-1.64-1.957-2.999-4.457-3.467-7.321c-0.273-1.419-0.313-2.919-0.135-4.42c0.157-1.505,0.556-3.019,1.206-4.453
				c1.237-2.9,3.516-5.448,6.4-7.136c2.911-1.638,6.259-2.321,9.387-1.927c1.565,0.162,3.075,0.58,4.453,1.204
				c1.386,0.603,2.661,1.393,3.749,2.344c2.237,1.848,3.711,4.282,4.575,6.684c0.859,2.426,0.972,4.881,0.688,7.03
				c-0.291,2.161-1.016,4.03-1.876,5.521c-0.869,1.488-1.822,2.651-2.726,3.457c-0.424,0.434-0.86,0.752-1.23,1.035
				c-0.36,0.296-0.693,0.507-0.97,0.665c-0.251,0.149-0.455,0.27-0.622,0.369C586.99,215.274,586.916,215.311,586.911,215.304z"/>
		</g>
		<g>
			<path style="fill:#E0E0E0;" d="M613.008,192.822c0,0-0.107,0.084-0.338,0.247c-0.246,0.172-0.592,0.413-1.046,0.729
				c-0.953,0.656-2.348,1.617-4.179,2.877l0.034-0.074c0.218,1.891,0.488,4.232,0.802,6.957l-0.057-0.085
				c1.711,0.919,3.666,1.969,5.795,3.112l0.092,0.05l-0.027,0.102c-0.617,2.305-1.306,4.881-2.046,7.645l-0.033,0.123l-0.128-0.009
				c-2.102-0.15-4.368-0.312-6.739-0.481l0.16-0.086c-1.012,1.821-2.117,3.809-3.263,5.873l-0.001-0.18
				c1.042,1.807,2.188,3.795,3.37,5.847l0.086,0.149l-0.138,0.103c-2.061,1.542-4.314,3.226-6.638,4.964l-0.128,0.095l-0.125-0.1
				c-1.623-1.292-3.422-2.724-5.261-4.188l0.241,0.018c-1.985,1.143-4.179,2.406-6.419,3.696l0.11-0.16
				c-0.297,1.929-0.626,4.072-0.961,6.25l-0.028,0.182l-0.185,0.013c-2.323,0.159-4.886,0.334-7.491,0.512l-0.189,0.013
				l-0.055-0.181c-0.653-2.16-1.372-4.541-2.102-6.956l0.169,0.164c-2.097-0.566-4.406-1.189-6.742-1.819l0.246-0.071
				c-1.515,1.641-3.176,3.44-4.855,5.259l-0.149,0.162l-0.18-0.127c-1.95-1.376-4.078-2.877-6.228-4.394l-0.159-0.112l0.066-0.183
				c0.738-2.032,1.542-4.245,2.353-6.477l0.047,0.256c-1.417-1.635-2.954-3.409-4.503-5.196l0.235,0.086
				c-2.145,0.333-4.463,0.694-6.796,1.056l-0.197,0.031l-0.081-0.183c-0.995-2.257-2.064-4.68-3.139-7.119l-0.094-0.214l0.203-0.117
				c0.044-0.025,0.093-0.053,0.141-0.081c2.156-1.238,4.298-2.468,6.425-3.689l-0.13,0.246c-0.183-2.316-0.364-4.617-0.544-6.899
				l0.165,0.221c-2.129-0.82-4.24-1.632-6.333-2.438l-0.205-0.079l0.046-0.215c0.587-2.769,1.168-5.506,1.742-8.21l0.045-0.213
				l0.218,0.012c2.245,0.12,4.462,0.239,6.656,0.357l-0.223,0.112c1.239-1.864,2.459-3.702,3.666-5.518l-0.018,0.242
				c-1.083-2.339-2.147-4.634-3.195-6.896l-0.084-0.182l0.162-0.118c2.092-1.521,4.143-3.013,6.16-4.479l0.138-0.101l0.139,0.099
				c2.059,1.46,4.081,2.895,6.066,4.302l-0.238-0.017c1.962-0.994,3.867-1.959,5.737-2.907l-0.122,0.185
				c0.152-2.241,0.299-4.399,0.443-6.513l0.012-0.182l0.181-0.019c2.661-0.277,5.215-0.543,7.696-0.802l0.164-0.017l0.053,0.155
				c0.892,2.602,1.739,5.069,2.556,7.45l-0.15-0.128c2.248,0.398,4.323,0.766,6.329,1.121l-0.161,0.051
				c1.732-1.739,3.308-3.323,4.818-4.839l0.099-0.099l0.116,0.077c2.344,1.564,4.452,2.969,6.43,4.289l0.104,0.069l-0.048,0.115
				c-0.931,2.243-1.729,4.165-2.475,5.96l-0.019-0.134c1.834,2.321,3.383,4.281,4.748,6.009l-0.099-0.039
				c2.407-0.342,4.229-0.602,5.78-0.822l0.054-0.008l0.026,0.047c1.234,2.191,2.145,3.806,2.755,4.89
				c0.29,0.521,0.507,0.912,0.66,1.187C612.948,192.697,613.008,192.822,613.008,192.822s-0.087-0.132-0.244-0.394
				c-0.163-0.275-0.393-0.664-0.701-1.184c-0.624-1.066-1.552-2.653-2.812-4.807l0.081,0.039c-1.549,0.235-3.369,0.511-5.772,0.876
				l-0.06,0.009l-0.039-0.048c-1.378-1.719-2.94-3.668-4.79-5.976l-0.049-0.061l0.03-0.073c0.735-1.799,1.523-3.725,2.442-5.973
				l0.056,0.184c-1.984-1.31-4.098-2.706-6.45-4.259l0.214-0.022c-1.503,1.522-3.074,3.112-4.798,4.858l-0.067,0.068l-0.095-0.017
				c-2.007-0.348-4.083-0.708-6.333-1.099l-0.113-0.02l-0.038-0.109c-0.824-2.379-1.678-4.844-2.579-7.442l0.217,0.138
				c-2.48,0.265-5.034,0.538-7.694,0.822l0.193-0.201c-0.139,2.114-0.281,4.273-0.428,6.514l-0.008,0.127l-0.114,0.058
				c-1.868,0.951-3.771,1.92-5.731,2.918l-0.124,0.063l-0.114-0.081c-1.987-1.404-4.012-2.835-6.073-4.291l0.277-0.002
				c-2.015,1.47-4.063,2.964-6.153,4.489l0.078-0.299c1.051,2.26,2.117,4.555,3.203,6.892l0.059,0.126l-0.077,0.116
				c-1.205,1.818-2.424,3.656-3.66,5.522l-0.08,0.12l-0.144-0.008c-2.194-0.116-4.411-0.232-6.656-0.351l0.263-0.202
				c-0.572,2.705-1.15,5.442-1.736,8.211l-0.159-0.294c2.094,0.805,4.205,1.617,6.334,2.435l0.152,0.059l0.013,0.163
				c0.181,2.283,0.363,4.583,0.546,6.899l0.013,0.164l-0.143,0.082c-2.127,1.221-4.269,2.452-6.425,3.689
				c-0.048,0.028-0.096,0.055-0.141,0.081l0.108-0.331c1.075,2.439,2.143,4.862,3.138,7.119l-0.278-0.152
				c2.333-0.362,4.651-0.721,6.796-1.054l0.142-0.022l0.094,0.108c1.548,1.788,3.085,3.562,4.501,5.198l0.099,0.114l-0.052,0.142
				c-0.812,2.231-1.618,4.444-2.357,6.476l-0.093-0.295c2.149,1.519,4.275,3.022,6.224,4.4l-0.33,0.035
				c1.682-1.817,3.344-3.615,4.861-5.254l0.102-0.11l0.145,0.039c2.336,0.633,4.643,1.259,6.74,1.828l0.131,0.035l0.039,0.129
				c0.726,2.416,1.442,4.798,2.091,6.959l-0.243-0.168c2.606-0.174,5.168-0.344,7.492-0.499l-0.212,0.195
				c0.339-2.177,0.673-4.32,0.974-6.248l0.017-0.107l0.093-0.053c2.243-1.285,4.439-2.542,6.428-3.681l0.128-0.073l0.114,0.091
				c1.835,1.469,3.631,2.906,5.25,4.202l-0.252-0.004c2.33-1.731,4.587-3.409,6.653-4.944l-0.052,0.252
				c-1.175-2.055-2.315-4.047-3.35-5.858l-0.052-0.09l0.05-0.09c1.155-2.059,2.267-4.043,3.286-5.86l0.053-0.095l0.108,0.008
				c2.371,0.18,4.636,0.352,6.737,0.512l-0.16,0.113c0.755-2.76,1.458-5.332,2.087-7.634l0.065,0.152
				c-2.121-1.158-4.069-2.221-5.774-3.152l-0.051-0.028l-0.006-0.057c-0.289-2.727-0.537-5.071-0.738-6.964l-0.005-0.048
				l0.039-0.026c1.837-1.217,3.236-2.145,4.193-2.779c0.469-0.307,0.826-0.541,1.081-0.708
				C612.875,192.9,613.008,192.822,613.008,192.822z"/>
		</g>
	</g>
</g>
<g id="Background_Simple" style="display:none;">
	<path style="display:inline;fill:#EBEBEB;" d="M170.145,150.307c12.429-32.242,43.518-61.352,77.812-64.179
		s68.898,14.285,90.21,41.784c10.701,13.808,18.271,29.907,28.973,43.714c10.701,13.808,25.906,25.686,43.181,25.856
		c21.43,0.211,38.632-16.942,57.98-26.323c34.469-16.711,79.936-5.856,102.787,25.282c22.851,31.138,20.409,65.092-0.52,100.779
		c-12.376,21.103-48.862,41.113-72.938,50.538c-42.396,16.598-109.708,18.714-160.44,10.493
		c-46.414-7.521-107.103-23.543-138.026-66.008C171.296,253.975,151.231,199.386,170.145,150.307"/>
</g>
<g id="Floor">
	<g>
		<path style="fill:#263238;" d="M695.402,401.674c0,0.144-142.451,0.26-318.131,0.26c-175.742,0-318.162-0.117-318.162-0.26
			c0-0.144,142.42-0.26,318.162-0.26C552.952,401.414,695.402,401.531,695.402,401.674z"/>
	</g>
</g>
<g id="Character_2">
	<g>
		<g>
			<path style="fill:#263238;" d="M668.507,263.894L613.48,401.462H459.038l49.064-139.444c0.356-1.011,1.311-1.687,2.383-1.687
				l155.68,0.101C667.95,260.433,669.17,262.236,668.507,263.894z"/>
			<path style="fill:#455A64;" d="M660.04,267.861l-50.529,123.253c-0.219,0.534-0.749,0.884-1.338,0.884H467.477
				c-0.995,0-1.691-0.961-1.359-1.876l44.767-123.253c0.204-0.561,0.748-0.937,1.359-0.937h146.458
				C659.722,265.932,660.419,266.937,660.04,267.861z"/>
			<polygon style="fill:#263238;" points="613.48,401.675 612.108,401.675 403.584,401.675 403.584,391.998 607.777,391.998 			"/>
		</g>
		<g>
			<g>
				<g>
					<g>
						<path style="fill:#FFBE9D;" d="M454.11,269.226c0,0-4.226,50.282-13.342,52.73c-24.799,6.661-53.17,1.731-63.131-0.224
							c-1.121-0.96-2.409-2.124-3.864-3.567c-1.251-1.238-2.271-2.697-3.044-4.293c-0.937-1.935-2.079-4.561-2.27-6.197
							c-0.236-2.023-2.749-2.697-3.637-1.083c-0.885,1.617-1.265,7.76,2.083,13.353c0,0,1.073,2.518-1.825,3.587
							c-4.213,1.554-19.053,6.163-21.445,7.3c-2.13,1.013-4.194,2.822-1.953,3.183c2.241,0.361,14.498-1.396,14.498-1.396
							s-16.109,1.985-15.712,4.318c0.274,1.61,4.614,2.38,15.136,0.007c0,0-13.259,1.736-14.645,3.125
							c-3.131,3.139,12.844,1.208,12.844,1.208c-11.179,1.451-11.064,0.866-11.182,2.399c-0.089,1.148,2.438,1.61,8.578,1.685
							c4.981,0.061,10.127,1.119,17.706,1.624l0,0c0,0,95.843,27.117,109.029-15.065c7.108-22.739,7.152-31.392,9.609-46.295"/>
					</g>
				</g>
				<g>
					<g>
						<path style="fill:#A36957;" d="M360.552,340.56c0.043,0.28-3.369,0.868-7.62,1.312c-4.252,0.444-7.711,0.575-7.727,0.292
							c-0.016-0.283,3.395-0.87,7.62-1.312C357.05,340.411,360.509,340.28,360.552,340.56z"/>
					</g>
				</g>
				<g>
					<g>
						<path style="fill:#A36957;" d="M360.447,336.208c0.046,0.279-3.553,1.11-8.039,1.855c-4.487,0.745-8.161,1.122-8.208,0.843
							c-0.047-0.279,3.553-1.109,8.04-1.854C356.725,336.306,360.4,335.928,360.447,336.208z"/>
					</g>
				</g>
				<g>
					<g>
						<path style="fill:#A36957;" d="M360.314,331.69c0.05,0.279-3.343,1.122-7.578,1.882c-4.236,0.761-7.71,1.152-7.76,0.873
							c-0.05-0.279,3.342-1.121,7.579-1.883C356.789,331.802,360.263,331.411,360.314,331.69z"/>
					</g>
				</g>
			</g>
			<g>
				<polygon style="fill:#263238;" points="578.501,355.053 584.732,391.34 487.542,391.34 491.263,363.143 				"/>
				<path style="fill:#E8505B;" d="M463.95,230.407c0,0-14.128,42.431-13.223,44.127l31.094,7.211L463.95,230.407z"/>
				<path style="opacity:0.2;" d="M463.95,230.407c0,0-14.128,42.431-13.223,44.127l31.094,7.211L463.95,230.407z"/>
				<path style="fill:#E8505B;" d="M490.592,310.108l-3.05,60.733l93.891-10.63l-14.695-58.702c0,0-10.102-68.054-28.507-75.596
					c-7.112-2.914-13.906-4.7-19.535-6.297c-11.728-3.329-24.006-4.238-36.096-2.672l-1.89,0.245
					c-7.837,1.015-14.393,6.14-16.759,13.218c0,0-0.329,20.903,6.095,34.742L490.592,310.108z"/>
				<g>
					<path style="fill:#455A64;" d="M512.824,390.192c-0.144,0.003-0.352-4.936-0.466-11.028
						c-0.113-6.095-0.089-11.036,0.055-11.039c0.144-0.003,0.352,4.934,0.466,11.029
						C512.992,385.246,512.967,390.189,512.824,390.192z"/>
				</g>
				<g>
					<path style="fill:#455A64;" d="M517.991,370.908c-0.016-0.023,0.103-0.161,0.407-0.265c0.298-0.104,0.8-0.129,1.328,0.129
						c0.519,0.229,1.082,0.88,1.028,1.707c-0.031,0.788-0.549,1.655-1.459,1.96c-0.911,0.28-1.825-0.093-2.351-0.657
						c-0.557-0.579-0.666-1.351-0.575-1.905c0.207-1.16,0.924-1.547,0.93-1.492c0.075,0.053-0.484,0.524-0.564,1.531
						c-0.034,0.487,0.097,1.094,0.552,1.53c0.436,0.438,1.18,0.708,1.849,0.496c0.66-0.212,1.098-0.889,1.139-1.491
						c0.062-0.62-0.311-1.116-0.725-1.357C518.673,370.582,518.004,370.993,517.991,370.908z"/>
				</g>
				<g>
					<path style="fill:#455A64;" d="M580.045,376.846c0.01,0.015-0.117,0.116-0.37,0.296c-0.258,0.171-0.62,0.457-1.133,0.748
						c-1.002,0.622-2.531,1.409-4.527,2.111c-1.993,0.706-4.477,1.267-7.279,1.406c-2.797,0.144-5.91-0.184-9.002-1.163
						c-3.082-1.013-5.802-2.565-7.988-4.316c-2.193-1.75-3.883-3.656-5.087-5.393c-1.21-1.736-1.991-3.268-2.441-4.358
						c-0.247-0.536-0.374-0.979-0.483-1.269c-0.1-0.294-0.145-0.45-0.128-0.457c0.043-0.016,0.289,0.587,0.795,1.641
						c0.502,1.056,1.325,2.543,2.555,4.227c1.226,1.686,2.916,3.534,5.085,5.232c2.163,1.699,4.834,3.206,7.851,4.197
						c3.026,0.957,6.074,1.294,8.822,1.179c2.752-0.11,5.203-0.623,7.183-1.275c1.983-0.648,3.519-1.375,4.543-1.939
						C579.468,377.154,580.02,376.808,580.045,376.846z"/>
				</g>
				<g>
					<path style="fill:#FAFAFA;" d="M504.242,257.398c0.023,0.026-0.372,0.418-1.119,1.09c-0.754,0.663-1.85,1.628-3.355,2.634
						c-1.496,0.988-3.469,2.052-5.9,2.324c-2.436,0.289-5.09-0.432-7.602-1.529c-2.527-1.107-4.795-2.396-7.007-3.193
						c-2.197-0.83-4.324-1.113-6.074-0.861c-1.758,0.214-3.068,0.891-3.85,1.483c-0.786,0.601-1.113,1.061-1.154,1.027
						c-0.014-0.011,0.06-0.128,0.218-0.344c0.159-0.214,0.421-0.512,0.809-0.842c0.767-0.66,2.108-1.42,3.924-1.689
						c1.806-0.311,4.039-0.051,6.289,0.774c2.269,0.791,4.563,2.079,7.051,3.167c2.478,1.082,5.029,1.78,7.347,1.53
						c2.318-0.232,4.252-1.221,5.749-2.156c1.506-0.949,2.633-1.866,3.424-2.48C503.778,257.71,504.217,257.37,504.242,257.398z"/>
				</g>
				<g>
					<path style="fill:#FAFAFA;" d="M479.609,233.648c0.038,0.038-0.573,0.737-1.798,1.591c-1.217,0.855-3.094,1.797-5.329,2.29
						c-2.237,0.484-4.336,0.411-5.799,0.142c-1.469-0.265-2.316-0.645-2.298-0.696c0.025-0.086,0.904,0.165,2.35,0.331
						c1.443,0.17,3.47,0.182,5.636-0.286c2.164-0.478,4.001-1.334,5.241-2.091C478.856,234.175,479.55,233.581,479.609,233.648z"/>
				</g>
				<g>
					<path style="fill:#FAFAFA;" d="M564.501,290.855c0.011,0.013-0.21,0.206-0.651,0.557c-0.461,0.318-1.155,0.787-2.149,1.194
						c-1.971,0.837-5.135,1.336-8.931,0.817c-1.898-0.248-3.931-0.735-6.098-1.268c-2.167-0.527-4.481-1.108-6.958-1.347
						c-2.474-0.212-5.102-0.053-7.745,0.557c-2.647,0.591-5.3,1.564-7.972,2.66c-5.329,2.215-10.37,4.624-15.344,5.657
						c-4.967,1.145-9.63,0.529-13.311-0.34c-3.71-0.894-6.589-2.008-8.575-2.757c-0.953-0.379-1.71-0.681-2.273-0.905
						c-0.516-0.215-0.784-0.336-0.778-0.353c0.006-0.017,0.287,0.071,0.815,0.255c0.571,0.201,1.339,0.473,2.306,0.813
						c2.004,0.69,4.897,1.748,8.587,2.589c3.668,0.816,8.251,1.381,13.128,0.229c4.893-1.042,9.894-3.443,15.247-5.67
						c2.685-1.1,5.365-2.081,8.058-2.676c2.687-0.614,5.38-0.768,7.904-0.537c2.525,0.258,4.853,0.862,7.016,1.406
						c2.162,0.552,4.177,1.055,6.044,1.322c3.738,0.557,6.846,0.124,8.806-0.641C563.598,291.648,564.463,290.795,564.501,290.855z"
						/>
				</g>
				<g>
					<path style="fill:#FAFAFA;" d="M490.086,328.041c-0.007-0.005,0.037-0.071,0.132-0.195c0.116-0.147,0.257-0.324,0.428-0.542
						c0.413-0.441,1.032-1.105,1.998-1.748c0.953-0.653,2.228-1.309,3.807-1.78c1.58-0.449,3.453-0.746,5.525-0.68
						c4.181,0.068,8.896,1.797,13.836,3.996c2.488,1.081,5.085,2.243,7.886,3.122c2.791,0.865,5.814,1.481,8.899,1.241
						c3.088-0.232,5.944-1.403,8.507-2.815c2.581-1.401,4.946-3.002,7.339-4.31c2.376-1.332,4.806-2.353,7.212-2.816
						c2.407-0.444,4.715-0.342,6.748,0.036c4.088,0.807,7.007,2.698,8.721,4.21c1.729,1.536,2.405,2.637,2.405,2.637
						c-0.007,0.005-0.065-0.05-0.172-0.163c-0.125-0.138-0.276-0.305-0.461-0.508c-0.192-0.232-0.459-0.492-0.776-0.798
						c-0.304-0.318-0.689-0.649-1.128-1.013c-1.734-1.449-4.639-3.257-8.657-4.003c-1.998-0.347-4.257-0.424-6.599,0.026
						c-2.339,0.469-4.714,1.481-7.061,2.812c-2.363,1.307-4.72,2.915-7.328,4.339c-2.585,1.433-5.521,2.646-8.711,2.886
						c-3.181,0.246-6.267-0.391-9.092-1.273c-2.835-0.897-5.445-2.078-7.925-3.169c-4.925-2.221-9.561-3.955-13.656-4.068
						c-2.033-0.089-3.875,0.178-5.433,0.592c-1.557,0.436-2.82,1.053-3.775,1.669C490.836,326.973,490.146,328.103,490.086,328.041z
						"/>
				</g>
				<g>
					<path style="fill:#FAFAFA;" d="M574.887,360.078c-0.078,0.037-0.38-1.298-1.77-3.23c-1.382-1.897-4.072-4.3-8.139-5.575
						c-2.01-0.662-4.332-1.01-6.82-0.911c-2.49,0.081-5.128,0.585-7.812,1.404c-2.685,0.828-5.416,1.969-8.195,3.265
						c-2.781,1.294-5.622,2.735-8.618,4.046c-2.993,1.311-6.017,2.415-9.053,3.051c-3.041,0.602-6.048,0.774-8.884,0.582
						c-5.692-0.366-10.618-1.944-14.627-3.405c-4.005-1.516-7.143-2.984-9.304-4.003c-1.08-0.512-1.913-0.921-2.475-1.204
						c-0.257-0.132-0.466-0.239-0.637-0.327c-0.142-0.076-0.213-0.119-0.209-0.128c0.004-0.008,0.082,0.019,0.232,0.079
						c0.177,0.075,0.393,0.167,0.659,0.28c0.614,0.272,1.454,0.645,2.515,1.115c2.185,0.962,5.342,2.376,9.346,3.842
						c4.007,1.411,8.91,2.937,14.53,3.272c2.801,0.177,5.759-0.004,8.749-0.602c2.987-0.632,5.975-1.726,8.95-3.029
						c2.977-1.303,5.817-2.739,8.612-4.032c2.793-1.294,5.55-2.436,8.27-3.261c2.719-0.816,5.402-1.313,7.938-1.376
						c2.533-0.083,4.91,0.295,6.948,0.992c4.13,1.345,6.837,3.843,8.189,5.807c0.677,0.996,1.082,1.844,1.308,2.433
						c0.094,0.274,0.171,0.497,0.234,0.679C574.875,359.995,574.896,360.075,574.887,360.078z"/>
				</g>
			</g>
			<g>
				<g>
					<g style="opacity:0.2;">
						<path d="M503.326,368.83c9.529-0.38,19.071-3.56,26.359-9.71c9.982-8.424,14.915-21.641,16.011-34.657
							c1.096-13.015-1.226-26.049-3.539-38.904c-8.912,12.485-16.184,26.139-21.57,40.502c-3.539,9.437-6.652,19.751-14.493,26.083
							c-2.797,2.259-6.137,3.944-8.324,6.798c-2.188,2.854-2.662,7.547,0.244,9.664c0.862,0.282,1.724,0.563,2.586,0.845"/>
					</g>
					<g>
						<g>
							<path style="fill:#FFBE9D;" d="M434.466,369.33c1.326,0.82,3.961,1.5,5.961,1.93c1.65,0.355,3.348,0.44,5.021,0.222
								c0.781-0.102,1.517-0.209,2.209-0.32c3.229-0.518,6.228-1.933,8.697-4.077c10.829-9.403,40.143-39.146,45.381-45.877
								c6.297-8.091,8.062-61.57,8.062-61.57l35.172,5.76c0,0-0.628,38.544-9.282,68.528c-5.504,19.071-72.022,58.306-72.08,58.341
								c-4.927,5.404-10.47,11.25-13.875,14.104c-7.089,5.943-7.631,5.315-8.183,4.372c-1.48-2.535,12.075-10.927,8.116-10.813
								c-3.96,0.114-15.386,12.191-16.825,9.479c-1.875-3.536,12.477-12.06,13.639-12.872c1.128-0.788,0.029-2.517-0.98-1.729
								c-1.451,1.134-16.984,12.663-18.859,9.208c-1.039-1.915,2.573-3.462,2.573-3.462s15.327-9.716,14.388-11.318
								c-0.954-1.626-10.145,3.776-13.116,5.817c-2.935,2.017-5.088,1.44-4.901-0.602c0.127-1.392,9.077-7.857,12.062-9.806
								c2.984-1.949,11.266-7.15,5.098-7.908c-6.169-0.757-10.624-3.664-11.283-5.289
								C430.803,369.823,432.824,368.315,434.466,369.33z"/>
						</g>
						<g>
							<path style="fill:#E8505B;" d="M523.072,224.793c6.797-1.43,13.869,0.882,18.485,5.692c4.099,4.27,8.219,11.413,7.869,22.745
								c-0.682,22.108-2.428,29.649-2.428,29.649l-43.351-1.501l1.699-37.145C505.347,244.233,508.697,227.817,523.072,224.793z"/>
							<path style="opacity:0.2;" d="M523.072,224.793c6.797-1.43,13.869,0.882,18.485,5.692c4.099,4.27,8.283,11.975,7.933,23.308
								c-0.682,22.108-2.491,29.087-2.491,29.087l-43.351-1.501l1.763-36.582C505.411,244.795,508.697,227.817,523.072,224.793z"/>
						</g>
					</g>
				</g>
				<g>
					<path style="fill:#FAFAFA;" d="M548.637,269.994c-0.041,0.042-0.492-0.447-1.462-1.128c-0.965-0.681-2.503-1.488-4.547-2.024
						c-2.041-0.51-4.601-0.747-7.345-0.255c-2.736,0.518-5.604,1.749-8.574,3.055c-2.977,1.314-5.834,2.596-8.625,3.25
						c-2.785,0.642-5.394,0.667-7.527,0.362c-2.136-0.328-3.787-0.986-4.82-1.604c-0.514-0.317-0.901-0.576-1.138-0.789
						c-0.245-0.2-0.367-0.311-0.356-0.325c0.036-0.048,0.543,0.385,1.591,0.936c1.045,0.553,2.676,1.142,4.773,1.417
						c2.094,0.252,4.65,0.189,7.367-0.465c2.713-0.661,5.549-1.945,8.525-3.26c2.981-1.309,5.87-2.54,8.701-3.051
						c2.83-0.479,5.447-0.196,7.523,0.372c2.08,0.594,3.626,1.472,4.572,2.216c0.469,0.38,0.82,0.686,1.029,0.926
						C548.543,269.856,548.65,269.981,548.637,269.994z"/>
				</g>
				<g>
					<path style="fill:#FAFAFA;" d="M546.868,238.698c0.013,0.033-0.494,0.249-1.425,0.611c-0.462,0.193-1.042,0.385-1.722,0.587
						c-0.676,0.217-1.451,0.449-2.324,0.644c-1.73,0.459-3.836,0.795-6.181,1.09c-2.353,0.232-4.953,0.364-7.682,0.28
						c-2.729-0.11-5.317-0.413-7.645-0.836c-2.316-0.482-4.388-1.003-6.061-1.644c-0.85-0.282-1.594-0.6-2.239-0.899
						c-0.653-0.281-1.206-0.54-1.636-0.798c-0.875-0.485-1.347-0.767-1.33-0.798c0.018-0.031,0.524,0.191,1.42,0.617
						c0.441,0.228,1.002,0.459,1.66,0.712c0.65,0.271,1.396,0.562,2.245,0.819c1.671,0.591,3.732,1.069,6.028,1.52
						c2.31,0.393,4.873,0.678,7.576,0.787c2.704,0.083,5.28-0.034,7.615-0.237c2.327-0.266,4.422-0.562,6.148-0.971
						c0.871-0.171,1.646-0.376,2.326-0.565c0.683-0.174,1.269-0.336,1.738-0.499C546.324,238.816,546.855,238.664,546.868,238.698z"
						/>
				</g>
			</g>
		</g>
		<g>
			<g>
				<path style="fill:#263238;" d="M500.197,176.681c-0.16,1.14,0.415,2.349,1.401,2.943c0.985,0.594,2.323,0.54,3.257-0.133
					c1.773-1.279,1.601-3.975,0.889-6.042c-0.712-2.067-1.791-4.223-1.208-6.33c0.446-1.612,1.775-2.797,2.742-4.162
					c1.684-2.378,2.282-5.553,1.349-8.314c-0.933-2.761-3.461-4.978-6.355-5.318c-2.955-0.348-6.306,1.069-8.735-0.65
					c-1.76-1.246-2.235-3.664-3.695-5.251c-2.266-2.464-6.212-2.293-9.419-1.331c-3.206,0.962-6.377,2.536-9.712,2.24
					c-2.785-0.247-5.278-1.774-7.97-2.529c-5.835-1.637-12.582,0.803-16.021,5.793s-3.317,12.164,0.289,17.034
					c1.295,1.749,3.068,3.246,5.188,3.739"/>
				<g>
					<g>
						<g>
							<path style="fill:#FFBE9D;" d="M495.297,239.423L495.297,239.423c-9.017,1.65-17.672-4.308-19.355-13.32
								c-0.963-5.157-1.763-9.501-1.763-9.501s-13.392,0.196-15.777-12.821c-2.384-13.017-5.064-41.625-5.064-41.625l-0.166-1.73
								c13.993-9.063,32.029-8.413,46.762-0.609l0.439,2.69l8.464,58.682C509.817,229.882,503.901,237.848,495.297,239.423z"/>
							<path style="fill:#FFFFFF;" d="M480.682,193.878l-8.374,4.062c0,0,2.669,2.995,6.195,0.977
								C482.164,196.824,480.682,193.878,480.682,193.878z"/>
							<path style="fill:#EB996E;" d="M474.124,216.418c0,0,8.358-0.734,16.181-7.732c0,0-2.419,10.073-15.635,11.117
								L474.124,216.418z"/>
						</g>
					</g>
					<g>
						<path style="fill:#FFBE9D;" d="M501.04,171.292c0.273-0.138,9.598-2.386,9.907,8.878c0.309,11.264-11.169,7.851-11.198,7.528
							C499.721,187.376,501.04,171.292,501.04,171.292z"/>
						<g>
							<path style="fill:#EB996E;" d="M503.092,183.651c0.048-0.037,0.2,0.132,0.536,0.275c0.327,0.139,0.886,0.226,1.467-0.01
								c1.178-0.469,2.128-2.386,2.127-4.418c0.001-1.026-0.241-1.997-0.626-2.795c-0.367-0.814-0.915-1.375-1.517-1.466
								c-0.6-0.121-1.014,0.249-1.143,0.57c-0.142,0.319-0.065,0.542-0.124,0.563c-0.031,0.029-0.247-0.182-0.169-0.65
								c0.041-0.225,0.166-0.494,0.424-0.718c0.265-0.227,0.659-0.35,1.078-0.317c0.87,0.036,1.674,0.814,2.097,1.69
								c0.472,0.879,0.767,1.969,0.766,3.121c-0.01,2.271-1.113,4.427-2.729,4.943c-0.787,0.228-1.454,0.008-1.803-0.249
								C503.119,183.923,503.053,183.673,503.092,183.651z"/>
						</g>
					</g>
				</g>
				<g>
					<path style="fill:#263238;" d="M451.084,168.007c0,0,8.431,2.745,18.018-3.8c6.291-4.295,13.937-7.019,15.858-5.899
						c1.921,1.12,3.24,8.027,10.207,9.143c0,0,1.358,13.338,6.586,12.14c5.228-1.198-0.895-21.306-0.895-21.306l-13.31-7.071
						l-14.495-0.735l-15.35,3.867l-8.126,6.584L451.084,168.007z"/>
					<g>
						<path style="fill:#263238;" d="M500.283,147.044c0.005,0.156-1.388,0.193-2.819,1.017c-1.447,0.796-2.202,1.967-2.333,1.882
							c-0.13-0.038,0.488-1.453,2.077-2.336C498.788,146.707,500.318,146.913,500.283,147.044z"/>
					</g>
					<g>
						<path style="fill:#263238;" d="M494.121,142.573c0.101-0.038,0.858,1.737,0.902,4.117c0.02,1.184-0.228,2.25-0.5,2.971
							c-0.281,0.723-0.559,1.115-0.615,1.087c-0.147-0.062,0.645-1.782,0.594-4.055
							C494.465,144.436,493.947,142.612,494.121,142.573z"/>
					</g>
				</g>
			</g>
			<g>
				<g>
					<g>
						<g>
							<path style="fill:#263238;" d="M457.344,181.12c0.015,1.012,0.884,1.833,1.941,1.837c1.055,0.004,1.9-0.811,1.885-1.823
								c-0.015-1.012-0.884-1.834-1.939-1.838C458.174,179.292,457.329,180.108,457.344,181.12z"/>
						</g>
					</g>
				</g>
				<g>
					<g>
						<g>
							<g>
								<path style="fill:#263238;" d="M457.288,179.648c0.25,0.238,1.645-0.908,3.703-1.006c2.054-0.127,3.618,0.855,3.829,0.592
									c0.104-0.117-0.16-0.555-0.842-1.001c-0.671-0.444-1.799-0.852-3.08-0.783c-1.282,0.072-2.336,0.598-2.932,1.112
									C457.358,179.08,457.166,179.542,457.288,179.648z"/>
							</g>
						</g>
					</g>
				</g>
			</g>
			<g>
				<g>
					<g>
						<g>
							<path style="fill:#263238;" d="M477.597,180.059c0.062,1.01,0.969,1.79,2.025,1.744c1.054-0.046,1.859-0.9,1.797-1.91
								c-0.063-1.01-0.969-1.791-2.023-1.745C478.34,178.193,477.534,179.049,477.597,180.059z"/>
						</g>
					</g>
				</g>
				<g>
					<g>
						<g>
							<g>
								<path style="fill:#263238;" d="M477.031,178.567c0.261,0.225,1.603-0.984,3.652-1.178c2.046-0.224,3.654,0.685,3.852,0.412
									c0.098-0.122-0.184-0.547-0.888-0.96c-0.691-0.412-1.836-0.767-3.113-0.637c-1.277,0.132-2.305,0.707-2.877,1.248
									C477.076,177.997,476.904,178.467,477.031,178.567z"/>
							</g>
						</g>
					</g>
				</g>
			</g>
			<g>
				<g>
					<g>
						<g>
							<path style="fill:#263238;" d="M471.07,194.502c-0.002-0.118-1.298-0.214-3.39-0.276c-0.529-0.003-1.035-0.059-1.158-0.408
								c-0.16-0.367,0.004-0.952,0.198-1.586c0.369-1.315,0.755-2.694,1.16-4.138c1.597-5.887,2.699-10.707,2.461-10.77
								c-0.238-0.062-1.725,4.659-3.323,10.546c-0.381,1.45-0.746,2.833-1.093,4.156c-0.14,0.614-0.415,1.323-0.071,2.082
								c0.179,0.378,0.591,0.624,0.936,0.682c0.346,0.07,0.641,0.047,0.901,0.037C469.783,194.735,471.074,194.619,471.07,194.502z"
								/>
						</g>
					</g>
				</g>
			</g>
			<g>
				<g>
					<g>
						<path style="fill:#263238;" d="M475.758,172.445c0.257,0.538,2.279,0.074,4.713,0.13c2.436,0.007,4.445,0.522,4.715-0.009
							c0.119-0.253-0.27-0.745-1.107-1.208c-0.83-0.463-2.121-0.855-3.581-0.875c-1.46-0.017-2.76,0.341-3.602,0.783
							C476.048,171.707,475.646,172.188,475.758,172.445z"/>
					</g>
				</g>
			</g>
			<g>
				<g>
					<g>
						<path style="fill:#263238;" d="M457.01,174.14c0.406,0.431,1.772-0.191,3.469-0.379c1.69-0.248,3.168,0.007,3.452-0.512
							c0.122-0.251-0.15-0.695-0.822-1.075c-0.662-0.379-1.733-0.637-2.897-0.488c-1.163,0.151-2.134,0.672-2.678,1.206
							C456.979,173.429,456.829,173.928,457.01,174.14z"/>
					</g>
				</g>
			</g>
		</g>
	</g>
</g>
<g id="Character_1">
	<g>
		<g>
			<path style="fill:#263238;" d="M94.29,267.695l53.592,133.98h150.414l-47.784-135.807c-0.346-0.985-1.277-1.643-2.321-1.643
				l-151.62,0.098C94.833,264.324,93.645,266.08,94.29,267.695z"/>
			<path style="fill:#455A64;" d="M102.536,271.351l49.211,120.039c0.213,0.52,0.729,0.861,1.303,0.861h137.026
				c0.969,0,1.647-0.936,1.323-1.827l-43.599-120.038c-0.199-0.547-0.729-0.912-1.323-0.912H103.84
				C102.846,269.473,102.167,270.451,102.536,271.351z"/>
			<polygon style="fill:#263238;" points="147.882,401.675 149.218,401.675 352.304,401.675 352.304,392.25 153.436,392.25 			"/>
		</g>
		<g>
			<g>
				<path style="fill:#B78876;" d="M382.97,271.177c0,0,3.748-4.862,1.217-10.481c-2.531-5.619-9.334-12.029-9.334-12.029
					c-1.979-0.51,0.64-11.811,1.789-15.553c1.136-3.697-0.147-5.785-2.188-4.971c-1.392,0.555-5.182,11.924-6.233,15.652
					c-0.574,2.038-1.643,6.034-2.943,8.217c-1.079,1.811-2.317,2.374-3.565-0.463c-2.754-6.258-7.173-10.062-9.056-10.264
					c-1.884-0.2-2.789,2.382-1.219,3.801c1.269,1.147,2.812,3.711,3.895,5.685c0.893,1.627,1.524,3.387,1.835,5.213
					c0.27,1.581,0.461,2.987,0.609,4.254c0,0,0.627,5.558-0.076,9.452l-37.68,44.501l-8.221-30.127l-0.763-2.318l-32.442,12.052
					c-0.969,0.258,6.975,23.852,12.013,38.513c2.493,7.254,7.989,13.076,15.087,15.982h0c11.354,4.648,24.414,0.934,31.623-8.993
					l40.332-58.549l-0.87-0.593l0.817,0.372L382.97,271.177z"/>
				<g>
					<path style="fill:#AA6550;" d="M377.939,251.612c0.033,0.013-0.083,0.404-0.323,1.101c-0.289,0.797-0.643,1.776-1.061,2.931
						c-0.48,1.269-1.032,2.725-1.636,4.322c-0.334,0.791-0.552,1.713-1.23,2.518c-0.347,0.389-0.818,0.702-1.386,0.786
						c-0.572,0.097-1.194-0.177-1.551-0.618c-0.372-0.431-0.556-0.991-0.579-1.519c-0.03-0.531,0.063-1.033,0.17-1.502
						c0.225-0.93,0.465-1.81,0.71-2.649c0.488-1.676,1.003-3.162,1.47-4.396c0.469-1.233,0.891-2.214,1.201-2.883
						c0.309-0.67,0.506-1.028,0.537-1.014c0.035,0.015-0.099,0.4-0.35,1.091c-0.251,0.691-0.619,1.688-1.042,2.93
						c-0.42,1.243-0.896,2.731-1.355,4.403c-0.23,0.834-0.46,1.719-0.673,2.631c-0.21,0.886-0.29,1.884,0.307,2.569
						c0.28,0.333,0.681,0.506,1.086,0.444c0.406-0.055,0.794-0.298,1.074-0.611c0.569-0.65,0.822-1.559,1.165-2.355
						c0.643-1.582,1.23-3.025,1.74-4.281c0.479-1.131,0.885-2.09,1.215-2.87C377.725,251.965,377.906,251.599,377.939,251.612z"/>
				</g>
				<g>
					<path style="fill:#AA6550;" d="M381.762,256.01c0.033,0.013-0.069,0.357-0.282,0.967c-0.213,0.61-0.538,1.486-0.949,2.564
						c-0.415,1.08-0.9,2.355-1.479,3.781c-0.305,0.701-0.716,1.502-1.501,2.001c-0.382,0.243-0.845,0.412-1.343,0.395
						c-0.498-0.016-0.985-0.252-1.332-0.6c-0.718-0.701-0.894-1.727-0.816-2.577c0.074-0.87,0.293-1.644,0.485-2.389
						c0.405-1.485,0.894-2.781,1.344-3.849c0.452-1.068,0.868-1.908,1.17-2.48c0.303-0.572,0.494-0.875,0.525-0.86
						c0.075,0.036-0.537,1.329-1.353,3.477c-0.402,1.075-0.85,2.368-1.222,3.835c-0.176,0.733-0.381,1.514-0.44,2.302
						c-0.063,0.782,0.104,1.614,0.673,2.171c0.547,0.581,1.406,0.567,2.036,0.145c0.644-0.398,1.03-1.09,1.335-1.764
						c0.58-1.37,1.11-2.624,1.577-3.726c0.455-1.06,0.832-1.915,1.103-2.502C381.563,256.315,381.729,255.997,381.762,256.01z"/>
				</g>
				<g>
					<path style="fill:#AA6550;" d="M383.862,260.455c0.068,0.023-0.227,1.109-0.758,2.848c-0.271,0.872-0.578,1.894-0.972,3.052
						c-0.208,0.569-0.57,1.246-1.276,1.57c-0.342,0.164-0.786,0.2-1.166,0.048c-0.379-0.146-0.684-0.423-0.897-0.753
						c-0.429-0.686-0.428-1.454-0.401-2.109c0.03-0.667,0.116-1.307,0.241-1.906c0.249-1.2,0.65-2.235,1.067-3.056
						c0.42-0.822,0.849-1.434,1.17-1.834c0.32-0.401,0.533-0.592,0.557-0.572c0.074,0.055-0.655,0.928-1.394,2.564
						c-0.363,0.818-0.714,1.83-0.928,2.99c-0.108,0.579-0.18,1.195-0.202,1.835c-0.025,0.631,0.004,1.299,0.329,1.806
						c0.324,0.518,0.92,0.771,1.417,0.521c0.514-0.226,0.83-0.745,1.038-1.278c0.388-1.087,0.747-2.091,1.07-2.995
						C383.376,261.478,383.794,260.432,383.862,260.455z"/>
				</g>
				<g>
					<path style="fill:#AA6550;" d="M370.998,270.104c-0.089-0.012,0.004-0.792-0.096-2.033c-0.094-1.238-0.458-2.939-1.306-4.633
						c-0.858-1.69-2.009-2.994-2.949-3.806c-0.939-0.818-1.621-1.207-1.578-1.286c0.022-0.049,0.777,0.228,1.81,1.001
						c1.031,0.764,2.286,2.091,3.181,3.857c0.887,1.769,1.208,3.566,1.209,4.85C371.276,269.343,371.05,270.115,370.998,270.104z"/>
				</g>
			</g>
			<g>
				<path style="fill:#263238;" d="M160.969,391.351l97.784,0.494l1.2-17.242l-76.278-33.947c-6.7,8.003-10.744,17.375-12.67,27.839
					L160.969,391.351"/>
				<g>
					<path style="fill:#455A64;" d="M207.17,358.151c0.026,0.025-0.289,0.378-0.884,0.999c-0.292,0.316-0.663,0.689-1.133,1.081
						c-0.464,0.397-0.97,0.879-1.601,1.32c-0.613,0.466-1.292,0.968-2.07,1.433c-0.752,0.509-1.616,0.947-2.514,1.43
						c-1.829,0.897-3.923,1.724-6.201,2.323c-2.286,0.572-4.519,0.854-6.555,0.948c-1.02,0.009-1.988,0.041-2.892-0.043
						c-0.906-0.033-1.743-0.147-2.505-0.26c-0.766-0.083-1.441-0.263-2.039-0.387c-0.6-0.117-1.104-0.266-1.513-0.402
						c-0.82-0.258-1.266-0.416-1.255-0.45c0.03-0.108,1.836,0.501,4.856,0.874c0.755,0.089,1.582,0.18,2.477,0.193
						c0.892,0.065,1.846,0.017,2.85-0.005c2.003-0.12,4.197-0.411,6.446-0.973c2.241-0.59,4.304-1.39,6.118-2.249
						c0.89-0.464,1.749-0.881,2.5-1.367c0.777-0.443,1.458-0.92,2.078-1.362C205.801,359.473,207.091,358.071,207.17,358.151z"/>
				</g>
				<g>
					<path style="fill:#455A64;" d="M233.756,389.902c-0.068-0.03,0.417-1.285,1.185-3.32c0.826-2.166,1.872-4.909,3.029-7.942
						c1.179-3.027,2.244-5.763,3.086-7.924c0.809-2.021,1.338-3.26,1.406-3.235c0.067,0.025-0.34,1.31-1.061,3.364
						c-0.721,2.054-1.754,4.879-2.944,7.981c-1.19,3.101-2.313,5.892-3.174,7.893c-0.428,1.001-0.794,1.804-1.061,2.353
						C233.953,389.621,233.789,389.916,233.756,389.902z"/>
				</g>
				<g>
					<path style="fill:#455A64;" d="M234.305,366.676c0.049,0.08-0.801,0.216-1.301,1.25c-0.236,0.493-0.306,1.2,0.088,1.795
						c0.367,0.589,1.152,1.051,1.94,0.933c0.787-0.127,1.395-0.806,1.565-1.479c0.194-0.687-0.087-1.339-0.462-1.737
						c-0.79-0.833-1.641-0.704-1.619-0.795c-0.005-0.028,0.18-0.104,0.533-0.081c0.348,0.021,0.871,0.176,1.347,0.617
						c0.471,0.416,0.884,1.229,0.667,2.11c-0.19,0.846-0.905,1.701-1.951,1.88c-1.051,0.148-1.991-0.45-2.43-1.198
						c-0.475-0.773-0.328-1.673-0.006-2.213c0.319-0.565,0.771-0.871,1.096-0.997C234.102,366.632,234.301,366.647,234.305,366.676z
						"/>
				</g>
			</g>
			<g>
				<g>
					<path style="fill:#E8505B;" d="M300.44,245.385c0,0,14.297,42.064,13.492,43.78l-28.949,7.935L300.44,245.385z"/>
					<path style="opacity:0.2;" d="M300.44,245.385c0,0,14.297,42.064,13.492,43.78l-28.949,7.935L300.44,245.385z"/>
				</g>
				<path style="fill:#E8505B;" d="M276.976,315.082l-9.124,38.727l-5.928,21.672l-78.25-34.825l24.832-39.947
					c0,0,13.606-55.625,32.797-65.91c13.946-7.474,25.797-4.875,27.571-4.875l16.667,2.302c0.367,0.051,0.731,0.112,1.092,0.183
					c8.884,1.747,14.917,10.064,14.462,19.107c-0.364,7.235-1.575,19.488-5.561,28.646
					C290.199,292.418,276.976,315.082,276.976,315.082z"/>
				<g>
					<path style="fill:#FAFAFA;" d="M264.843,366.789c0,0-0.197-0.079-0.572-0.257c-0.382-0.164-0.924-0.458-1.618-0.877
						c-1.373-0.844-3.316-2.319-5.179-4.786c-1.842-2.441-3.589-5.99-3.841-10.402c-0.131-2.19,0.238-4.593,1.324-6.854
						c0.548-1.123,1.292-2.208,2.283-3.102c0.979-0.905,2.255-1.543,3.64-1.794c2.819-0.517,5.848,0.942,7.69,3.36
						c0.913,1.222,1.569,2.714,1.678,4.315c0.145,1.588-0.181,3.235-0.861,4.728c-1.346,2.995-4.132,5.476-7.538,6.354
						c-3.387,0.918-7.155,0.473-10.499-1.029c-3.359-1.518-6.271-4.045-8.676-7.004c-1.206-1.483-2.323-3.061-3.304-4.751
						c-0.977-1.689-1.799-3.514-2.262-5.468c-0.481-1.944-0.53-4.034-0.065-6.032c0.474-1.985,1.488-3.923,3.126-5.267
						c1.63-1.347,3.82-1.98,5.947-1.745c1.06,0.134,2.112,0.495,3,1.129c0.879,0.64,1.591,1.514,2.03,2.509
						c0.888,1.997,0.842,4.292,0.115,6.284c-0.75,2.009-2.19,3.649-3.832,4.9c-3.34,2.48-7.341,3.737-11.285,4.195
						c-3.962,0.439-7.967-0.117-11.511-1.604c-3.544-1.507-6.528-4.024-8.633-7.025c-2.12-2.996-3.312-6.537-3.392-10.023
						c-0.031-1.741,0.22-3.474,0.819-5.066c0.599-1.587,1.561-3.035,2.868-4.067c1.309-1.021,2.908-1.602,4.508-1.668
						c1.595-0.074,3.221,0.44,4.364,1.508c1.147,1.063,1.77,2.546,1.924,4.003c0.168,1.464-0.078,2.923-0.618,4.214
						c-1.115,2.634-3.491,4.26-5.772,5.181c-2.327,0.928-4.697,1.228-6.881,1.269c-4.397,0.057-8.11-1-10.92-2.226
						c-2.82-1.25-4.774-2.67-6.015-3.7c-0.623-0.517-1.076-0.935-1.365-1.232c-0.296-0.29-0.438-0.447-0.438-0.447
						s0.167,0.132,0.475,0.409c0.3,0.284,0.764,0.688,1.395,1.19c1.258,1,3.219,2.384,6.03,3.596
						c2.8,1.189,6.488,2.204,10.833,2.121c2.159-0.054,4.492-0.366,6.762-1.285c1.134-0.452,2.233-1.086,3.217-1.908
						c0.975-0.832,1.832-1.865,2.34-3.109c0.511-1.235,0.74-2.636,0.575-4.027c-0.152-1.386-0.748-2.77-1.813-3.751
						c-1.062-0.985-2.57-1.461-4.075-1.387c-1.507,0.067-3.027,0.624-4.258,1.591c-1.227,0.974-2.148,2.358-2.718,3.884
						c-0.573,1.532-0.813,3.211-0.778,4.9c0.086,3.387,1.252,6.836,3.327,9.757c2.061,2.927,4.978,5.378,8.434,6.843
						c3.461,1.447,7.38,1.989,11.262,1.555c3.858-0.448,7.799-1.699,11.025-4.1c1.585-1.206,2.958-2.785,3.659-4.668
						c0.686-1.873,0.722-4.046-0.102-5.889c-0.406-0.92-1.059-1.715-1.858-2.299c-0.809-0.577-1.775-0.91-2.759-1.036
						c-1.976-0.221-4.043,0.375-5.556,1.629c-1.532,1.254-2.5,3.088-2.955,4.986c-0.445,1.914-0.404,3.912,0.061,5.796
						c0.918,3.794,3.124,7.088,5.455,10.022c2.367,2.92,5.22,5.397,8.487,6.881c3.252,1.469,6.915,1.903,10.182,1.025
						c3.281-0.836,5.96-3.215,7.265-6.091c0.658-1.431,0.972-3.004,0.839-4.516c-0.099-1.518-0.715-2.933-1.583-4.107
						c-1.755-2.322-4.652-3.72-7.307-3.239c-1.31,0.233-2.529,0.83-3.47,1.693c-0.953,0.852-1.68,1.896-2.218,2.986
						c-1.069,2.194-1.446,4.547-1.331,6.694c0.22,4.341,1.914,7.861,3.714,10.296c1.819,2.461,3.725,3.951,5.072,4.818
						c0.681,0.431,1.213,0.738,1.585,0.918C264.66,366.677,264.843,366.789,264.843,366.789z"/>
				</g>
				<g>
					<path style="fill:#FAFAFA;" d="M288.323,292.078c-0.007,0.006-0.072-0.067-0.194-0.214c-0.138-0.172-0.312-0.391-0.53-0.663
						c-0.449-0.594-1.049-1.524-1.669-2.802c-0.594-1.289-1.166-2.949-1.471-4.948c-0.302-1.993-0.346-4.338,0.214-6.831
						c0.549-2.479,1.622-5.155,3.684-7.409c0.546-0.53,1.193-1.014,1.977-1.264c0.778-0.247,1.694-0.187,2.437,0.233
						c0.745,0.41,1.33,1.077,1.695,1.853c0.365,0.778,0.51,1.641,0.529,2.496c0.012,3.407-1.223,6.949-3.541,9.826
						c-1.155,1.437-2.584,2.705-4.233,3.671c-1.649,0.951-3.544,1.619-5.537,1.645c-1.993,0.038-3.953-0.728-5.408-1.99
						c-1.475-1.248-2.536-2.892-3.158-4.638c-0.626-1.748-0.852-3.576-0.852-5.341c0.029-1.762,0.13-3.5,0.64-5.144
						c0.261-0.813,0.613-1.6,1.144-2.271c0.51-0.676,1.264-1.209,2.102-1.376c0.837-0.183,1.713,0.019,2.406,0.43
						c0.696,0.418,1.253,0.997,1.678,1.636c0.436,0.638,0.714,1.349,0.909,2.053c0.207,0.705,0.297,1.426,0.316,2.128
						c0.044,1.41-0.238,2.749-0.662,3.955c-0.864,2.425-2.362,4.282-3.84,5.644c-1.486,1.374-2.951,2.323-4.154,3.064
						c-1.213,0.73-2.184,1.242-2.844,1.585c-0.31,0.156-0.559,0.281-0.756,0.38c-0.172,0.083-0.262,0.121-0.266,0.113
						c-0.004-0.008,0.078-0.062,0.241-0.16c0.19-0.111,0.431-0.25,0.731-0.425c0.643-0.372,1.597-0.912,2.787-1.665
						c1.18-0.763,2.617-1.73,4.062-3.103c1.439-1.363,2.874-3.19,3.692-5.554c0.401-1.174,0.661-2.471,0.608-3.821
						c-0.023-0.673-0.114-1.359-0.316-2.028c-0.192-0.672-0.457-1.336-0.866-1.925c-0.399-0.593-0.92-1.122-1.544-1.492
						c-0.625-0.362-1.37-0.527-2.089-0.367c-1.478,0.305-2.421,1.82-2.881,3.344c-0.478,1.554-0.579,3.278-0.6,4.999
						c0.004,1.724,0.23,3.493,0.834,5.169c0.597,1.669,1.616,3.236,3.012,4.415c1.382,1.192,3.195,1.898,5.069,1.865
						c1.875-0.023,3.692-0.657,5.281-1.572c1.59-0.93,2.975-2.154,4.096-3.544c2.251-2.777,3.457-6.225,3.458-9.494
						c-0.015-0.81-0.15-1.608-0.475-2.309c-0.321-0.695-0.847-1.293-1.489-1.65c-0.64-0.364-1.403-0.417-2.087-0.209
						c-0.687,0.213-1.29,0.651-1.807,1.147c-1.972,2.125-3.076,4.767-3.626,7.18c-0.572,2.438-0.556,4.743-0.285,6.709
						c0.274,1.973,0.809,3.62,1.368,4.906c0.585,1.276,1.151,2.215,1.57,2.825c0.199,0.284,0.359,0.511,0.486,0.69
						C288.278,291.989,288.329,292.072,288.323,292.078z"/>
				</g>
			</g>
			<g>
				<g>
					<g>
						<g>
							<path style="fill:#B78876;" d="M264.372,280.311c0,0,0,35.558,8.9,38.926c24.212,9.164,53.167,7.056,63.356,6.092
								c1.22-0.851,2.629-1.89,4.233-3.192l3.367-2.805c0,0,15.967,3.046,15.757,3.887c-0.21,0.84-6.231,2.782-12.412,1.391
								c0,0-1.329,2.419,1.472,3.782c4.071,1.981,18.498,8.089,20.783,9.469c2.036,1.229,3.925,3.251,1.641,3.389
								c-2.284,0.138-14.405-2.851-14.405-2.851s15.962,3.603,15.33,5.904c-0.436,1.588-4.867,1.926-15.186-1.507
								c0,0,13.128,3.068,14.379,4.601c2.827,3.462-13.006-0.073-13.006-0.073c11.07,2.574,11.013,1.976,10.978,3.526
								c-0.026,1.161-2.607,1.372-8.774,0.832c-5.003-0.437-10.272,0.109-17.925-0.143l0,0c0,0-98.864,17.614-107.872-26.023
								c-4.856-23.523-4.034-32.208-5.008-47.405"/>
						</g>
					</g>
					<g>
						<g>
							<path style="fill:#AA6550;" d="M351.884,345.927c-0.071,0.276,3.293,1.207,7.513,2.078c4.221,0.871,7.678,1.348,7.722,1.066
								c0.044-0.282-3.319-1.213-7.514-2.078C355.412,346.127,351.954,345.65,351.884,345.927z"/>
						</g>
					</g>
					<g>
						<g>
							<path style="fill:#AA6550;" d="M352.425,341.571c-0.074,0.276,3.454,1.469,7.879,2.665c4.427,1.196,8.075,1.943,8.15,1.667
								c0.075-0.275-3.453-1.468-7.88-2.665C356.148,342.042,352.499,341.295,352.425,341.571z"/>
						</g>
					</g>
					<g>
						<g>
							<path style="fill:#AA6550;" d="M353.01,337.052c-0.078,0.274,3.242,1.46,7.414,2.647c4.174,1.187,7.619,1.927,7.698,1.653
								c0.078-0.275-3.241-1.459-7.415-2.647C356.535,337.517,353.089,336.777,353.01,337.052z"/>
						</g>
					</g>
				</g>
				<path style="fill:#E8505B;" d="M246.135,245.518c-6.48-0.655-12.821,2.437-16.612,7.732c-3.366,4.702-6.449,12.259-4.928,23.474
					c2.967,21.879,5.388,29.172,5.388,29.172l40.208-6.368l-5.501-36.698C264.69,262.83,259.839,246.904,246.135,245.518z"/>
				<path style="opacity:0.2;" d="M246.135,245.518c-6.48-0.655-12.821,2.437-16.612,7.732c-3.366,4.702-6.449,12.259-4.928,23.474
					c2.967,21.879,5.388,29.172,5.388,29.172l40.208-6.368l-5.501-36.698C264.69,262.83,259.839,246.904,246.135,245.518z"/>
				<g>
					<path style="fill:#AA6550;" d="M347.443,319.967c-0.004,0.02-0.303-0.019-0.865-0.111c-0.56-0.084-1.396-0.254-2.442-0.411
						c-0.479-0.019-1.034,0.268-1.56,0.622c-0.535,0.357-1.09,0.792-1.654,1.296c-1.134,1-2.349,2.233-3.612,3.646l-0.038,0.043
						l-0.055,0.017c-2.731,0.846-6.004,1.36-9.575,1.458c-3.574,0.115-7.434-0.159-11.436-0.469c-9.226-0.653-17.604-1.164-23.623-2
						c-3.01-0.4-5.433-0.816-7.094-1.169c-0.834-0.16-1.472-0.329-1.907-0.43c-0.434-0.107-0.66-0.172-0.656-0.189
						c0.004-0.017,0.237,0.013,0.678,0.087c0.492,0.085,1.13,0.196,1.923,0.334c1.669,0.292,4.094,0.651,7.102,1.003
						c6.015,0.741,14.378,1.192,23.616,1.846c4.004,0.31,7.842,0.593,11.383,0.499c3.54-0.077,6.769-0.555,9.472-1.355l-0.092,0.059
						c1.296-1.414,2.533-2.631,3.703-3.623c0.581-0.499,1.155-0.931,1.717-1.285c0.556-0.346,1.127-0.652,1.736-0.614
						c1.074,0.196,1.879,0.398,2.439,0.52C347.156,319.87,347.447,319.948,347.443,319.967z"/>
				</g>
				<g>
					<path style="fill:#FAFAFA;" d="M267.43,279.051c0.002,0.009-0.103,0.037-0.311,0.085c-0.236,0.051-0.542,0.117-0.926,0.199
						c-0.411,0.06-0.926,0.107-1.534,0.154c-0.61-0.005-1.316,0.022-2.104-0.087c-1.573-0.172-3.492-0.649-5.503-1.687
						c-0.996-0.53-2.027-1.177-2.993-2.023c-0.99-0.816-1.909-1.835-2.71-3.014c-0.814-1.174-1.476-2.534-1.872-4.061
						c-0.174-0.767-0.264-1.577-0.181-2.403c0.077-0.819,0.349-1.679,0.939-2.353c0.591-0.665,1.483-1.073,2.393-1.088
						c0.91-0.029,1.804,0.233,2.616,0.644c1.617,0.857,2.945,2.274,3.804,3.978c0.857,1.702,1.28,3.677,1.146,5.67
						c-0.117,1.99-0.833,4.004-2.114,5.642c-2.51,3.312-6.933,5.245-11.313,4.769c-4.398-0.486-8.225-3.117-10.581-6.474
						c-1.171-1.685-2.052-3.593-2.23-5.608c-0.091-1.001,0.011-2.017,0.344-2.959c0.345-0.932,0.899-1.771,1.616-2.43
						c0.714-0.653,1.599-1.139,2.554-1.28c0.952-0.165,1.925,0.041,2.746,0.455c1.668,0.833,2.735,2.466,3.119,4.114
						c0.41,1.661,0.292,3.329-0.035,4.851c-0.346,1.526-0.95,2.919-1.712,4.127c-1.525,2.428-3.657,4.085-5.735,4.973
						c-2.087,0.903-4.076,1.109-5.655,1.049c-1.591-0.049-2.794-0.389-3.581-0.649c-0.79-0.267-1.17-0.491-1.17-0.491
						c0.012-0.03,0.408,0.159,1.202,0.391c0.791,0.226,1.986,0.529,3.554,0.546c1.556,0.029,3.505-0.205,5.533-1.113
						c2.018-0.892,4.075-2.527,5.54-4.901c0.732-1.181,1.307-2.539,1.632-4.019c0.308-1.476,0.408-3.09,0.009-4.659
						c-0.373-1.559-1.374-3.053-2.905-3.811c-0.751-0.374-1.622-0.553-2.467-0.401c-0.849,0.127-1.649,0.568-2.302,1.169
						c-0.655,0.606-1.166,1.385-1.481,2.243c-0.302,0.859-0.398,1.809-0.309,2.749c0.17,1.892,1.015,3.73,2.153,5.358
						c2.284,3.247,5.998,5.786,10.219,6.25c4.19,0.46,8.456-1.402,10.851-4.56c2.501-3.142,2.575-7.561,0.945-10.786
						c-0.414-0.809-0.923-1.556-1.527-2.204c-0.621-0.624-1.299-1.195-2.057-1.583c-0.756-0.387-1.585-0.629-2.393-0.606
						c-0.809,0.011-1.568,0.359-2.086,0.931c-0.513,0.578-0.77,1.345-0.846,2.107c-0.082,0.767-0.003,1.538,0.158,2.271
						c0.366,1.455,1.003,2.801,1.786,3.945c0.771,1.155,1.659,2.16,2.621,2.968c0.938,0.838,1.942,1.484,2.913,2.016
						c1.962,1.044,3.842,1.543,5.391,1.743C265.709,279.607,267.425,278.933,267.43,279.051z"/>
				</g>
			</g>
			<g>
				<g>
					<g>
						<path style="fill:#263238;" d="M246.283,168.124c-1.445-4.084-5.325-7.197-9.626-7.723c-4.3-0.526-8.816,1.56-11.203,5.176
							c-1.523,2.307-2.178,5.059-3.132,7.653c-0.954,2.594-2.369,5.22-4.799,6.536c-2.844,1.54-6.579,1.01-9.165,2.952
							c-2.873,2.158-2.949,6.9-0.537,9.563c2.412,2.663,6.609,3.237,9.946,1.906c-0.699,2.143-1.405,4.335-1.366,6.589
							c0.04,2.253,0.965,4.62,2.881,5.807c1.939,1.201,4.518,0.949,6.533-0.12c2.015-1.068,3.562-2.835,4.943-4.649
							c0.403,1.568,0.817,3.16,1.653,4.546c0.837,1.385,2.173,2.559,3.772,2.806c1.962,0.303,3.932-0.87,5.068-2.497
							c1.136-1.627,1.577-3.636,1.828-5.605c0.619-4.87,0.219-9.846-0.942-14.616c-0.743-3.056-1.805-6.183-1.219-9.273
							c0.586-3.09,3.634-5.995,6.639-5.066"/>
					</g>
					<g>
						<g>
							<path style="fill:#455A64;" d="M206.86,189.208c-0.009,0.027,0.166,0.109,0.51,0.243c0.344,0.131,0.865,0.292,1.549,0.448
								c1.365,0.291,3.433,0.525,5.931,0.072c2.477-0.443,5.385-1.672,7.818-4.015c1.213-1.16,2.314-2.573,3.147-4.207
								c0.856-1.631,1.347-3.484,1.754-5.332c0.413-1.852,0.78-3.652,1.465-5.246c0.668-1.598,1.698-2.937,2.986-3.854
								c2.582-1.874,5.699-2.15,8.013-1.548c2.359,0.588,4.007,1.807,5.018,2.71c1.022,0.917,1.46,1.558,1.521,1.512
								c0.023-0.016-0.07-0.186-0.271-0.496c-0.21-0.302-0.536-0.742-1.029-1.245c-0.969-0.997-2.621-2.343-5.093-3.04
								c-2.428-0.709-5.781-0.496-8.598,1.496c-1.408,0.971-2.567,2.453-3.283,4.149c-0.739,1.694-1.115,3.545-1.527,5.384
								c-0.407,1.843-0.87,3.601-1.67,5.147c-0.78,1.556-1.814,2.909-2.957,4.029c-2.292,2.262-5.031,3.49-7.407,3.989
								c-2.392,0.509-4.406,0.372-5.761,0.182C207.616,189.376,206.881,189.141,206.86,189.208z"/>
						</g>
					</g>
					<g>
						<g>
							<path style="fill:#455A64;" d="M233.229,207.678c0.018,0.022,0.155-0.068,0.403-0.264c0.254-0.187,0.587-0.518,0.962-0.988
								c0.751-0.936,1.551-2.573,1.774-4.726c0.25-2.138-0.013-4.743-0.845-7.434c-0.766-2.697-1.935-5.552-2.378-8.673
								c-0.484-3.116,0.229-6.147,1.633-8.468c1.381-2.346,3.375-3.924,5.225-4.814c1.857-0.913,3.544-1.202,4.697-1.316
								c1.161-0.101,1.815-0.056,1.82-0.124c0.006-0.044-0.641-0.199-1.837-0.194c-1.187,0.018-2.951,0.225-4.925,1.11
								c-1.964,0.859-4.126,2.483-5.624,4.947c-1.525,2.42-2.313,5.695-1.799,8.969c0.469,3.269,1.677,6.134,2.466,8.778
								c0.853,2.624,1.156,5.103,0.991,7.163c-0.142,2.067-0.816,3.642-1.457,4.596C233.69,207.201,233.174,207.618,233.229,207.678
								z"/>
						</g>
					</g>
				</g>
				<g>
					<path style="fill:#263238;" d="M300.009,188.731c7.839-18.127-2.912-29.17-9.913-33.134c-4.169-2.361-9.122-2.855-13.911-2.97
						c-4.728-0.113-9.507,0.1-14.084,1.292c-4.577,1.192-8.969,3.417-12.197,6.875c-5.73,6.139-7.041,15.227-6.504,23.607
						c0.632,9.869,3.466,19.605,8.351,28.203c0.628,1.105,1.338,2.24,2.452,2.852c1.114,0.612,2.74,0.475,3.391-0.616"/>
				</g>
				<g>
					<g>
						<g>
							<path style="fill:#B78876;" d="M286.559,233.945l-0.285-9.538c0,0,11.151-1.851,13.461-16.399
								c1.149-7.235,0.785-19.097,0.174-28.794c-0.55-8.728-8.248-15.242-16.944-14.322l-25.239,2.669
								c-2.642,0.279-4.63,2.534-4.578,5.19l0,0l3.355,62.451c0.429,7.983,7.027,14.236,15.021,14.236h0
								C280.007,249.438,286.813,242.426,286.559,233.945z"/>
						</g>
					</g>
				</g>
				<g>
					<g>
						<g>
							<g>
								<path style="fill:#263238;" d="M297.387,187.483c0.035,0.985-0.771,1.827-1.799,1.882c-1.026,0.055-1.888-0.697-1.923-1.682
									c-0.035-0.985,0.771-1.828,1.797-1.884C296.49,185.744,297.352,186.498,297.387,187.483z"/>
							</g>
						</g>
					</g>
					<g>
						<g>
							<g>
								<g>
									<path style="fill:#263238;" d="M297.335,185.385c-0.231,0.243-1.645-0.803-3.653-0.797
										c-2.005-0.023-3.479,1.009-3.697,0.763c-0.107-0.109,0.129-0.548,0.77-1.015c0.632-0.465,1.709-0.917,2.959-0.912
										c1.251,0.007,2.303,0.467,2.907,0.938C297.24,184.836,297.449,185.276,297.335,185.385z"/>
								</g>
							</g>
						</g>
					</g>
				</g>
				<g>
					<g>
						<g>
							<g>
								<path style="fill:#263238;" d="M277.266,188.014c0.035,0.985-0.771,1.827-1.799,1.882c-1.026,0.055-1.888-0.697-1.923-1.682
									c-0.035-0.985,0.771-1.828,1.797-1.884C276.37,186.275,277.232,187.029,277.266,188.014z"/>
							</g>
						</g>
					</g>
					<g>
						<g>
							<g>
								<g>
									<path style="fill:#263238;" d="M277.601,185.76c-0.232,0.243-1.647-0.803-3.653-0.797
										c-2.005-0.023-3.479,1.009-3.697,0.763c-0.107-0.109,0.126-0.548,0.771-1.015c0.631-0.465,1.708-0.917,2.959-0.912
										c1.251,0.007,2.302,0.467,2.908,0.939C277.504,185.211,277.714,185.651,277.601,185.76z"/>
								</g>
							</g>
						</g>
					</g>
				</g>
				<g>
					<g>
						<g>
							<g>
								<path style="fill:#263238;" d="M284.887,200.649c-0.009-0.114,1.239-0.33,3.261-0.588c0.513-0.053,0.998-0.155,1.084-0.505
									c0.121-0.37-0.094-0.923-0.342-1.52c-0.482-1.241-0.986-2.541-1.516-3.904c-2.105-5.558-3.629-10.129-3.405-10.211
									c0.225-0.083,2.114,4.355,4.219,9.913c0.507,1.371,0.991,2.677,1.452,3.927c0.194,0.583,0.528,1.243,0.266,2.012
									c-0.138,0.383-0.514,0.661-0.843,0.75c-0.329,0.1-0.617,0.106-0.871,0.121C286.157,200.754,284.895,200.763,284.887,200.649
									z"/>
							</g>
						</g>
					</g>
				</g>
				<g>
					<g>
						<g>
							<path style="fill:#AA6550;" d="M286.274,224.407c0,0-9.787,0.631-19.483-5.197c0,0,4.727,9.994,19.287,8.632L286.274,224.407
								z"/>
						</g>
					</g>
				</g>
				<g>
					<g>
						<g>
							<path style="fill:#AA6550;" d="M284.038,205.488c-0.722-0.955-1.987-1.479-3.243-1.343c-0.871,0.094-1.752,0.514-2.281,1.223
								c-0.53,0.709-0.64,1.717-0.159,2.393c0.542,0.762,1.674,0.938,2.632,0.666c0.958-0.272,1.783-0.903,2.566-1.532
								c0.217-0.174,0.438-0.355,0.574-0.593c0.135-0.238,0.164-0.55-0.003-0.747"/>
						</g>
					</g>
				</g>
				<g>
					<g>
						<g>
							<g>
								<path style="fill:#263238;" d="M278.978,202.038c0.327-0.019,0.331,2.16,2.196,3.707c1.862,1.552,4.185,1.307,4.202,1.612
									c0.03,0.137-0.517,0.423-1.498,0.45c-0.962,0.033-2.366-0.276-3.508-1.222c-1.138-0.949-1.627-2.214-1.701-3.108
									C278.586,202.565,278.829,202.025,278.978,202.038z"/>
							</g>
						</g>
					</g>
				</g>
				<g>
					<g>
						<g>
							<path style="fill:#263238;" d="M278.504,182.245c-0.198,0.546-2.203,0.287-4.558,0.571c-2.361,0.236-4.261,0.926-4.573,0.436
								c-0.139-0.234,0.191-0.748,0.96-1.276c0.761-0.528,1.976-1.029,3.39-1.187c1.414-0.154,2.709,0.07,3.567,0.419
								C278.154,181.557,278.589,181.985,278.504,182.245z"/>
						</g>
					</g>
				</g>
				<g>
					<g>
						<g>
							<path style="fill:#263238;" d="M296.597,179.575c-0.353,0.456-1.736-0.017-3.399-0.04c-1.662-0.081-3.071,0.306-3.396-0.171
								c-0.142-0.232,0.08-0.688,0.695-1.12c0.606-0.43,1.62-0.782,2.763-0.747c1.143,0.036,2.133,0.45,2.711,0.917
								C296.56,178.883,296.753,179.352,296.597,179.575z"/>
						</g>
					</g>
				</g>
				<g>
					<path style="fill:#263238;" d="M299.909,179.214c-2.544-12.407-6.003-7.497-9.906-13.417
						c-5.659,5.731-18.695,12.338-26.644,13.635c-0.812,0.132-1.666,0.254-2.327,0.744c-1.226,0.909-1.322,2.675-1.317,4.201
						c0.014,4.309-0.068,8.658-1.06,12.851c-0.992,4.193-2.968,8.264-6.215,11.095c-4.798-10.111-5.276-21.877-3.13-32.861
						c0.877-4.487,2.363-9.188,5.938-12.038c2.559-2.041,5.864-2.86,9.083-3.451c7.951-1.458,16.361-1.81,23.931,1.027
						c7.569,2.838,13.445,6.332,14.46,14.352"/>
				</g>
				<g>
					<g>
						<path style="fill:#455A64;" d="M244.929,170.501c-0.025,0.05,0.552,0.363,1.628,0.888c0.528,0.288,1.217,0.533,2.02,0.811
							c0.41,0.143,0.839,0.292,1.287,0.449c0.474,0.119,0.967,0.243,1.481,0.372c2.072,0.553,4.613,0.871,7.439,1.02
							c2.83,0.107,5.948-0.091,9.175-0.595c3.229-0.527,6.223-1.43,8.874-2.42c1.296-0.572,2.56-1.044,3.654-1.676
							c0.552-0.294,1.089-0.58,1.608-0.857c0.487-0.316,0.957-0.621,1.411-0.916c0.918-0.554,1.665-1.174,2.324-1.712
							c0.322-0.261,0.627-0.51,0.918-0.746c0.247-0.249,0.48-0.484,0.702-0.707c0.835-0.857,1.273-1.345,1.232-1.384
							c-0.126-0.132-1.9,1.849-5.488,4.063c-0.454,0.275-0.925,0.56-1.412,0.855c-0.517,0.258-1.052,0.525-1.602,0.8
							c-1.086,0.595-2.339,1.034-3.618,1.577c-2.619,0.933-5.564,1.799-8.738,2.317c-3.173,0.495-6.234,0.713-9.017,0.649
							c-2.777-0.107-5.282-0.359-7.334-0.831C247.343,171.594,245.001,170.341,244.929,170.501z"/>
					</g>
				</g>
				<g>
					<g>
						<path style="fill:#455A64;" d="M249.049,160.698c-0.034,0.045,0.411,0.406,1.254,1.025c0.409,0.332,0.962,0.65,1.618,1.002
							c0.334,0.184,0.682,0.375,1.045,0.574c0.395,0.168,0.804,0.341,1.229,0.522c3.441,1.502,8.599,2.517,14.292,2.549
							c5.702,0.03,10.815-0.779,14.436-1.611c1.815-0.405,3.263-0.821,4.25-1.147c0.987-0.327,1.524-0.533,1.507-0.587
							c-0.038-0.129-2.246,0.489-5.874,1.168c-3.623,0.681-8.692,1.389-14.313,1.359c-5.614-0.033-10.668-0.936-14.086-2.269
							C250.965,162.002,249.148,160.553,249.049,160.698z"/>
					</g>
				</g>
				<g>
					<g>
						<path style="fill:#455A64;" d="M293.761,157.543c-0.004-0.098-0.502-0.196-1.285,0.001c-0.777,0.19-1.797,0.749-2.588,1.702
							c-0.788,0.955-1.147,2.063-1.188,2.861c-0.047,0.805,0.142,1.277,0.239,1.262c0.231-0.005,0.144-1.923,1.58-3.602
							C291.898,158.044,293.798,157.771,293.761,157.543z"/>
					</g>
				</g>
				<g>
					<g>
						<path style="fill:#263238;" d="M218.598,173.214c0.013-0.008-0.096-0.224-0.431-0.527c-0.326-0.305-0.931-0.672-1.796-0.783
							c-0.85-0.115-1.974,0.005-3.033,0.683c-1.075,0.632-1.935,2.073-1.767,3.681c0.151,1.575,1.116,3.236,2.79,4.132
							c1.7,0.9,3.968,0.617,5.662-0.594c0.853-0.598,1.598-1.415,2.082-2.41c0.487-0.99,0.701-2.098,0.773-3.196
							c0.152-2.2-0.23-4.424,0.17-6.578c0.817-4.357,4.207-7.708,7.77-8.979c3.642-1.331,7.313-0.345,9.738,1.201
							c2.485,1.562,3.89,3.598,4.607,5.056c0.72,1.481,0.871,2.406,0.956,2.385c0.028-0.005-0.001-0.234-0.082-0.67
							c-0.072-0.437-0.253-1.072-0.584-1.848c-0.648-1.54-2.027-3.712-4.583-5.41c-1.27-0.837-2.827-1.535-4.604-1.865
							c-1.772-0.359-3.769-0.202-5.698,0.44c-3.813,1.321-7.433,4.842-8.324,9.542c-0.425,2.351-0.022,4.598-0.166,6.674
							c-0.061,1.035-0.256,2.039-0.675,2.907c-0.412,0.866-1.064,1.598-1.815,2.136c-1.496,1.093-3.47,1.345-4.918,0.605
							c-1.457-0.741-2.363-2.213-2.523-3.586c-0.171-1.404,0.508-2.633,1.445-3.243c0.925-0.644,1.957-0.808,2.745-0.747
							C217.983,172.363,218.539,173.321,218.598,173.214z"/>
					</g>
				</g>
				<g>
					<g>
						<path style="fill:#263238;" d="M256.806,179.772c0.001,0.056,0.541,0.099,1.516,0.121c0.975,0.022,2.387,0.024,4.133-0.039
							c3.471-0.143,8.376-0.49,13.461-2.326c5.091-1.847,8.993-5.128,10.989-8.043c1.015-1.449,1.635-2.751,1.954-3.682
							c0.325-0.929,0.421-1.466,0.376-1.479c-0.159-0.066-0.695,2.084-2.796,4.817c-2.051,2.736-5.866,5.824-10.805,7.619
							c-4.947,1.787-9.768,2.228-13.214,2.516C258.958,179.539,256.803,179.648,256.806,179.772z"/>
					</g>
				</g>
				<g>
					<g>
						<path style="fill:#263238;" d="M236.16,215.313c-0.036,0.005,0.049,0.585,0.688,1.379c0.626,0.763,1.913,1.726,3.769,1.839
							c1.826,0.114,4.024-0.577,5.83-2.195c0.882-0.816,1.669-1.965,1.781-3.374c0.103-1.343-0.453-2.947-1.893-3.655
							c-1.43-0.633-3.225-0.071-3.857,1.366c-0.297,0.717-0.174,1.509,0.151,2.114c0.322,0.613,0.834,1.091,1.427,1.373
							c1.191,0.552,2.452,0.406,3.46,0.057c1.031-0.352,1.869-0.949,2.498-1.603c1.279-1.315,1.729-2.791,1.848-3.77
							c0.108-0.999-0.05-1.542-0.089-1.534c-0.073,0.004-0.028,0.549-0.225,1.481c-0.206,0.913-0.716,2.257-1.941,3.412
							c-0.601,0.575-1.379,1.085-2.302,1.37c-0.908,0.291-2.003,0.363-2.919-0.09c-0.881-0.413-1.568-1.571-1.167-2.504
							c0.367-0.924,1.783-1.4,2.768-0.929c1.021,0.483,1.523,1.751,1.44,2.858c-0.074,1.122-0.718,2.137-1.498,2.88
							c-1.606,1.497-3.64,2.208-5.287,2.166c-1.676-0.029-2.904-0.826-3.559-1.476C236.417,215.804,236.228,215.28,236.16,215.313z"
							/>
					</g>
				</g>
			</g>
		</g>
		<g>
			<path style="fill:#455A64;" d="M319.593,392.25c0,0.144-36.302,0.26-81.073,0.26c-44.786,0-81.081-0.117-81.081-0.26
				s36.294-0.26,81.081-0.26C283.291,391.99,319.593,392.107,319.593,392.25z"/>
		</g>
	</g>
</g>
<g id="Plant">
	<g>
		<g>
			<path style="fill:#E8505B;" d="M107.225,334.196c3.485,0.447,6.59,2.648,8.652,5.492c2.062,2.844,3.17,6.282,3.761,9.745
				c1.144,6.7-0.645,14.316-3.111,20.649c-6.844-3.184-10.51-11.137-12.116-15.288C101.872,348.234,101.267,334.835,107.225,334.196
				"/>
		</g>
		<g>
			<path style="fill:#E8505B;" d="M125.979,378.949c-1.937-3.413-1.576-7.877,0.511-11.2c2.088-3.323,5.712-5.523,9.554-6.324
				c1.776-0.371,3.801-0.408,5.211,0.735c1.318,1.068,1.754,2.965,1.418,4.628c-0.337,1.663-1.33,3.12-2.459,4.386
				C136.34,375.514,131.796,379.005,125.979,378.949"/>
		</g>
		<g>
			<g>
				<path style="fill:#263238;" d="M124.736,400.868c-0.035,0.002-0.097-0.493-0.191-1.388c-0.1-0.987-0.228-2.262-0.383-3.794
					c-0.268-3.185-0.743-7.722,0.384-12.585c1.098-4.844,3.438-8.855,5.716-11.169c1.125-1.173,2.171-1.981,2.936-2.465
					c0.372-0.258,0.693-0.408,0.898-0.527c0.21-0.112,0.324-0.163,0.332-0.149c0.069,0.094-1.761,1.002-3.911,3.378
					c-2.171,2.332-4.411,6.28-5.492,11.043c-1.106,4.764-0.698,9.254-0.516,12.447c0.107,1.605,0.192,2.906,0.227,3.807
					C124.772,400.367,124.769,400.866,124.736,400.868z"/>
			</g>
		</g>
		<g>
			<g>
				<path style="fill:#263238;" d="M108.587,344.359c0.016-0.005,0.097,0.188,0.235,0.562c0.151,0.424,0.344,0.969,0.583,1.643
					c0.499,1.43,1.193,3.508,2.03,6.082c1.674,5.149,3.887,12.295,6.154,20.24c2.264,7.948,4.151,15.188,5.443,20.446
					c0.647,2.629,1.152,4.76,1.482,6.238c0.152,0.699,0.275,1.264,0.37,1.704c0.079,0.391,0.113,0.598,0.097,0.602
					c-0.016,0.004-0.082-0.195-0.193-0.578c-0.119-0.434-0.271-0.992-0.46-1.681c-0.402-1.523-0.955-3.625-1.633-6.198
					c-1.378-5.234-3.317-12.454-5.58-20.397c-2.265-7.939-4.424-15.096-6.012-20.27c-0.78-2.543-1.418-4.622-1.88-6.128
					c-0.203-0.686-0.368-1.24-0.496-1.672C108.62,344.569,108.571,344.364,108.587,344.359z"/>
			</g>
		</g>
		<g>
			<path style="fill:#E8505B;" d="M117.672,385.636c-3.517-7.489-10.862-13.052-19.023-14.408c-2.078-0.345-4.627-0.226-5.735,1.566
				c-1.109,1.795-0.065,4.139,1.217,5.815c5.336,6.973,15.161,10.141,23.566,7.598"/>
		</g>
		<g>
			<g>
				<path style="fill:#263238;" d="M101.316,377.124c0.006-0.034,0.469,0.028,1.306,0.169c0.419,0.068,0.932,0.153,1.512,0.319
					c0.579,0.164,1.259,0.292,1.97,0.563c0.718,0.249,1.513,0.503,2.324,0.883c0.832,0.332,1.678,0.78,2.565,1.257
					c1.747,0.997,3.582,2.26,5.294,3.839c1.697,1.595,3.095,3.331,4.206,5.01c0.53,0.857,1.036,1.669,1.415,2.483
					c0.428,0.787,0.729,1.566,1.013,2.271c0.31,0.695,0.469,1.369,0.661,1.94c0.194,0.572,0.301,1.081,0.386,1.497
					c0.176,0.83,0.257,1.29,0.224,1.297c-0.108,0.027-0.444-1.827-1.593-4.604c-0.302-0.688-0.616-1.447-1.053-2.214
					c-0.388-0.793-0.9-1.584-1.431-2.42c-1.114-1.637-2.496-3.332-4.162-4.899c-1.682-1.55-3.475-2.802-5.183-3.805
					c-0.867-0.48-1.692-0.935-2.506-1.278c-0.793-0.391-1.57-0.661-2.272-0.927C103.157,377.502,101.295,377.229,101.316,377.124z"
					/>
			</g>
		</g>
	</g>
</g>
<g id="Light_bulb">
	<g>
		<path style="fill:#F5F5F5;" d="M350.406,75.037c-15.17-1.021-30.638,6.387-39.354,18.845c-8.715,12.459-10.37,29.529-4.209,43.43
			c5.153,11.627,15.137,20.721,19.565,32.643c3.037,8.176,3.261,17.192,6.351,25.348c6.349,16.756,25.736,27.42,43.287,23.811
			c10.541-2.167,20.019-8.755,30.76-9.424c11.527-0.718,24.647,5.139,33.773-1.939c6.378-4.947,7.464-14.446,5.153-22.18
			c-2.311-7.734-7.293-14.331-11.381-21.29c-4.089-6.96-7.418-15.005-5.902-22.933c1.374-7.187,6.466-13.011,9.67-19.589
			c6.002-12.32,4.909-27.807-2.763-39.162c-7.673-11.355-21.632-18.148-35.302-17.177c-9.163,0.651-17.752,4.467-26.566,7.051
			C364.673,75.055,360.273,75.343,350.406,75.037"/>
		<g>
			<g>
				<path style="fill:#E8505B;" d="M372.385,104.386c0,0-16.953-0.163-22.789,14.56c-5.836,14.723,0.851,21.841,3.463,26.172
					c2.612,4.331,9.618,13.752,9.676,22.628l22.777-0.142c0,0,1.171-10.891,7.98-22.228c6.809-11.337,5.997-19.606,4.138-24.545
					C395.773,115.893,389.717,103.658,372.385,104.386z"/>
				<g>
					<path style="fill:#263238;" d="M377.554,166.967c0,0-0.029-0.119-0.067-0.354c-0.038-0.249-0.092-0.597-0.16-1.045
						c-0.133-0.935-0.327-2.288-0.575-4.024c-0.471-3.498-1.173-8.563-1.615-14.865c-0.103-1.576-0.198-3.228-0.243-4.952
						c-0.04-1.723-0.097-3.518,0.021-5.381c0.123-1.854,0.444-3.805,1.323-5.619c0.878-1.784,2.329-3.454,4.335-4.257
						c1.989-0.835,4.503-0.365,6.117,1.226c0.793,0.796,1.321,1.927,1.283,3.094c-0.016,1.163-0.476,2.291-1.182,3.213
						c-0.701,0.937-1.674,1.655-2.729,2.161c-1.058,0.516-2.201,0.835-3.355,1.078c-2.312,0.465-4.697,0.71-7.113,0.759
						c-2.416,0.031-4.807-0.037-7.145-0.416c-1.165-0.202-2.313-0.516-3.379-1.012c-1.067-0.491-2.037-1.185-2.817-2.044
						c-0.779-0.857-1.368-1.898-1.604-3.027c-0.251-1.13-0.065-2.323,0.433-3.33c0.495-1.007,1.327-1.868,2.376-2.269
						c1.049-0.413,2.235-0.283,3.202,0.18c0.976,0.461,1.781,1.199,2.371,2.056c0.591,0.865,0.941,1.842,1.169,2.815
						c0.442,1.962,0.411,3.901,0.514,5.748c0.157,3.707,0.304,7.16,0.438,10.314c0.257,6.296,0.465,11.395,0.609,14.936
						c0.064,1.752,0.114,3.118,0.148,4.061c0.013,0.453,0.023,0.805,0.03,1.057c0.005,0.238-0.002,0.36-0.002,0.36
						s-0.017-0.121-0.034-0.359c-0.015-0.251-0.037-0.602-0.064-1.055c-0.05-0.943-0.121-2.308-0.214-4.059
						c-0.171-3.54-0.417-8.637-0.72-14.931c-0.147-3.153-0.308-6.606-0.48-10.312c-0.108-1.85-0.087-3.785-0.523-5.691
						c-0.223-0.945-0.567-1.89-1.129-2.706c-0.562-0.814-1.333-1.514-2.247-1.943c-0.907-0.431-1.994-0.543-2.948-0.165
						c-0.956,0.367-1.732,1.164-2.194,2.11c-0.466,0.947-0.638,2.058-0.401,3.112c0.223,1.06,0.781,2.047,1.527,2.866
						c1.497,1.675,3.723,2.566,6.001,2.943c2.294,0.371,4.684,0.44,7.078,0.409c2.397-0.049,4.764-0.292,7.05-0.75
						c1.137-0.238,2.254-0.55,3.275-1.048c1.022-0.49,1.943-1.171,2.608-2.057c0.672-0.874,1.1-1.936,1.116-3.01
						c0.035-1.079-0.444-2.107-1.181-2.854c-1.509-1.491-3.884-1.949-5.762-1.161c-1.907,0.756-3.32,2.362-4.176,4.092
						c-0.857,1.755-1.182,3.669-1.309,5.503c-0.123,1.841-0.073,3.635-0.04,5.354c0.038,1.72,0.125,3.37,0.22,4.943
						c0.41,6.294,1.074,11.362,1.503,14.864c0.22,1.74,0.391,3.096,0.51,4.032c0.054,0.451,0.096,0.799,0.126,1.05
						C377.549,166.845,377.554,166.967,377.554,166.967z"/>
				</g>
				<polygon style="fill:#E0E0E0;" points="362.729,167.418 385.584,167.061 385.828,181.495 379.195,189.418 370.428,189.794 
					363.007,180.927 				"/>
				<path style="fill:#455A64;" d="M379.195,189.418c-1.18-1.193-2.906-1.948-4.582-1.854s-3.295,0.936-4.335,2.253L379.195,189.418
					z"/>
				<g>
					<path style="fill:#263238;" d="M385.218,180.315c-0.013,0.023-0.303-0.116-0.828-0.359c-0.524-0.244-1.292-0.578-2.265-0.922
						c-1.936-0.693-4.753-1.349-7.901-1.282c-3.148,0.064-5.936,0.836-7.842,1.609c-0.957,0.384-1.711,0.749-2.224,1.015
						c-0.514,0.265-0.798,0.416-0.812,0.393c-0.011-0.018,0.249-0.209,0.746-0.512c0.496-0.304,1.239-0.707,2.196-1.125
						c1.902-0.84,4.728-1.666,7.93-1.731c3.201-0.068,6.058,0.639,7.993,1.399c0.973,0.378,1.732,0.749,2.241,1.032
						C384.961,180.116,385.228,180.296,385.218,180.315z"/>
				</g>
				<g>
					<path style="fill:#263238;" d="M385.249,176.809c-0.013,0.024-0.303-0.116-0.828-0.359c-0.524-0.244-1.292-0.578-2.265-0.922
						c-1.936-0.693-4.753-1.349-7.9-1.282c-3.148,0.064-5.936,0.836-7.842,1.609c-0.957,0.384-1.711,0.749-2.224,1.015
						c-0.514,0.265-0.798,0.416-0.812,0.393c-0.011-0.018,0.249-0.209,0.746-0.512c0.496-0.304,1.239-0.707,2.196-1.125
						c1.902-0.841,4.728-1.666,7.93-1.731c3.201-0.068,6.058,0.639,7.993,1.4c0.973,0.378,1.732,0.749,2.241,1.032
						C384.991,176.611,385.259,176.791,385.249,176.809z"/>
				</g>
				<g>
					<path style="fill:#263238;" d="M385.074,173.475c-0.013,0.023-0.303-0.116-0.828-0.359c-0.524-0.244-1.292-0.578-2.265-0.922
						c-1.936-0.693-4.753-1.349-7.9-1.282c-3.148,0.064-5.936,0.836-7.842,1.609c-0.957,0.384-1.711,0.749-2.224,1.015
						c-0.514,0.265-0.798,0.416-0.812,0.393c-0.011-0.018,0.249-0.209,0.746-0.512c0.496-0.304,1.239-0.707,2.195-1.125
						c1.902-0.84,4.728-1.666,7.93-1.731c3.201-0.068,6.058,0.639,7.993,1.399c0.973,0.378,1.732,0.749,2.241,1.032
						C384.817,173.276,385.085,173.456,385.074,173.475z"/>
				</g>
				<g style="opacity:0.2;">
					<path style="fill:#FFFFFF;" d="M359.981,145.151c-0.313,0.352-1.103,0.285-2.239-0.303c-1.136-0.583-2.569-1.744-3.975-3.531
						c-1.407-1.78-2.718-4.226-3.504-7.19c-0.79-2.952-0.993-6.445-0.235-9.999c0.797-3.547,2.442-6.636,4.394-8.988
						c1.953-2.365,4.167-4.039,6.189-5.068c2.024-1.036,3.811-1.491,5.086-1.546c1.278-0.059,2.023,0.21,2.16,0.661
						c0.293,0.977-1.84,2.341-4.381,4.921c-1.28,1.279-2.644,2.898-3.848,4.838c-1.206,1.936-2.202,4.214-2.763,6.679
						c-0.52,2.473-0.568,4.958-0.281,7.221c0.282,2.265,0.845,4.306,1.473,6.003C359.288,142.255,360.656,144.386,359.981,145.151z"
						/>
				</g>
				<g style="opacity:0.2;">
					<path style="fill:#FFFFFF;" d="M367.298,153.23c-0.026,1.933-1.473,3.481-3.233,3.458c-1.761-0.023-3.167-1.609-3.141-3.543
						c0.026-1.932,1.473-3.48,3.234-3.457C365.918,149.712,367.324,151.298,367.298,153.23z"/>
				</g>
			</g>
			<g>
				<path style="fill:#263238;" d="M345.048,109.726c-0.058,0.077-2.959-2.018-6.477-4.68c-3.52-2.662-6.325-4.882-6.267-4.96
					c0.058-0.077,2.958,2.018,6.478,4.68C342.301,107.429,345.107,109.649,345.048,109.726z"/>
			</g>
			<g>
				<path style="fill:#263238;" d="M349.84,103.377c-0.075,0.061-1.29-1.323-2.714-3.09c-1.424-1.768-2.517-3.25-2.441-3.31
					c0.075-0.061,1.29,1.323,2.714,3.091C348.822,101.834,349.915,103.316,349.84,103.377z"/>
			</g>
			<g>
				<path style="fill:#263238;" d="M360.267,101.916c-0.092,0.031-1.251-3.189-2.589-7.191c-1.338-4.003-2.349-7.272-2.257-7.302
					c0.092-0.031,1.251,3.188,2.589,7.191C359.348,98.616,360.359,101.885,360.267,101.916z"/>
			</g>
			<g>
				<path style="fill:#263238;" d="M373.083,99.151c-0.096,0.013-0.401-1.618-0.682-3.642c-0.281-2.025-0.431-3.677-0.335-3.69
					s0.401,1.617,0.682,3.642C373.028,97.485,373.178,99.137,373.083,99.151z"/>
			</g>
			<g>
				<path style="fill:#263238;" d="M385.646,103.489c-0.093-0.026,0.878-3.833,2.168-8.503c1.291-4.671,2.413-8.436,2.506-8.41
					c0.093,0.026-0.878,3.832-2.169,8.504C386.861,99.749,385.739,103.515,385.646,103.489z"/>
			</g>
			<g>
				<path style="fill:#263238;" d="M396.241,108.722c-0.081-0.053,0.872-1.646,2.127-3.558c1.256-1.912,2.339-3.419,2.419-3.366
					c0.081,0.053-0.871,1.646-2.127,3.558C397.405,107.268,396.322,108.775,396.241,108.722z"/>
			</g>
			<g>
				<path style="fill:#263238;" d="M413.017,106.533c0.057,0.078-2.887,2.299-6.575,4.959c-3.689,2.661-6.724,4.754-6.78,4.676
					c-0.056-0.078,2.887-2.298,6.576-4.959C409.925,108.548,412.961,106.455,413.017,106.533z"/>
			</g>
		</g>
	</g>
</g>
</svg>
