<svg width="611" height="399" viewBox="0 0 611 399" fill="none" xmlns="http://www.w3.org/2000/svg">
<path d="M185.601 62.0031C182.4 57.3511 183.683 50.9733 188.434 47.9212L253.995 5.80312C258.579 2.85811 264.678 4.1251 267.709 8.65244L299.75 56.5L217.25 108L185.601 62.0031Z" fill="#F2C301"/>
<path d="M185.601 62.0031C182.4 57.3511 183.683 50.9733 188.434 47.9212L253.995 5.80312C258.579 2.85811 264.678 4.1251 267.709 8.65244L299.75 56.5L217.25 108L185.601 62.0031Z" fill="#F2C301"/>
<path d="M423.225 62.55C427.389 57.8538 426.248 50.5266 420.852 47.3192L349.447 4.87245C344.858 2.1448 338.936 3.50206 335.993 7.9558L304.25 56L384.25 106.5L423.225 62.55Z" fill="#F2C301"/>
<path d="M217.75 121.5L299.75 168.5V248L222.395 198.945C219.502 197.111 217.75 193.925 217.75 190.5V121.5Z" fill="#F2C301"/>
<path d="M382.75 123L312.75 169.5V249L380.789 207.058C383.855 205.168 385.668 201.775 385.534 198.176L382.75 123Z" fill="#FFFFFD"/>
<path d="M234.109 113.883C232.809 113.129 232.773 111.264 234.045 110.462L300.686 68.397C301.336 67.9865 302.164 67.9852 302.816 68.3936L370.122 110.578C371.354 111.35 371.377 113.136 370.165 113.94L307.785 155.314C307.151 155.734 306.334 155.759 305.676 155.377L234.109 113.883Z" fill="#F2C301"/>
<path d="M55.22 343.13C55.22 347.603 54.1567 351.747 52.03 355.56C49.9033 359.373 46.75 362.417 42.57 364.69C38.39 366.963 33.0733 368.1 26.62 368.1C23.54 368.1 20.7533 367.917 18.26 367.55C15.7667 367.257 13.3833 366.743 11.11 366.01C8.91 365.277 6.6 364.323 4.18 363.15V344.23C7.99333 346.357 11.8433 348.007 15.73 349.18C19.69 350.28 23.2833 350.83 26.51 350.83C28.4167 350.83 29.9567 350.573 31.13 350.06C32.3767 349.547 33.2933 348.85 33.88 347.97C34.4667 347.09 34.76 346.1 34.76 345C34.76 343.68 34.3933 342.543 33.66 341.59C32.9267 340.637 31.6433 339.61 29.81 338.51C28.05 337.41 25.5567 336.053 22.33 334.44C19.6167 333.047 17.16 331.617 14.96 330.15C12.8333 328.683 11 327.033 9.46 325.2C7.92 323.367 6.74667 321.277 5.94 318.93C5.13333 316.51 4.73 313.65 4.73 310.35C4.73 305.437 5.83 301.293 8.03 297.92C10.3033 294.473 13.4933 291.87 17.6 290.11C21.7067 288.277 26.5833 287.36 32.23 287.36C36.63 287.36 40.7367 287.91 44.55 289.01C48.3633 290.037 51.92 291.357 55.22 292.97L49.28 309.36C46.1267 307.747 43.0833 306.5 40.15 305.62C37.2167 304.74 34.5033 304.3 32.01 304.3C30.3967 304.3 29.04 304.52 27.94 304.96C26.9133 305.4 26.1433 306.023 25.63 306.83C25.19 307.563 24.97 308.407 24.97 309.36C24.97 310.68 25.3367 311.817 26.07 312.77C26.8767 313.723 28.2333 314.787 30.14 315.96C32.12 317.06 34.9067 318.49 38.5 320.25C42.02 322.083 45.0267 324.027 47.52 326.08C50.0133 328.133 51.92 330.517 53.24 333.23C54.56 335.943 55.22 339.243 55.22 343.13ZM128.725 367H108.375V334.66H86.7049V367H66.2449V288.46H86.7049V317.83H108.375V288.46H128.725V367ZM188.126 367L184.606 352.04H162.166L158.646 367H136.426L159.636 288.24H186.586L210.126 367H188.126ZM177.456 320.58C177.089 318.967 176.612 317.023 176.026 314.75C175.512 312.403 174.999 310.02 174.486 307.6C174.046 305.18 173.679 303.163 173.386 301.55C173.092 303.163 172.689 305.107 172.176 307.38C171.736 309.653 171.259 311.963 170.746 314.31C170.232 316.583 169.792 318.637 169.426 320.47L166.016 335.21H180.756L177.456 320.58ZM241.907 288.46C248.654 288.46 254.264 289.34 258.737 291.1C263.211 292.86 266.547 295.463 268.747 298.91C271.021 302.283 272.157 306.537 272.157 311.67C272.157 314.75 271.681 317.61 270.727 320.25C269.774 322.89 268.381 325.237 266.547 327.29C264.714 329.343 262.477 331.177 259.837 332.79L280.297 367H257.527L242.457 338.07H238.167V367H217.817V288.46H241.907ZM241.577 304.41H238.167V322.67H241.357C243.484 322.67 245.281 322.34 246.747 321.68C248.287 320.947 249.461 319.847 250.267 318.38C251.074 316.913 251.477 315.007 251.477 312.66C251.477 310.9 251.111 309.397 250.377 308.15C249.717 306.903 248.654 305.987 247.187 305.4C245.721 304.74 243.851 304.41 241.577 304.41ZM330.447 367H286.997V288.46H330.447V305.07H307.347V318.05H328.797V334.66H307.347V350.17H330.447V367Z" fill="#F2C301"/>
<path d="M370.32 305.95L371.076 307.246C371.081 307.243 371.086 307.239 371.092 307.236L370.32 305.95ZM365.81 310.57L364.528 309.792C364.521 309.803 364.514 309.814 364.508 309.826L365.81 310.57ZM363.06 318.05L361.597 317.721L363.06 318.05ZM363.72 340.82L362.291 341.276C362.294 341.285 362.297 341.294 362.3 341.303L363.72 340.82ZM368.89 348.63L367.972 349.816C367.98 349.822 367.988 349.829 367.996 349.835L368.89 348.63ZM395.4 346.21H396.9C396.9 345.696 396.636 345.217 396.201 344.942C395.767 344.667 395.221 344.634 394.756 344.855L395.4 346.21ZM395.4 363.7L396.071 365.042C396.579 364.788 396.9 364.268 396.9 363.7H395.4ZM385.72 367L385.432 365.528C385.422 365.53 385.412 365.532 385.401 365.534L385.72 367ZM355.91 363.26L355.082 364.511C355.089 364.516 355.096 364.52 355.104 364.525L355.91 363.26ZM344.8 349.29L346.192 348.73L344.8 349.29ZM343.48 311.56L344.911 312.009L344.913 312.003L343.48 311.56ZM350.19 298.69L349.04 297.727C349.036 297.732 349.032 297.737 349.028 297.741L350.19 298.69ZM361.08 290.33L360.456 288.966L360.447 288.97L361.08 290.33ZM387.15 288.68L386.813 290.142L386.819 290.143L387.15 288.68ZM398.59 292.86L399.999 293.374C400.259 292.662 399.947 291.868 399.271 291.524L398.59 292.86ZM392.65 309.14L391.906 310.442C392.29 310.662 392.751 310.701 393.166 310.549C393.581 310.397 393.908 310.069 394.059 309.654L392.65 309.14ZM384.84 305.62L385.314 304.197L384.84 305.62ZM376.48 302.8C373.953 302.8 371.63 303.415 369.548 304.664L371.092 307.236C372.677 306.285 374.461 305.8 376.48 305.8V302.8ZM369.564 304.654C367.553 305.828 365.881 307.563 364.528 309.792L367.092 311.348C368.232 309.47 369.567 308.126 371.076 307.246L369.564 304.654ZM364.508 309.826C363.243 312.038 362.281 314.679 361.597 317.721L364.523 318.379C365.159 315.554 366.03 313.208 367.112 311.314L364.508 309.826ZM361.597 317.721C360.907 320.785 360.57 324.235 360.57 328.06H363.57C363.57 324.405 363.893 321.182 364.523 318.379L361.597 317.721ZM360.57 328.06C360.57 333.218 361.129 337.636 362.291 341.276L365.149 340.364C364.111 337.11 363.57 333.022 363.57 328.06H360.57ZM362.3 341.303C363.543 344.955 365.411 347.834 367.972 349.816L369.808 347.444C367.822 345.906 366.244 343.579 365.14 340.337L362.3 341.303ZM367.996 349.835C370.58 351.752 373.773 352.66 377.47 352.66V349.66C374.274 349.66 371.746 348.882 369.784 347.425L367.996 349.835ZM377.47 352.66C380.777 352.66 383.977 352.16 387.064 351.157L386.136 348.303C383.356 349.207 380.469 349.66 377.47 349.66V352.66ZM387.064 351.157C390.062 350.182 393.055 348.985 396.044 347.565L394.756 344.855C391.878 346.222 389.005 347.371 386.136 348.303L387.064 351.157ZM393.9 346.21V363.7H396.9V346.21H393.9ZM394.729 362.358C391.77 363.838 388.672 364.894 385.432 365.528L386.008 368.472C389.515 367.786 392.87 366.642 396.071 365.042L394.729 362.358ZM385.401 365.534C382.143 366.243 378.657 366.6 374.94 366.6V369.6C378.849 369.6 382.55 369.224 386.039 368.466L385.401 365.534ZM374.94 366.6C367.522 366.6 361.478 365.032 356.716 361.995L355.104 364.525C360.462 367.942 367.104 369.6 374.94 369.6V366.6ZM356.738 362.009C352.026 358.891 348.508 354.486 346.192 348.73L343.408 349.85C345.932 356.121 349.82 361.029 355.082 364.511L356.738 362.009ZM346.192 348.73C343.86 342.935 342.67 336.021 342.67 327.95H339.67C339.67 336.306 340.9 343.618 343.408 349.85L346.192 348.73ZM342.67 327.95C342.67 322.064 343.424 316.755 344.911 312.009L342.049 311.111C340.456 316.192 339.67 321.809 339.67 327.95H342.67ZM344.913 312.003C346.403 307.177 348.555 303.065 351.352 299.639L349.028 297.741C345.958 301.502 343.637 305.969 342.047 311.117L344.913 312.003ZM351.34 299.653C354.206 296.228 357.659 293.577 361.713 291.69L360.447 288.97C355.994 291.043 352.188 293.965 349.04 297.727L351.34 299.653ZM361.704 291.694C365.804 289.818 370.536 288.86 375.93 288.86V285.86C370.178 285.86 365.009 286.882 360.456 288.966L361.704 291.694ZM375.93 288.86C379.476 288.86 383.103 289.285 386.813 290.142L387.487 287.218C383.571 286.315 379.718 285.86 375.93 285.86V288.86ZM386.819 290.143C390.578 290.994 394.274 292.343 397.909 294.196L399.271 291.524C395.426 289.563 391.496 288.126 387.481 287.217L386.819 290.143ZM397.181 292.346L391.241 308.626L394.059 309.654L399.999 293.374L397.181 292.346ZM393.394 307.838C390.747 306.325 388.054 305.11 385.314 304.197L384.366 307.043C386.906 307.89 389.42 309.022 391.906 310.442L393.394 307.838ZM385.314 304.197C382.513 303.263 379.566 302.8 376.48 302.8V305.8C379.261 305.8 381.887 306.217 384.366 307.043L385.314 304.197ZM456.635 367L455.175 367.344C455.334 368.021 455.939 368.5 456.635 368.5V367ZM453.115 352.04L454.575 351.696C454.415 351.019 453.811 350.54 453.115 350.54V352.04ZM430.675 352.04V350.54C429.979 350.54 429.374 351.019 429.215 351.696L430.675 352.04ZM427.155 367V368.5C427.851 368.5 428.455 368.021 428.615 367.344L427.155 367ZM404.935 367L403.496 366.576C403.362 367.03 403.45 367.52 403.734 367.898C404.017 368.277 404.462 368.5 404.935 368.5V367ZM428.145 288.24V286.74C427.48 286.74 426.894 287.178 426.706 287.816L428.145 288.24ZM455.095 288.24L456.532 287.81C456.342 287.175 455.758 286.74 455.095 286.74V288.24ZM478.635 367V368.5C479.109 368.5 479.555 368.276 479.838 367.896C480.121 367.516 480.208 367.024 480.072 366.57L478.635 367ZM445.965 320.58L447.428 320.25L447.427 320.248L445.965 320.58ZM444.535 314.75L443.069 315.071C443.073 315.089 443.078 315.107 443.082 315.125L444.535 314.75ZM442.995 307.6L441.519 307.868C441.522 307.883 441.524 307.897 441.527 307.911L442.995 307.6ZM441.895 301.55L443.371 301.282C443.241 300.568 442.62 300.05 441.895 300.05C441.17 300.05 440.549 300.568 440.419 301.282L441.895 301.55ZM440.685 307.38L439.222 307.05C439.218 307.065 439.215 307.08 439.212 307.095L440.685 307.38ZM439.255 314.31L440.718 314.64L440.72 314.631L439.255 314.31ZM437.935 320.47L439.396 320.808C439.4 320.793 439.403 320.779 439.406 320.764L437.935 320.47ZM434.525 335.21L433.063 334.872C432.96 335.317 433.066 335.786 433.351 336.144C433.635 336.501 434.068 336.71 434.525 336.71V335.21ZM449.265 335.21V336.71C449.721 336.71 450.152 336.503 450.436 336.147C450.721 335.791 450.828 335.325 450.728 334.88L449.265 335.21ZM458.095 366.656L454.575 351.696L451.655 352.384L455.175 367.344L458.095 366.656ZM453.115 350.54H430.675V353.54H453.115V350.54ZM429.215 351.696L425.695 366.656L428.615 367.344L432.135 352.384L429.215 351.696ZM427.155 365.5H404.935V368.5H427.155V365.5ZM406.374 367.424L429.584 288.664L426.706 287.816L403.496 366.576L406.374 367.424ZM428.145 289.74H455.095V286.74H428.145V289.74ZM453.658 288.67L477.198 367.43L480.072 366.57L456.532 287.81L453.658 288.67ZM478.635 365.5H456.635V368.5H478.635V365.5ZM447.427 320.248C447.057 318.616 446.576 316.657 445.987 314.375L443.082 315.125C443.667 317.389 444.14 319.318 444.502 320.912L447.427 320.248ZM446 314.429C445.487 312.086 444.975 309.706 444.462 307.289L441.527 307.911C442.041 310.334 442.555 312.721 443.069 315.071L446 314.429ZM444.471 307.332C444.031 304.912 443.664 302.895 443.371 301.282L440.419 301.818C440.712 303.432 441.079 305.448 441.519 307.868L444.471 307.332ZM440.419 301.282C440.131 302.868 439.732 304.789 439.222 307.05L442.148 307.71C442.664 305.424 443.072 303.459 443.371 301.818L440.419 301.282ZM439.212 307.095C438.774 309.356 438.3 311.654 437.789 313.989L440.72 314.631C441.236 312.273 441.715 309.951 442.157 307.665L439.212 307.095ZM437.792 313.98C437.276 316.262 436.833 318.328 436.464 320.176L439.406 320.764C439.769 318.945 440.207 316.904 440.718 314.64L437.792 313.98ZM436.473 320.132L433.063 334.872L435.986 335.548L439.396 320.808L436.473 320.132ZM434.525 336.71H449.265V333.71H434.525V336.71ZM450.728 334.88L447.428 320.25L444.502 320.91L447.802 335.54L450.728 334.88ZM530.546 291.1L531.095 289.704L530.546 291.1ZM540.556 298.91L539.292 299.717C539.298 299.728 539.305 299.738 539.312 299.748L540.556 298.91ZM542.536 320.25L541.125 319.741L542.536 320.25ZM538.356 327.29L537.237 326.291V326.291L538.356 327.29ZM531.646 332.79L530.864 331.51C530.162 331.939 529.937 332.854 530.359 333.56L531.646 332.79ZM552.106 367V368.5C552.646 368.5 553.145 368.21 553.411 367.74C553.677 367.27 553.671 366.694 553.394 366.23L552.106 367ZM529.336 367L528.006 367.693C528.264 368.189 528.777 368.5 529.336 368.5V367ZM514.266 338.07L515.597 337.377C515.338 336.881 514.825 336.57 514.266 336.57V338.07ZM509.976 338.07V336.57C509.148 336.57 508.476 337.242 508.476 338.07H509.976ZM509.976 367V368.5C510.805 368.5 511.476 367.828 511.476 367H509.976ZM489.626 367H488.126C488.126 367.828 488.798 368.5 489.626 368.5V367ZM489.626 288.46V286.96C488.798 286.96 488.126 287.632 488.126 288.46H489.626ZM509.976 304.41V302.91C509.148 302.91 508.476 303.582 508.476 304.41H509.976ZM509.976 322.67H508.476C508.476 323.498 509.148 324.17 509.976 324.17V322.67ZM518.556 321.68L519.172 323.048C519.182 323.043 519.191 323.039 519.201 323.034L518.556 321.68ZM522.076 318.38L520.762 317.657L522.076 318.38ZM522.186 308.15L520.861 308.852C520.871 308.872 520.882 308.891 520.893 308.911L522.186 308.15ZM518.996 305.4L518.381 306.768C518.4 306.777 518.419 306.785 518.439 306.793L518.996 305.4ZM513.716 289.96C520.345 289.96 525.754 290.826 529.997 292.496L531.095 289.704C526.392 287.854 520.581 286.96 513.716 286.96V289.96ZM529.997 292.496C534.229 294.161 537.291 296.582 539.292 299.717L541.821 298.103C539.422 294.345 535.81 291.559 531.095 289.704L529.997 292.496ZM539.312 299.748C541.38 302.816 542.466 306.757 542.466 311.67H545.466C545.466 306.316 544.279 301.751 541.8 298.072L539.312 299.748ZM542.466 311.67C542.466 314.593 542.014 317.279 541.125 319.741L543.947 320.759C544.965 317.941 545.466 314.907 545.466 311.67H542.466ZM541.125 319.741C540.236 322.204 538.94 324.384 537.237 326.291L539.475 328.289C541.439 326.09 542.93 323.576 543.947 320.759L541.125 319.741ZM537.237 326.291C535.513 328.222 533.394 329.964 530.864 331.51L532.428 334.07C535.178 332.389 537.533 330.465 539.475 328.289L537.237 326.291ZM530.359 333.56L550.819 367.77L553.394 366.23L532.934 332.02L530.359 333.56ZM552.106 365.5H529.336V368.5H552.106V365.5ZM530.667 366.307L515.597 337.377L512.936 338.763L528.006 367.693L530.667 366.307ZM514.266 336.57H509.976V339.57H514.266V336.57ZM508.476 338.07V367H511.476V338.07H508.476ZM509.976 365.5H489.626V368.5H509.976V365.5ZM491.126 367V288.46H488.126V367H491.126ZM489.626 289.96H513.716V286.96H489.626V289.96ZM513.386 302.91H509.976V305.91H513.386V302.91ZM508.476 304.41V322.67H511.476V304.41H508.476ZM509.976 324.17H513.166V321.17H509.976V324.17ZM513.166 324.17C515.44 324.17 517.46 323.818 519.172 323.048L517.941 320.312C516.719 320.862 515.146 321.17 513.166 321.17V324.17ZM519.201 323.034C521.019 322.169 522.429 320.851 523.391 319.103L520.762 317.657C520.11 318.843 519.173 319.725 517.911 320.326L519.201 323.034ZM523.391 319.103C524.358 317.344 524.786 315.163 524.786 312.66H521.786C521.786 314.85 521.408 316.483 520.762 317.657L523.391 319.103ZM524.786 312.66C524.786 310.69 524.375 308.912 523.479 307.389L520.893 308.911C521.464 309.881 521.786 311.11 521.786 312.66H524.786ZM523.512 307.448C522.665 305.849 521.308 304.709 519.553 304.007L518.439 306.793C519.618 307.264 520.387 307.957 520.861 308.852L523.512 307.448ZM519.612 304.032C517.889 303.257 515.79 302.91 513.386 302.91V305.91C515.529 305.91 517.17 306.223 518.381 306.768L519.612 304.032ZM605.556 367V368.5C606.384 368.5 607.056 367.828 607.056 367H605.556ZM562.106 367H560.606C560.606 367.828 561.277 368.5 562.106 368.5V367ZM562.106 288.46V286.96C561.277 286.96 560.606 287.632 560.606 288.46H562.106ZM605.556 288.46H607.056C607.056 287.632 606.384 286.96 605.556 286.96V288.46ZM605.556 305.07V306.57C606.384 306.57 607.056 305.898 607.056 305.07H605.556ZM582.456 305.07V303.57C581.627 303.57 580.956 304.242 580.956 305.07H582.456ZM582.456 318.05H580.956C580.956 318.878 581.627 319.55 582.456 319.55V318.05ZM603.906 318.05H605.406C605.406 317.222 604.734 316.55 603.906 316.55V318.05ZM603.906 334.66V336.16C604.734 336.16 605.406 335.488 605.406 334.66H603.906ZM582.456 334.66V333.16C581.627 333.16 580.956 333.832 580.956 334.66H582.456ZM582.456 350.17H580.956C580.956 350.998 581.627 351.67 582.456 351.67V350.17ZM605.556 350.17H607.056C607.056 349.342 606.384 348.67 605.556 348.67V350.17ZM605.556 365.5H562.106V368.5H605.556V365.5ZM563.606 367V288.46H560.606V367H563.606ZM562.106 289.96H605.556V286.96H562.106V289.96ZM604.056 288.46V305.07H607.056V288.46H604.056ZM605.556 303.57H582.456V306.57H605.556V303.57ZM580.956 305.07V318.05H583.956V305.07H580.956ZM582.456 319.55H603.906V316.55H582.456V319.55ZM602.406 318.05V334.66H605.406V318.05H602.406ZM603.906 333.16H582.456V336.16H603.906V333.16ZM580.956 334.66V350.17H583.956V334.66H580.956ZM582.456 351.67H605.556V348.67H582.456V351.67ZM604.056 350.17V367H607.056V350.17H604.056Z" fill="#F2C301"/>
</svg>
