<svg width="415" height="222" viewBox="0 0 415 222" fill="none" xmlns="http://www.w3.org/2000/svg">
<path d="M63.1313 58.471L58.9998 63.7487L56.9016 60.7879L61.0331 55.5102L59.3259 53.5125L65.9465 52.1587L64.3759 60.433L63.1313 58.471Z" stroke="black" stroke-width="0.5"/>
<path d="M67.2096 83.9734L81.6733 59.4383L109.042 60.6218L92.6559 85.9411L67.2096 83.9734Z" fill="#323487"/>
<path d="M67.2096 83.9734L81.6734 59.4382M67.2096 83.9734L92.656 85.941L109.042 60.6217M67.2096 83.9734L53.3077 59.1105L68.1624 35.5385M81.6734 59.4382L109.042 60.6217M81.6734 59.4382L68.1624 35.5385M109.042 60.6217L96.0654 35.8304L68.1624 35.5385" stroke="black" stroke-width="0.5"/>
<path d="M94.7031 53.4497L88.2258 52.9489L92.3505 59.7978L88.0397 67.3937L94.0543 67.8588L98.3651 60.2629L94.7031 53.4497Z" fill="white" stroke="black" stroke-width="0.5"/>
<ellipse cx="17.1704" cy="26.971" rx="17.1704" ry="26.971" transform="matrix(0.997004 -0.0773484 0.0766974 0.997054 6.27393 5.27234)" fill="black"/>
<path d="M11.09 18.0638C11.5886 17.636 10.7742 10.1101 19.4248 6.5812C21.5588 9.07836 28.3519 17.5329 33.226 20.7084C35.0408 21.3152 39.1689 22.1008 41.1629 20.3893C43.157 18.6778 51.7717 15.6125 59.9203 18.5747C61.2725 19.1457 65.3288 20.8587 65.1854 22.7133C64.5435 24.9958 55.6847 19.1801 51.9907 22.1069C54.7768 22.528 57.5328 23.2826 58.9916 24.5665C62.4777 27.6346 62.7611 29.9887 59.5942 28.8109C60.1394 29.7859 60.8524 31.8001 59.3433 32.0565C57.7462 32.3279 57.355 29.0156 52 27.5849L52.2275 27.7749C52.9508 28.4527 54.4684 30.0937 54.7525 31.2351C55.0366 32.3765 53.3048 31.9005 52.4033 31.5199C50.5926 30.2915 46.1228 28.1424 42.7294 29.3725C39.2696 32.8364 33.7356 32.1753 27.9541 28.6965C21.5499 24.843 14.043 20.0024 11.09 18.0638Z" fill="white"/>
<path d="M51.9907 22.1069C55.6847 19.1801 64.5435 24.9958 65.1854 22.7133C65.3288 20.8587 61.2725 19.1457 59.9203 18.5747C51.7717 15.6125 43.157 18.6778 41.163 20.3893C39.1689 22.1008 35.0408 21.3152 33.226 20.7084C28.3519 17.5329 21.5588 9.07836 19.4248 6.5812C10.7742 10.1101 11.5886 17.636 11.09 18.0638C14.043 20.0024 21.5499 24.843 27.9541 28.6965C33.7356 32.1753 39.2696 32.8364 42.7294 29.3725M45.2552 21.6386C46.2277 21.6253 47.5336 21.6579 48.9686 21.768M59.5942 28.8109C62.7611 29.9887 62.4777 27.6346 58.9916 24.5665C56.9965 22.8106 52.5749 22.0447 48.9686 21.768M59.5942 28.8109C56.5786 24.4732 51.2539 22.3082 48.9686 21.768M59.5942 28.8109C60.1394 29.7859 60.8524 31.8001 59.3433 32.0565C57.7462 32.3279 57.355 29.0156 52 27.5849M42.7294 29.3725C44.0834 28.1501 45.8702 27.0861 48.5621 27.025C49.8957 27.1281 51.0294 27.3256 52 27.5849M42.7294 29.3725C46.1228 28.1424 50.5926 30.2915 52.4034 31.5199C53.3048 31.9005 55.0366 32.3765 54.7525 31.2351C54.4684 30.0937 52.9508 28.4527 52.2275 27.7749L52 27.5849" stroke="black" stroke-width="0.5"/>
<path d="M28.3056 36.1865C25.7721 35.2443 15.0342 29.2522 9.98193 26.3739C9.76339 35.2191 11.3631 38.6078 12.4284 42.8881C23.8515 45.6371 40.7838 61.4057 42.9895 62.9755C46.1772 65.0878 45.9077 63.3567 45.3745 62.2271L40.217 56.6976C42.9451 57.5304 49.0707 58.9681 51.7476 58.0556C54.4246 57.1432 52.9989 55.918 51.9515 55.4194C52.7491 55.3502 53.4051 55.2026 53.8492 54.9531C56.1847 53.6412 54.0427 52.4516 52.6797 52.0208C57.0096 52.0707 57.7489 50.5064 56.1301 49.5324C51.9303 49.674 44.1009 48.6022 41.3967 47.4602C38.6924 46.3183 39.4419 42.6448 41.2925 42.7879L48.2324 43.3245C51.0084 43.5392 49.7638 41.5772 47.5222 40.471C42.5405 38.6865 31.4726 37.3643 28.3056 36.1865Z" fill="white"/>
<path d="M39.7219 51.0622C41.7267 51.2172 46.8468 51.6131 51.2884 51.9566C51.7881 51.9952 52.2514 52.0159 52.6797 52.0208M39.5068 53.8441C42.5904 54.5862 48.5544 55.7142 51.9515 55.4194M52.6797 52.0208C57.0096 52.0707 57.7489 50.5064 56.1301 49.5324C51.9303 49.674 44.1009 48.6022 41.3967 47.4602C38.6924 46.3183 39.4419 42.6448 41.2925 42.7879C42.6805 42.8952 46.0117 43.1528 48.2325 43.3245C51.0084 43.5392 49.7638 41.5772 47.5222 40.471C42.5405 38.6865 31.4726 37.3643 28.3056 36.1865C25.7721 35.2443 15.0342 29.2522 9.98193 26.3739C9.76339 35.2191 11.3631 38.6078 12.4284 42.8881C23.8515 45.6371 40.7838 61.4057 42.9895 62.9755C46.1772 65.0877 45.9077 63.3567 45.3745 62.2271L40.217 56.6976C42.9451 57.5304 49.0707 58.9681 51.7476 58.0556C54.4246 57.1432 52.9989 55.918 51.9515 55.4194M52.6797 52.0208C54.0427 52.4516 56.1847 53.6412 53.8492 54.9531C53.4051 55.2026 52.7491 55.3502 51.9515 55.4194" stroke="black" stroke-width="0.5"/>
<path d="M103.348 86.4804L104.189 89.4358L106.98 90.7212L104.025 91.5622L102.739 94.3531L101.898 91.3977L99.1075 90.1124L102.063 89.2714L103.348 86.4804Z" fill="#F2C301"/>
<path d="M35.5023 68.4912L36.5394 71.8747L39.9343 73.3595L36.3515 74.3048L34.8065 77.4886L33.7695 74.1051L30.3745 72.6203L33.9574 71.675L35.5023 68.4912Z" fill="#272870"/>
<path d="M122.1 63.719L122.76 66.0411L124.953 67.051L122.631 67.7118L121.621 69.9047L120.961 67.5826L118.768 66.5727L121.09 65.9119L122.1 63.719Z" fill="#323487"/>
<path d="M88.642 12.072L89.5873 15.6548L92.7711 17.1997L89.3876 18.2368L87.9028 21.6317L86.9575 18.0489L83.7737 16.504L87.1572 15.4669L88.642 12.072Z" fill="#F2C301"/>
<g opacity="0.2">
<path d="M357.143 139.389L378.916 109.102C379.612 108.133 380.816 107.669 381.982 107.92L418.657 115.799C420.72 116.242 421.693 118.62 420.532 120.382L401.433 149.378C400.78 150.37 399.603 150.883 398.432 150.687L359.083 144.099C356.892 143.732 355.846 141.193 357.143 139.389Z" fill="#323487"/>
<path d="M396.95 158.855L354.151 151.593C351.908 151.213 350.075 153.369 350.81 155.521L361.526 186.871C361.872 187.884 362.731 188.635 363.781 188.843L408.647 197.75C410.967 198.21 412.883 195.929 412.028 193.723L399.246 160.729C398.864 159.744 397.992 159.032 396.95 158.855Z" fill="#323487"/>
<path d="M387.38 71.645L381.081 98.6209C380.695 100.275 381.757 101.919 383.423 102.247L426.017 110.624C427.461 110.908 428.897 110.103 429.409 108.723L439.22 82.2652C439.864 80.5278 438.795 78.6275 436.975 78.2765L390.87 69.3815C389.288 69.0763 387.747 70.0757 387.38 71.645Z" fill="#323487"/>
<path d="M375.017 105.523L348.244 141.748C347.303 143.021 345.534 143.344 344.203 142.485L320.883 127.42C319.447 126.492 319.075 124.552 320.068 123.159L346.477 86.0833C347.42 84.7597 349.245 84.4275 350.594 85.3339L374.277 101.25C375.696 102.204 376.033 104.149 375.017 105.523Z" fill="#F2C301"/>
<path d="M419.019 191.029L406.687 159.196C406.321 158.251 406.456 157.185 407.048 156.362L429.711 124.808C431.101 122.873 434.084 123.253 434.945 125.475L447.522 157.94C447.894 158.899 447.748 159.982 447.135 160.809L424.227 191.731C422.821 193.63 419.873 193.232 419.019 191.029Z" fill="#F2C301"/>
</g>
</svg>
