<svg width="344" height="319" viewBox="0 0 344 319" fill="none" xmlns="http://www.w3.org/2000/svg">
<path d="M344 308.186H0.99585V308.998H344V308.186Z" fill="#283642"/>
<path d="M260.75 13.3523H235.037V42.9439H260.75V13.3523Z" fill="white"/>
<path d="M261.248 43.5303H234.494V12.8561H261.248V43.5303ZM235.535 42.4477H260.207V13.8936H235.535V42.4477Z" fill="#B0C6D9"/>
<path d="M239.293 23.0508C240.017 25.1709 241.375 27.2008 243.412 28.0579C245.449 28.915 248.301 28.1481 249.071 26.0731C249.252 25.5769 249.297 25.0807 249.342 24.5394C249.478 22.4193 249.026 20.0736 247.532 18.585C245.947 16.9611 243.412 16.5551 241.149 16.8257C237.799 17.1866 238.478 20.7502 239.293 23.0508Z" fill="#B0C6D9"/>
<path d="M239.7 36.4482C240.424 38.2977 242.28 39.696 244.317 39.8314C245.178 39.8765 246.128 39.696 246.671 39.0194C247.396 38.0721 247.034 36.7188 247.079 35.5009C247.124 34.6438 247.396 33.8319 247.305 33.0199C247.079 31.6666 245.857 30.7193 244.634 30.0878C240.56 27.9677 238.387 33.065 239.7 36.4482Z" fill="#D1DFEB"/>
<path d="M250.655 35.6813C252.013 35.6813 253.326 35.0047 254.322 34.0574C256.902 31.7568 259.754 21.0208 253.236 23.5018C249.931 24.7649 244.136 35.5911 250.655 35.6813Z" fill="#D1DFEB"/>
<path d="M295.155 28.1031C295.064 27.4715 301.266 26.9752 304.299 26.9752C307.332 26.9752 313.489 27.5166 313.444 27.8775C313.398 28.2384 304.299 30.449 304.299 30.449L295.155 28.1031Z" fill="#684121"/>
<path d="M303.348 28.8253C303.348 28.8253 304.706 24.0883 307.468 23.0958C310.229 22.1033 310.908 24.7199 310.908 24.7199C310.908 24.7199 310.546 25.7575 309.641 27.2914C308.735 28.8253 309.007 29.502 309.007 29.502L303.348 28.8253Z" fill="#B0C6D9"/>
<path d="M295.155 28.103C295.336 30.1329 296.468 35.3656 297.192 37.8015C297.916 40.2374 299.455 42.6281 299.727 42.8537C300.315 43.3048 301.809 43.9363 304.435 43.9363C307.332 43.9363 308.826 43.4401 309.46 42.8537C309.822 42.4928 311.995 38.5683 312.583 34.1476C313.172 29.7269 313.398 27.8774 313.398 27.8774C313.398 27.8774 309.098 28.915 304.525 28.8247C300.451 28.7796 295.155 28.103 295.155 28.103Z" fill="#D1DFEB"/>
<path d="M310.365 23.728C312.493 22.6904 313.308 21.4724 315.752 21.337L312.629 18.3144L307.423 18.0437L304.299 23.9536L310.365 23.728Z" fill="#B0C6D9"/>
<path d="M316.793 21.2467C319.827 21.337 322.724 21.1565 325.938 23.2317C329.197 25.307 329.333 26.7506 329.333 26.7506C329.333 26.7506 330.374 21.9234 325.893 19.6226C321.411 17.3669 316.567 17.4572 314.53 17.7278L316.793 21.2467Z" fill="#B0C6D9"/>
<path d="M301.538 0C300.904 2.9772 299.772 17.0964 306.291 21.2013L307.649 17.367C307.649 17.367 309.098 12.3599 307.468 8.02943C305.793 3.78917 301.538 0 301.538 0Z" fill="#B0C6D9"/>
<path d="M306.427 16.1942C305.612 13.3524 302.307 2.79683 302.262 2.70661L302.488 2.6615C302.534 2.75172 305.793 13.3524 306.653 16.1491L306.427 16.1942Z" fill="#B0C6D9"/>
<path d="M306.065 16.7355C306.065 16.7355 308.555 8.52559 311.542 6.5859C314.53 4.6462 317.02 3.06738 317.02 3.06738C317.02 3.06738 316.612 5.50328 315.888 8.30004C315.164 11.0968 312.357 15.0664 310.863 16.1941C309.369 17.2768 306.065 16.7355 306.065 16.7355Z" fill="#B0C6D9"/>
<path d="M308.871 15.5176C308.871 15.5176 315.888 10.6007 319.283 9.42781C322.678 8.25498 324.399 6.58594 324.399 6.58594C324.399 6.58594 323.991 8.66096 322.407 10.4653C320.822 12.2697 310.908 17.5926 310.908 17.5926L308.871 15.5176Z" fill="#B0C6D9"/>
<path d="M307.513 20.1638C309.505 20.0736 310.908 18.5399 314.077 20.8405C317.246 23.141 318.876 24.7199 319.962 25.2612C321.049 25.8025 322.271 26.2987 322.724 26.7498C322.724 26.7498 322.95 24.5394 321.999 22.5546C320.415 19.2165 319.057 16.9611 315.028 16.7355C310.999 16.51 308.554 18.0437 308.554 18.0437L307.513 20.1638Z" fill="#D1DFEB"/>
<path d="M321.909 25.1717C321.003 23.1416 318.649 19.4423 315.707 18.6302C313.489 17.9986 311.271 18.6302 311.271 18.6302L311.225 18.4046C311.225 18.4046 313.534 17.7279 315.798 18.4046C318.785 19.2618 321.185 23.0063 322.135 25.0815L321.909 25.1717Z" fill="#B0C6D9"/>
<path d="M308.962 15.1116L308.735 15.0665C309.641 12.0442 312.9 8.20988 314.847 5.95442C315.435 5.27779 315.843 4.78158 316.069 4.46582L316.25 4.60115C316.024 4.91691 315.571 5.45822 314.982 6.13486C313.081 8.3001 309.867 12.1344 308.962 15.1116Z" fill="#B0C6D9"/>
<path d="M305.159 20.2999C305.159 20.2999 305.023 16.4201 307.423 14.7509C309.822 13.0817 314.032 13.4877 314.032 13.4877C314.032 13.4877 312.628 15.2923 311.814 16.1945C310.999 17.0968 308.871 21.1119 306.834 21.6533C304.842 22.1496 305.159 20.2999 305.159 20.2999Z" fill="#B0C6D9"/>
<path d="M298.324 20.4798C298.324 20.4798 296.92 18.0436 292.574 18.6752C288.274 19.3068 285.105 20.976 283.475 27.6529C283.475 27.6529 285.603 27.0213 287.64 26.0288C289.677 25.0814 290.628 21.8332 294.793 21.6979C298.957 21.5625 298.324 20.4798 298.324 20.4798Z" fill="#B0C6D9"/>
<path d="M302.76 13.9847C302.76 13.9847 301.493 9.78915 299.636 8.39062C297.78 6.99209 293.525 5.95447 293.525 5.95447C293.525 5.95447 294.295 11.8193 302.76 13.9847Z" fill="#B0C6D9"/>
<path d="M286.463 12.811C289.858 14.029 295.834 15.5176 297.871 20.5698C299.908 25.622 302.443 19.6225 302.443 19.6225C302.443 19.6225 297.69 12.4953 293.254 11.954C288.772 11.4578 286.463 12.811 286.463 12.811Z" fill="#B0C6D9"/>
<path d="M305.748 20.706C305.657 18.8563 305.159 16.4653 302.398 13.4426L298.369 14.0742L301.855 21.3376L305.748 20.706Z" fill="#B0C6D9"/>
<path d="M300.089 19.8939C297.101 14.8863 291.85 13.3524 290.854 13.1268L290.9 12.9012C292.348 13.2622 297.328 14.8411 300.27 19.8037L300.089 19.8939Z" fill="#D1DFEB"/>
<path d="M300.949 19.8931C298.64 19.5322 295.064 19.6224 293.48 22.0132C291.895 24.404 291.895 33.065 294.159 33.8769C296.422 34.6438 300.949 19.8931 300.949 19.8931Z" fill="#B0C6D9"/>
<path d="M294.295 32.4335H294.068C294.068 25.6221 296.015 21.5622 299.863 20.3894L299.908 20.615C296.151 21.6976 294.295 25.7123 294.295 32.4335Z" fill="#B0C6D9"/>
<path d="M305.205 20.7051C307.106 22.5095 310.048 28.8248 311.225 31.4411C312.357 34.0574 314.032 37.2151 314.621 38.0271C315.254 38.839 316.386 38.839 316.884 36.9444C317.427 35.0047 317.608 28.509 315.933 25.0356C314.213 21.5622 311.542 20.2992 309.324 20.2089C307.061 20.0285 305.205 20.7051 305.205 20.7051Z" fill="#D1DFEB"/>
<path d="M315.571 36.5836H315.345C315.345 34.5537 314.937 32.1629 313.942 28.5993C312.946 24.9454 310.773 22.69 309.053 20.8856L308.826 20.6149L309.007 20.4796L309.188 20.7503C310.954 22.5546 313.127 24.8101 314.168 28.5542C315.119 32.1178 315.571 34.5086 315.571 36.5836Z" fill="#B0C6D9"/>
<path d="M301.221 19.8931C301.04 19.8931 300.859 19.9834 300.723 20.1187C299.274 21.9231 296.603 30.2231 297.237 33.9672C297.916 37.8917 298.188 38.2977 298.55 38.3428C298.912 38.3879 300.995 36.4482 303.077 32.5688C305.024 28.915 306.653 24.0883 306.608 20.3893C306.608 20.0285 306.291 19.7578 305.929 19.7578L301.221 19.8931Z" fill="#D1DFEB"/>
<path d="M298.867 36.9443L298.641 36.8992C298.641 36.809 300.044 29.1855 300.814 26.4339C301.402 24.3589 302.398 22.0583 303.349 20.5697L303.53 20.705C302.579 22.1936 301.628 24.4942 301.04 26.5241C300.27 29.2307 298.912 36.8541 298.867 36.9443Z" fill="#B0C6D9"/>
<path d="M302.398 13.4427C300.768 12.1344 297.871 11.5479 297.147 11.6382C296.422 11.7284 289.949 15.0217 291.488 19.3075C291.624 19.6684 294.928 17.4127 296.649 16.6458C298.369 15.924 302.398 13.4427 302.398 13.4427Z" fill="#D1DFEB"/>
<path d="M292.076 18.2246L291.85 18.1344C292.982 15.5178 296.784 12.9012 300.18 12.4501L300.225 12.6756C296.92 13.1268 293.163 15.6983 292.076 18.2246Z" fill="#B0C6D9"/>
<path d="M318.559 16.7359C316.748 16.2396 315.254 15.5629 313.67 14.8862C312.04 14.2095 309.505 13.8486 309.505 13.8486C309.505 13.8486 311.95 13.1719 314.304 13.4426C316.703 13.7133 317.382 15.7434 318.559 16.7359Z" fill="#D1DFEB"/>
<path d="M216.296 9.11206C216.296 9.11206 213.58 18.2241 214.214 23.8628L216.386 25.4867C216.386 25.4867 217.563 18.3143 217.247 15.3822C216.884 12.4501 216.296 9.11206 216.296 9.11206Z" fill="#B0C6D9"/>
<path d="M212.222 10.1046C212.222 10.1046 212.041 17.7281 212.312 19.2167C212.584 20.7053 214.304 24.8553 214.304 24.8553L216.658 25.0357C216.658 25.0357 216.93 19.6226 215.843 17.683C214.757 15.7884 212.222 10.1046 212.222 10.1046Z" fill="#B0C6D9"/>
<path d="M219.284 10.691C219.284 10.691 216.205 19.4873 215.979 20.164C215.753 20.8406 214.711 24.9906 214.711 24.9906L216.296 25.8928C216.296 25.8928 219.193 20.7053 219.51 18.4498C219.872 16.1944 219.284 10.691 219.284 10.691Z" fill="#B0C6D9"/>
<path d="M214.304 24.8553L220.959 13.2622C220.959 13.2622 220.913 17.9085 220.098 19.2617C219.284 20.615 217.065 26.2536 217.065 26.2536L214.304 24.8553Z" fill="#D1DFEB"/>
<path d="M214.259 25.3065C214.259 25.3065 211.226 21.6527 210.501 19.0814C209.732 16.5102 209.234 11.6384 209.234 11.6384C209.234 11.6384 215.028 22.1489 215.481 22.8255C215.934 23.5472 215.481 26.1185 215.481 26.1185L214.259 25.3065Z" fill="#D1DFEB"/>
<path d="M212.493 23.953C212.674 25.3063 212.493 26.4791 212.493 27.3362C212.493 28.1933 211.905 28.4188 210.637 28.5992C209.37 28.7797 208.419 30.0427 208.419 31.4862C208.419 32.9297 208.329 39.8314 208.419 41.4554C208.51 43.0793 209.958 43.8461 211.633 44.1619C214.485 44.7032 218.107 44.7032 220.28 44.1619C221.909 43.7559 223.267 43.0793 223.403 40.463C223.584 37.8466 223.584 32.2531 223.494 30.99C223.403 29.727 222.362 28.4639 221.185 28.3737C220.008 28.2835 218.967 28.103 218.922 26.9302C218.831 25.7574 218.831 23.953 218.831 23.953H212.493Z" fill="#D1DFEB"/>
<path d="M219.103 27.4264H212.493V27.6971H219.103V27.4264Z" fill="#F7FCF0"/>
<path d="M222.996 38.2976H222.86V38.4781H222.996V38.2976Z" fill="#F7FCF0"/>
<path d="M218.695 38.2976H218.559V38.4781H218.695V38.2976Z" fill="#F7FCF0"/>
<path d="M220.823 38.2976H220.687V41.5007H220.823V38.2976Z" fill="#F7FCF0"/>
<path d="M221.23 38.2976H221.094V40.9142H221.23V38.2976Z" fill="#F7FCF0"/>
<path d="M221.683 38.2976H221.547V40.3277H221.683V38.2976Z" fill="#F7FCF0"/>
<path d="M221.996 38.2952L221.993 39.6937L222.129 39.694L222.132 38.2955L221.996 38.2952Z" fill="#F7FCF0"/>
<path d="M222.543 38.2976H222.407V39.1097H222.543V38.2976Z" fill="#F7FCF0"/>
<path d="M220.37 38.2976H220.234V40.9142H220.37V38.2976Z" fill="#F7FCF0"/>
<path d="M219.963 38.2976H219.827V40.3277H219.963V38.2976Z" fill="#F7FCF0"/>
<path d="M219.509 38.2976L219.374 38.2979L219.376 39.6964L219.512 39.6962L219.509 38.2976Z" fill="#F7FCF0"/>
<path d="M219.103 38.2976H218.967V39.1097H219.103V38.2976Z" fill="#F7FCF0"/>
<path d="M218.152 38.2976H218.016V38.4781H218.152V38.2976Z" fill="#F7FCF0"/>
<path d="M213.851 38.2976H213.716V38.4781H213.851V38.2976Z" fill="#F7FCF0"/>
<path d="M215.979 38.2976H215.843V41.5007H215.979V38.2976Z" fill="#F7FCF0"/>
<path d="M216.432 38.2976H216.296V40.9142H216.432V38.2976Z" fill="#F7FCF0"/>
<path d="M216.839 38.2976H216.703V40.3277H216.839V38.2976Z" fill="#F7FCF0"/>
<path d="M217.157 38.2539L217.153 39.6525L217.289 39.6528L217.292 38.2542L217.157 38.2539Z" fill="#F7FCF0"/>
<path d="M217.699 38.2976H217.563V39.1097H217.699V38.2976Z" fill="#F7FCF0"/>
<path d="M215.572 38.2976H215.436V40.9142H215.572V38.2976Z" fill="#F7FCF0"/>
<path d="M215.119 38.2976H214.983V40.3277H215.119V38.2976Z" fill="#F7FCF0"/>
<path d="M214.711 38.2976L214.575 38.2979L214.577 39.6964L214.713 39.6961L214.711 38.2976Z" fill="#F7FCF0"/>
<path d="M214.259 38.2976H214.123V39.1097H214.259V38.2976Z" fill="#F7FCF0"/>
<path d="M213.308 38.2976H213.172V38.4781H213.308V38.2976Z" fill="#F7FCF0"/>
<path d="M209.008 38.2976H208.872V38.4781H209.008V38.2976Z" fill="#F7FCF0"/>
<path d="M211.135 38.2976H211V41.5007H211.135V38.2976Z" fill="#F7FCF0"/>
<path d="M211.588 38.2976H211.452V40.9142H211.588V38.2976Z" fill="#F7FCF0"/>
<path d="M211.995 38.2976H211.86V40.3277H211.995V38.2976Z" fill="#F7FCF0"/>
<path d="M212.316 38.2583L212.314 39.6569L212.45 39.6571L212.452 38.2586L212.316 38.2583Z" fill="#F7FCF0"/>
<path d="M212.856 38.2976H212.72V39.1097H212.856V38.2976Z" fill="#F7FCF0"/>
<path d="M210.728 38.2976H210.592V40.9142H210.728V38.2976Z" fill="#F7FCF0"/>
<path d="M210.275 38.2976H210.139V40.3277H210.275V38.2976Z" fill="#F7FCF0"/>
<path d="M209.867 38.2976L209.731 38.2979L209.733 39.6964L209.869 39.6961L209.867 38.2976Z" fill="#F7FCF0"/>
<path d="M209.415 38.2976H209.279V39.1097H209.415V38.2976Z" fill="#F7FCF0"/>
<path d="M208.962 37.7113H208.827V37.8918H208.962V37.7113Z" fill="#F7FCF0"/>
<path d="M213.263 37.7113H213.127V37.8918H213.263V37.7113Z" fill="#F7FCF0"/>
<path d="M211.135 34.734H211V37.9371H211.135V34.734Z" fill="#F7FCF0"/>
<path d="M210.683 35.3204H210.547V37.937H210.683V35.3204Z" fill="#F7FCF0"/>
<path d="M210.275 35.8618H210.139V37.8919H210.275V35.8618Z" fill="#F7FCF0"/>
<path d="M209.716 36.5334L209.714 37.9319L209.849 37.9322L209.852 36.5336L209.716 36.5334Z" fill="#F7FCF0"/>
<path d="M209.415 37.125H209.279V37.937H209.415V37.125Z" fill="#F7FCF0"/>
<path d="M211.543 35.3204H211.407V37.937H211.543V35.3204Z" fill="#F7FCF0"/>
<path d="M211.995 35.8618H211.86V37.8919H211.995V35.8618Z" fill="#F7FCF0"/>
<path d="M212.402 36.5385L212.266 36.5387L212.269 37.9372L212.404 37.937L212.402 36.5385Z" fill="#F7FCF0"/>
<path d="M212.856 37.125H212.72V37.937H212.856V37.125Z" fill="#F7FCF0"/>
<path d="M213.806 37.7113H213.67V37.8918H213.806V37.7113Z" fill="#F7FCF0"/>
<path d="M218.107 37.7113H217.971V37.8918H218.107V37.7113Z" fill="#F7FCF0"/>
<path d="M215.979 34.734H215.843V37.9371H215.979V34.734Z" fill="#F7FCF0"/>
<path d="M215.526 35.3204H215.391V37.937H215.526V35.3204Z" fill="#F7FCF0"/>
<path d="M215.119 35.8618H214.983V37.8919H215.119V35.8618Z" fill="#F7FCF0"/>
<path d="M214.556 36.5291L214.553 37.9276L214.689 37.9279L214.692 36.5294L214.556 36.5291Z" fill="#F7FCF0"/>
<path d="M214.259 37.125H214.123V37.937H214.259V37.125Z" fill="#F7FCF0"/>
<path d="M216.387 35.3204H216.251V37.937H216.387V35.3204Z" fill="#F7FCF0"/>
<path d="M216.839 35.8618H216.704V37.8919H216.839V35.8618Z" fill="#F7FCF0"/>
<path d="M217.246 36.5385L217.11 36.5387L217.113 37.9372L217.248 37.937L217.246 36.5385Z" fill="#F7FCF0"/>
<path d="M217.7 37.125H217.564V37.937H217.7V37.125Z" fill="#F7FCF0"/>
<path d="M218.605 37.7113H218.469V37.8918H218.605V37.7113Z" fill="#F7FCF0"/>
<path d="M222.951 37.7115H222.815V37.892H222.951V37.7115Z" fill="#F7FCF0"/>
<path d="M220.823 34.734H220.687V37.9371H220.823V34.734Z" fill="#F7FCF0"/>
<path d="M220.37 35.3204H220.234V37.937H220.37V35.3204Z" fill="#F7FCF0"/>
<path d="M219.963 35.8618H219.827V37.8919H219.963V35.8618Z" fill="#F7FCF0"/>
<path d="M219.396 36.5251L219.393 37.9236L219.529 37.9239L219.532 36.5254L219.396 36.5251Z" fill="#F7FCF0"/>
<path d="M219.103 37.125H218.967V37.937H219.103V37.125Z" fill="#F7FCF0"/>
<path d="M221.23 35.3204H221.094V37.937H221.23V35.3204Z" fill="#F7FCF0"/>
<path d="M221.683 35.8618H221.547V37.8919H221.683V35.8618Z" fill="#F7FCF0"/>
<path d="M222.09 36.5385L221.954 36.5387L221.956 37.9372L222.092 37.937L222.09 36.5385Z" fill="#F7FCF0"/>
<path d="M222.543 37.125H222.407V37.937H222.543V37.125Z" fill="#F7FCF0"/>
<path d="M277.635 19.4872H259.437V43.2146H277.635V19.4872Z" fill="white"/>
<path d="M278.269 43.8461H258.849V18.9008H278.269V43.8461ZM260.071 42.5831H277.047V20.1187H260.071V42.5831Z" fill="#B0C6D9"/>
<path d="M262.199 29.2757C262.334 28.5089 262.561 27.6969 263.104 27.1556C263.647 26.5692 264.507 26.2985 265.232 26.6594C265.911 27.0203 266.182 27.8322 266.318 28.5991C266.544 30.3133 266.092 31.9823 265.684 33.6513C265.141 35.7715 264.688 39.5606 263.059 35.8166C262.063 33.6964 261.927 31.5312 262.199 29.2757Z" fill="#D1DFEB"/>
<path d="M268.401 25.8025C268.853 24.8101 269.397 23.8177 270.302 23.1862C271.207 22.5547 272.52 22.4644 273.29 23.2313C273.833 23.7275 274.014 24.5395 273.969 25.2612C273.923 25.9829 273.607 26.7047 273.29 27.3362C272.611 28.7346 271.751 30.0428 270.755 31.2156C270.166 31.8922 268.355 34.3732 267.359 34.3732C265.277 34.3281 267.903 26.9302 268.401 25.8025Z" fill="#B0C6D9"/>
<path d="M272.248 33.5613C272.792 33.3809 273.38 33.2906 273.923 33.3809C274.467 33.4711 275.01 33.832 275.191 34.3734C275.372 34.8696 275.191 35.4561 274.874 35.8621C274.557 36.2681 274.104 36.5388 273.652 36.8095C272.113 37.6216 270.392 38.0276 268.717 38.4336C268.174 38.5689 266.137 39.1103 265.73 38.4787C265.368 37.8471 266.726 36.8095 267.133 36.4486C268.627 35.0952 270.347 34.1027 272.248 33.5613Z" fill="#D1DFEB"/>
<path d="M208.012 67.4381H204.707L203.53 45.2444H209.189L208.012 67.4381Z" fill="#B0C6D9"/>
<path d="M313.534 67.4381H316.839L318.016 45.2444H312.357L313.534 67.4381Z" fill="#B0C6D9"/>
<path d="M328.065 43.0792H191.624V47.5004H328.065V43.0792Z" fill="#B0C6D9"/>
<path d="M206.789 64.5963C206.789 64.867 206.563 65.0926 206.291 65.0926C206.02 65.0926 205.793 64.867 205.793 64.5963C205.793 64.3257 206.02 64.1001 206.291 64.1001C206.563 64.1001 206.789 64.3257 206.789 64.5963Z" fill="#F4E5D9"/>
<path d="M314.756 64.5963C314.756 64.867 314.983 65.0926 315.254 65.0926C315.526 65.0926 315.752 64.867 315.752 64.5963C315.752 64.3257 315.526 64.1001 315.254 64.1001C314.983 64.1001 314.756 64.3257 314.756 64.5963Z" fill="#F4E5D9"/>
<path d="M241.647 60.5365V27.2008C241.647 17.8181 233.951 10.1495 224.535 10.1495H104.481C95.0652 10.1495 87.3695 17.8181 87.3695 27.2008V54.2663C86.4641 54.4918 85.7398 55.3038 85.7398 56.2962V68.5659C85.7398 69.5583 86.4188 70.3703 87.3695 70.5958V81.4671C86.2378 81.4671 85.2871 82.4144 85.2871 83.5421V95.8118C85.2871 96.9396 86.2378 97.8868 87.3695 97.8868V291.36C87.3695 300.743 95.0652 308.411 104.481 308.411H224.535C233.951 308.411 241.647 300.743 241.647 291.36V88.9101C242.733 88.7297 243.548 87.7824 243.548 86.6547V62.7468C243.548 61.6642 242.733 60.7169 241.647 60.5365Z" fill="#283642"/>
<path d="M237.391 30.0878C237.391 20.9307 230.103 13.3975 221.185 13.3975H107.605C98.6868 13.3975 91.3984 20.8856 91.3984 30.0878V288.473C91.3984 297.63 98.6868 305.163 107.605 305.163H221.185C230.103 305.163 237.391 297.675 237.391 288.473V30.0878Z" fill="#323487"/>
<path d="M233.679 46.0113V32.0725C233.679 27.1556 229.65 23.186 224.671 23.186H210.547H182.163H153.191H118.515H104.391C101.991 23.186 99.8185 24.0882 98.234 25.5768C97.1023 26.6143 96.2422 27.9676 95.7895 29.4562C95.5179 30.2682 95.3821 31.1704 95.3821 32.0725V45.9662V46.0113V275.752V275.797V289.691C95.3821 294.608 99.411 298.577 104.391 298.577H112.403C112.403 298.577 116.432 298.577 118.56 298.577H133.091H224.671C229.65 298.577 233.679 294.608 233.679 289.691V275.797V46.0113Z" fill="white"/>
<path d="M182.571 17.8635H146.491C145.631 17.8635 144.952 17.1868 144.952 16.3296C144.952 15.4725 145.631 14.7958 146.491 14.7958H182.571C183.431 14.7958 184.11 15.4725 184.11 16.3296C184.11 17.1417 183.385 17.8635 182.571 17.8635Z" fill="black"/>
<path d="M194.703 16.3302C194.703 18.0896 193.254 19.5332 191.489 19.5332C189.723 19.5332 188.274 18.0896 188.274 16.3302C188.274 14.5707 189.723 13.1271 191.489 13.1271C193.299 13.1271 194.703 14.5707 194.703 16.3302Z" fill="black"/>
<path d="M140.38 16.3298C140.38 17.5028 139.429 18.4502 138.252 18.4502C137.075 18.4502 136.124 17.5028 136.124 16.3298C136.124 15.1569 137.075 14.2095 138.252 14.2095C139.429 14.2095 140.38 15.1569 140.38 16.3298Z" fill="black"/>
<path d="M134.087 16.3297C134.087 17.7283 132.956 18.811 131.597 18.811C130.194 18.811 129.108 17.6832 129.108 16.3297C129.108 14.9312 130.239 13.8485 131.597 13.8485C132.956 13.8034 134.087 14.9312 134.087 16.3297Z" fill="black"/>
<path d="M226.165 28.3738V27.1106H214.032V32.6145H226.165V31.3513H227.704V28.4189H226.165V28.3738ZM227.432 31.0806H225.893V32.3438H214.259V27.3813H225.893V28.6445H227.432V31.0806Z" fill="black"/>
<path d="M224.716 27.1106H214.032V32.6145H224.716V27.1106Z" fill="black"/>
<path d="M206.201 29.9524C205.25 29.9524 204.435 30.3584 203.802 30.9449L204.209 31.3509C204.707 30.8547 205.431 30.5389 206.201 30.5389C206.97 30.5389 207.649 30.8096 208.193 31.3058L208.6 30.8998C207.966 30.2682 207.106 29.9073 206.201 29.9524Z" fill="black"/>
<path d="M206.201 31.7568C205.793 31.7568 205.386 31.9373 205.114 32.208L205.522 32.614C205.703 32.4335 205.929 32.3433 206.201 32.3433C206.472 32.3433 206.699 32.4335 206.88 32.614L207.287 32.208C207.016 31.9373 206.608 31.7568 206.201 31.7568Z" fill="black"/>
<path d="M206.201 27.9225C204.707 27.9225 203.349 28.5541 202.353 29.5466L202.76 29.9526C203.621 29.0954 204.843 28.5541 206.156 28.509C207.468 28.509 208.691 29.0052 209.551 29.8624L209.958 29.4564C209.053 28.509 207.695 27.9225 206.201 27.9225Z" fill="black"/>
<path d="M206.201 25.8927C204.164 25.9378 202.262 26.7498 200.904 28.1032L201.312 28.5093C202.579 27.2461 204.299 26.4791 206.156 26.4791C208.057 26.434 209.777 27.201 210.999 28.419L211.407 28.013C210.139 26.6596 208.238 25.8475 206.201 25.8927Z" fill="black"/>
<path d="M223.132 242.552H105.93C102.897 242.552 100.407 240.071 100.407 237.049V220.268C100.407 217.246 102.897 214.765 105.93 214.765H223.132C226.165 214.765 228.654 217.246 228.654 220.268V237.049C228.654 240.116 226.165 242.552 223.132 242.552Z" fill="#D1DFEB"/>
<path d="M201.584 280.038H127.433C123.494 280.038 120.28 276.835 120.28 272.91V260.55C120.28 256.626 123.494 253.423 127.433 253.423H201.584C205.522 253.423 208.736 256.626 208.736 260.55V272.91C208.736 276.835 205.522 280.038 201.584 280.038Z" fill="#FFC727"/>
<path d="M141.013 266.821C141.013 265.242 141.421 264.024 142.281 263.122C143.141 262.22 144.228 261.768 145.54 261.768C146.4 261.768 147.215 261.994 147.894 262.4C148.619 262.806 149.117 263.392 149.524 264.159C149.886 264.926 150.067 265.738 150.067 266.685C150.067 267.633 149.886 268.49 149.479 269.257C149.071 270.023 148.528 270.565 147.849 270.971C147.125 271.377 146.355 271.557 145.54 271.557C144.635 271.557 143.865 271.332 143.141 270.926C142.417 270.474 141.919 269.888 141.557 269.166C141.195 268.445 141.013 267.678 141.013 266.821ZM142.281 266.866C142.281 267.993 142.598 268.896 143.186 269.572C143.82 270.249 144.59 270.565 145.495 270.565C146.446 270.565 147.215 270.249 147.849 269.572C148.438 268.896 148.754 267.994 148.754 266.776C148.754 266.009 148.619 265.332 148.347 264.746C148.075 264.159 147.713 263.708 147.215 263.392C146.717 263.077 146.129 262.896 145.54 262.896C144.635 262.896 143.865 263.212 143.232 263.798C142.598 264.43 142.281 265.422 142.281 266.866Z" fill="#283642"/>
<path d="M151.697 271.423V261.994H155.907C156.767 261.994 157.401 262.084 157.854 262.265C158.306 262.445 158.623 262.716 158.895 263.167C159.166 263.618 159.302 264.069 159.302 264.611C159.302 265.287 159.076 265.829 158.668 266.325C158.216 266.776 157.582 267.092 156.631 267.182C156.948 267.363 157.22 267.498 157.401 267.633C157.763 267.949 158.125 268.4 158.442 268.896L160.072 271.468H158.487L157.22 269.483C156.858 268.896 156.541 268.49 156.314 268.175C156.088 267.859 155.862 267.678 155.681 267.543C155.5 267.408 155.319 267.317 155.092 267.272C154.956 267.227 154.73 267.227 154.413 267.227H152.965V271.423H151.697ZM152.965 266.144H155.681C156.269 266.144 156.722 266.099 157.039 265.964C157.356 265.829 157.627 265.648 157.763 265.378C157.944 265.107 158.035 264.836 158.035 264.52C158.035 264.069 157.854 263.708 157.537 263.438C157.22 263.167 156.677 262.987 155.998 262.987H153.01V266.144H152.965Z" fill="#283642"/>
<path d="M161.249 271.423V261.994H164.508C165.232 261.994 165.821 262.039 166.183 262.129C166.726 262.265 167.179 262.49 167.586 262.806C168.084 263.212 168.447 263.753 168.718 264.43C168.945 265.107 169.08 265.829 169.08 266.686C169.08 267.408 168.99 268.039 168.809 268.581C168.628 269.122 168.447 269.573 168.175 269.979C167.903 270.34 167.632 270.611 167.315 270.836C166.998 271.062 166.636 271.197 166.183 271.333C165.73 271.423 165.232 271.513 164.644 271.513H161.249V271.423ZM162.516 270.34H164.553C165.187 270.34 165.685 270.295 166.047 270.16C166.409 270.024 166.681 269.889 166.907 269.663C167.224 269.348 167.451 268.987 167.586 268.445C167.768 267.949 167.858 267.317 167.858 266.641C167.858 265.648 167.677 264.881 167.36 264.34C167.043 263.799 166.636 263.438 166.183 263.257C165.866 263.122 165.323 263.077 164.553 263.077H162.516V270.34Z" fill="#283642"/>
<path d="M170.846 271.423V261.994H177.681V263.122H172.068V266.009H177.319V267.137H172.068V270.34H177.908V271.468H170.846V271.423Z" fill="#283642"/>
<path d="M179.673 271.423V261.994H183.883C184.743 261.994 185.377 262.084 185.83 262.265C186.283 262.445 186.6 262.716 186.871 263.167C187.143 263.618 187.279 264.069 187.279 264.611C187.279 265.287 187.052 265.829 186.645 266.325C186.192 266.776 185.558 267.092 184.608 267.182C184.925 267.363 185.196 267.498 185.377 267.633C185.739 267.949 186.102 268.4 186.418 268.896L188.048 271.468H186.464L185.196 269.483C184.834 268.896 184.517 268.49 184.291 268.175C184.064 267.859 183.838 267.678 183.657 267.543C183.476 267.408 183.295 267.317 183.069 267.272C182.933 267.227 182.706 267.227 182.389 267.227H180.941V271.423H179.673ZM180.941 266.144H183.657C184.246 266.144 184.698 266.099 185.015 265.964C185.332 265.829 185.604 265.648 185.739 265.378C185.92 265.107 186.011 264.836 186.011 264.52C186.011 264.069 185.83 263.708 185.513 263.438C185.196 263.167 184.653 262.987 183.974 262.987H180.986V266.144H180.941Z" fill="#283642"/>
<path d="M221.638 237.275H188.863C186.916 237.275 185.332 235.696 185.332 233.756C185.332 231.816 186.916 230.237 188.863 230.237H221.638C223.584 230.237 225.169 231.816 225.169 233.756C225.169 235.696 223.539 237.275 221.638 237.275Z" fill="#B0C6D9"/>
<path d="M127.161 237.274H105.07C104.391 237.274 103.893 236.733 103.893 236.102V235.335C103.893 234.658 104.436 234.162 105.07 234.162H127.161C127.84 234.162 128.338 234.703 128.338 235.335V236.102C128.338 236.733 127.795 237.274 127.161 237.274Z" fill="#B0C6D9"/>
<path d="M221.638 210.164H107.424C103.531 210.164 100.407 207.051 100.407 203.172V70.8666C100.407 66.9872 103.531 63.8746 107.424 63.8746H221.638C225.531 63.8746 228.654 66.9872 228.654 70.8666V203.172C228.654 207.051 225.486 210.164 221.638 210.164Z" fill="#D1DFEB"/>
<path d="M199.035 130.305C210.12 130.317 219.102 139.299 219.115 150.382C219.115 161.471 210.125 170.459 199.035 170.459C187.946 170.459 178.956 161.471 178.956 150.382C178.956 139.294 187.946 130.305 199.035 130.305ZM199.039 127.423C186.358 127.423 176.077 137.702 176.077 150.382C176.077 150.384 176.077 150.385 176.077 150.386C176.079 163.066 186.361 173.343 199.043 173.341C211.724 173.339 222.002 163.059 222 150.379C221.998 137.699 211.716 127.422 199.035 127.424H199.039V127.423Z" fill="#263238"/>
<path d="M199.035 131.163C209.646 131.175 218.243 139.773 218.253 150.383C218.253 150.384 218.253 150.385 218.253 150.386C218.251 161.001 209.644 169.604 199.028 169.602C188.412 169.6 179.808 160.994 179.81 150.379C179.812 139.764 188.419 131.161 199.035 131.163ZM177.058 150.383C177.058 162.519 186.897 172.358 199.035 172.358C211.173 172.358 221.013 162.519 221.013 150.383C221.013 138.246 211.173 128.407 199.035 128.407C186.897 128.407 177.058 138.246 177.058 150.383Z" fill="#323487"/>
<path d="M130.058 130.305C141.142 130.317 150.125 139.299 150.137 150.382C150.137 150.384 150.137 150.385 150.137 150.386C150.135 161.474 141.144 170.461 130.054 170.459C118.965 170.457 109.977 161.467 109.979 150.379C109.981 139.291 118.972 130.304 130.061 130.306M130.058 127.423C117.376 127.423 107.096 137.702 107.096 150.382C107.096 163.062 117.376 173.341 130.058 173.341C142.739 173.341 153.019 163.062 153.019 150.382C153.019 137.702 142.739 127.423 130.058 127.423Z" fill="#263238"/>
<path d="M130.061 131.163C140.671 131.175 149.269 139.773 149.279 150.383C149.279 150.384 149.279 150.385 149.279 150.386C149.277 161.001 140.669 169.604 130.054 169.602C119.438 169.6 110.834 160.994 110.836 150.379C110.838 139.764 119.445 131.161 130.061 131.163ZM108.083 150.383C108.083 162.519 117.923 172.358 130.061 172.358C142.199 172.358 152.039 162.519 152.039 150.383C152.039 138.246 142.199 128.407 130.061 128.407C117.923 128.407 108.083 138.246 108.083 150.383Z" fill="#323487"/>
<path d="M202.53 150.951C202.844 149.02 201.534 147.2 199.604 146.886C197.673 146.572 195.853 147.882 195.539 149.812C195.224 151.743 196.535 153.563 198.465 153.877C200.396 154.192 202.216 152.881 202.53 150.951Z" fill="#263238"/>
<path d="M132.564 152.886C133.948 151.503 133.948 149.261 132.564 147.878C131.181 146.495 128.939 146.495 127.555 147.878C126.172 149.261 126.172 151.503 127.555 152.886C128.939 154.269 131.181 154.269 132.564 152.886Z" fill="#263238"/>
<path d="M199.042 147.907C200.139 147.913 201.1 148.644 201.4 149.699C201.771 151.008 201.011 152.37 199.702 152.742H199.68H199.662L169.358 162.469C169.021 162.552 168.675 162.594 168.327 162.595C166.381 162.599 164.679 161.285 164.19 159.401C163.598 157.121 164.966 154.793 167.246 154.201L198.293 148.012H198.332H198.372C198.589 147.95 198.813 147.919 199.038 147.918M199.039 146.823C198.716 146.823 198.395 146.868 198.084 146.956L167.009 153.167C164.642 153.77 162.985 155.9 162.983 158.342C162.979 161.294 165.371 163.691 168.324 163.694C168.771 163.694 169.216 163.638 169.65 163.528L199.986 153.801C201.565 153.389 202.658 151.954 202.636 150.323C202.609 148.365 201 146.8 199.042 146.827L199.039 146.823Z" fill="#263238"/>
<path d="M167.481 159.032L136.817 121.494C136.467 121.04 136.531 120.393 136.964 120.018C137.414 119.626 138.097 119.674 138.489 120.125L168.033 156.273L186.57 112.365C186.801 111.814 187.435 111.557 187.986 111.788C188.536 112.02 188.794 112.654 188.562 113.204L169.326 158.78C169.178 159.129 168.858 159.375 168.483 159.428C168.431 159.432 168.38 159.432 168.328 159.428C168 159.432 167.688 159.286 167.481 159.032Z" fill="#323487"/>
<path d="M198.383 150.689L183.928 120.168C183.917 120.146 183.906 120.123 183.896 120.1C183.745 119.732 183.921 119.311 184.289 119.16C184.657 119.008 185.078 119.184 185.229 119.552L199.687 150.073C199.734 150.17 199.758 150.276 199.758 150.384C199.757 150.782 199.433 151.104 199.035 151.103C198.756 151.103 198.502 150.941 198.383 150.689Z" fill="#323487"/>
<path d="M129.791 151.416C129.213 151.268 128.865 150.68 129.013 150.101L137.919 115.456C138.051 114.942 138.536 114.6 139.065 114.649L184.677 118.774C185.275 118.828 185.715 119.355 185.661 119.952C185.607 120.549 185.08 120.989 184.483 120.935L139.785 116.893L131.11 150.649C130.988 151.128 130.556 151.464 130.061 151.463C129.969 151.46 129.878 151.444 129.791 151.416Z" fill="#323487"/>
<path d="M138.802 116.803H138.801C138.211 116.718 137.801 116.169 137.887 115.578L139.195 106.655C139.281 106.064 139.83 105.655 140.421 105.742C141.012 105.828 141.421 106.377 141.334 106.968L140.048 115.888C139.971 116.424 139.509 116.82 138.967 116.814C138.912 116.815 138.857 116.811 138.802 116.803Z" fill="#323487"/>
<path d="M170.821 170.013L164.451 147.054C164.368 146.69 164.575 146.323 164.929 146.207C165.307 146.083 165.714 146.29 165.838 146.668L172.208 169.641C172.225 169.704 172.234 169.768 172.234 169.833C172.233 170.23 171.911 170.553 171.513 170.553C171.186 170.55 170.902 170.329 170.821 170.013Z" fill="#263238"/>
<path d="M162.635 146.863C162.635 146.465 162.958 146.142 163.355 146.142H169.722C170.12 146.142 170.442 146.465 170.442 146.863C170.442 147.261 170.12 147.584 169.722 147.584H163.355C162.958 147.583 162.635 147.261 162.635 146.863Z" fill="#263238"/>
<path d="M168.556 170.402C168.556 170.004 168.879 169.682 169.277 169.682H175.643C176.041 169.682 176.364 170.004 176.364 170.402C176.364 170.8 176.041 171.123 175.643 171.123H169.277C168.879 171.123 168.556 170.8 168.556 170.402Z" fill="#263238"/>
<g opacity="0.3">
<path d="M167.481 159.032L136.817 121.494C136.467 121.04 136.531 120.393 136.964 120.018C137.414 119.626 138.097 119.674 138.489 120.125L168.033 156.273L186.57 112.365C186.801 111.814 187.435 111.557 187.986 111.788C188.536 112.02 188.794 112.654 188.562 113.204L169.326 158.78C169.178 159.129 168.858 159.375 168.483 159.428C168.431 159.432 168.38 159.432 168.328 159.428C168 159.432 167.688 159.286 167.481 159.032Z" fill="black"/>
<path d="M198.383 150.689L183.928 120.168C183.917 120.146 183.906 120.123 183.896 120.1C183.745 119.732 183.921 119.311 184.289 119.16C184.657 119.008 185.078 119.184 185.229 119.552L199.687 150.073C199.734 150.17 199.758 150.276 199.758 150.384C199.757 150.782 199.433 151.104 199.035 151.103C198.756 151.103 198.502 150.941 198.383 150.689Z" fill="black"/>
<path d="M129.791 151.416C129.213 151.268 128.865 150.68 129.013 150.101L137.919 115.456C138.051 114.942 138.536 114.6 139.065 114.649L184.677 118.774C185.275 118.828 185.715 119.355 185.661 119.952C185.607 120.549 185.08 120.989 184.483 120.935L139.785 116.893L131.11 150.649C130.988 151.128 130.556 151.464 130.061 151.463C129.969 151.46 129.878 151.444 129.791 151.416Z" fill="black"/>
<path d="M138.802 116.803H138.801C138.211 116.718 137.801 116.169 137.887 115.578L139.195 106.655C139.281 106.064 139.83 105.655 140.421 105.742C141.012 105.828 141.421 106.377 141.334 106.968L140.048 115.888C139.971 116.424 139.509 116.82 138.967 116.814C138.912 116.815 138.857 116.811 138.802 116.803Z" fill="black"/>
</g>
<path d="M190.288 108.651C188.605 109.311 176.503 108.572 175.678 110.453C174.853 112.333 180.362 110.733 182.779 111.533C185.197 112.333 193.17 115.014 195.054 112.614C198.282 108.489 193.851 107.249 190.288 108.651Z" fill="#323487"/>
<path d="M113.26 152.579C112.751 149.397 113.225 146.065 114.6 143.151C115.976 140.237 118.247 137.753 121.027 136.124" stroke="#263238" stroke-width="0.75" stroke-miterlimit="10" stroke-linecap="round" stroke-linejoin="round"/>
<path d="M144.377 151.91C144.483 153.026 144.149 154.483 143.747 155.598C143.314 156.797 142.729 157.858 141.837 158.766" stroke="#263238" stroke-width="0.75" stroke-miterlimit="10" stroke-linecap="round" stroke-linejoin="round"/>
<path d="M145.461 120.095C145.417 120.095 145.371 120.091 145.327 120.083L134.769 118.099C134.109 118.074 133.487 117.777 133.054 117.275C132.605 116.755 132.403 116.068 132.497 115.389L133.416 108.804C133.427 108.723 133.434 108.621 133.442 108.508C133.493 107.817 133.611 106.2 135.029 106.071C135.794 106.002 136.758 105.925 137.653 105.854C138.756 105.766 140.005 105.667 140.2 105.631C140.586 105.562 140.968 105.81 141.046 106.195C141.124 106.58 140.888 106.954 140.505 107.04C140.292 107.087 139.585 107.146 137.768 107.291C136.878 107.361 135.92 107.438 135.159 107.507C135.027 107.519 134.933 107.891 134.88 108.613C134.869 108.763 134.858 108.897 134.843 109.003L133.925 115.588C133.887 115.861 133.965 116.126 134.145 116.333C134.324 116.542 134.575 116.658 134.85 116.66C134.893 116.66 134.935 116.664 134.977 116.672L145.592 118.666C145.984 118.74 146.241 119.117 146.168 119.508C146.103 119.854 145.8 120.095 145.461 120.095Z" fill="#323487"/>
<path d="M195.914 133.485C199.05 132.741 202.408 132.966 205.417 134.122C208.425 135.277 211.071 137.358 212.902 140.01" stroke="#263238" stroke-width="0.75" stroke-miterlimit="10" stroke-linecap="round" stroke-linejoin="round"/>
<path d="M198.89 164.463C197.785 164.652 196.307 164.427 195.166 164.108C193.938 163.766 192.836 163.261 191.865 162.439" stroke="#263238" stroke-width="0.75" stroke-miterlimit="10" stroke-linecap="round" stroke-linejoin="round"/>
<path d="M109.779 136.169C112.335 131.895 116.734 128.846 121.545 127.214" stroke="black" stroke-width="0.5" stroke-miterlimit="10" stroke-linecap="round" stroke-linejoin="round"/>
<path d="M168.32 153.002C165.369 153.004 162.979 155.397 162.981 158.348C162.981 161.3 165.374 163.694 168.327 163.694C171.28 163.694 173.674 161.301 173.674 158.348C173.674 155.395 171.281 153.002 168.327 153.002C168.325 153.002 168.323 153.002 168.32 153.002Z" fill="#263238"/>
<path d="M228.609 43.0792H99.9089V59.3185H228.609V43.0792Z" fill="#FFC727"/>
<path d="M194.793 44.7034H100.995V57.6948H194.793V44.7034Z" fill="white"/>
<path d="M204.435 49.0794C204.435 51.3802 206.337 53.275 208.645 53.275C209.551 53.275 210.411 52.9592 211.09 52.4629L212.81 53.7261H213.308V51.4253L212.493 50.7937C212.72 50.2523 212.855 49.711 212.855 49.0794C212.855 46.7786 210.954 44.8838 208.645 44.8838C206.337 44.8838 204.435 46.7786 204.435 49.0794Z" fill="#FFC727"/>
<path d="M204.435 49.0789C204.435 51.3795 206.337 53.274 208.645 53.274C209.551 53.274 210.411 52.9583 211.09 52.4621L212.81 53.7251L217.609 57.2887C217.971 57.5594 218.514 57.4692 218.786 57.1083L219.102 56.7023C219.374 56.3415 219.284 55.8001 218.921 55.5295L213.263 51.3795L212.448 50.7479C212.674 50.2066 212.81 49.6653 212.81 49.0338C212.81 46.7332 210.909 44.8386 208.6 44.8386C206.337 44.8837 204.435 46.7783 204.435 49.0789ZM205.341 49.0789C205.341 47.2745 206.789 45.831 208.6 45.831C210.411 45.831 211.859 47.2745 211.859 49.0789C211.859 50.8833 210.411 52.3267 208.6 52.3267C206.835 52.3267 205.341 50.8833 205.341 49.0789Z" fill="white"/>
<path d="M71.9779 94.8195H0V22.1937H71.9779V94.8195ZM0.995921 93.7819H70.9367V23.1861H0.995921V93.7819Z" fill="#D1DFEB"/>
<path d="M67.5868 27.1558H4.70801V89.8124H67.5868V27.1558Z" fill="#D1DFEB"/>
<path d="M40.7999 52.4161C43.412 46.1324 40.4175 38.9285 34.1115 36.3256C27.8056 33.7228 20.576 36.7067 17.964 42.9904C15.3519 49.2741 18.3464 56.4781 24.6524 59.0809C30.9583 61.6838 38.1879 58.6998 40.7999 52.4161Z" fill="#B0C6D9"/>
<path d="M67.5867 76.3246C67.5867 76.3246 63.6483 71.949 55.6809 71.4528C47.7135 70.9566 45.1785 77.8583 34.5402 78.2643C25.2148 78.6252 22.0912 68.7012 13.3995 68.7012C9.41585 68.7012 6.24702 71.4979 4.6626 74.43V89.8574H67.5414V76.3246H67.5867Z" fill="#B0C6D9"/>
<path d="M295.517 304.802C295.924 306.156 296.422 309.178 296.422 309.178C297.192 309.088 297.645 312.2 297.645 312.922C297.645 313.644 277.771 318.245 275.1 318.155C274.15 318.11 273.788 314.501 274.331 314.366C275.282 312.11 279.944 308.998 282.615 307.374L295.517 304.802Z" fill="#323487"/>
<path d="M274.331 314.547C281.212 314.411 296.332 309.359 296.513 309.313C296.558 309.313 296.603 309.223 296.603 309.178C296.603 309.133 296.513 309.088 296.468 309.088C296.332 309.133 281.212 314.186 274.376 314.321C274.331 314.321 274.24 314.366 274.24 314.456C274.195 314.501 274.24 314.547 274.331 314.547Z" fill="white"/>
<path d="M284.064 309.133C284.109 309.133 284.154 309.088 284.154 309.043C284.2 308.998 284.154 308.907 284.109 308.907C284.064 308.862 282.525 308.276 281.348 308.276C281.302 308.276 281.212 308.321 281.212 308.411C281.212 308.456 281.257 308.547 281.348 308.547C282.434 308.501 283.973 309.133 284.064 309.133C284.019 309.133 284.019 309.133 284.064 309.133Z" fill="#FCFAFC"/>
<path d="M281.71 310.396C281.755 310.396 281.8 310.351 281.8 310.306C281.846 310.261 281.8 310.17 281.71 310.17L279.627 309.404C279.582 309.404 279.492 309.404 279.492 309.494C279.446 309.539 279.492 309.629 279.582 309.629L281.71 310.396Z" fill="#FCFAFC"/>
<path d="M279.763 311.524C279.809 311.524 279.854 311.479 279.899 311.434C279.899 311.389 279.899 311.298 279.809 311.298L277.817 310.622C277.771 310.622 277.681 310.622 277.681 310.712C277.681 310.757 277.681 310.847 277.771 310.847L279.763 311.524Z" fill="#FCFAFC"/>
<path d="M290.537 294.066L297.644 305.659L282.887 312.29V302.502L290.537 294.066Z" fill="#323487"/>
<path d="M273.561 99.5558C274.195 101.541 274.919 104.924 271.932 109.48C268.944 114.036 285.558 108.307 285.558 108.307L284.2 98.2927L273.561 99.5558Z" fill="#3C5263"/>
<path d="M275.01 67.4832C285.195 66.4908 290.401 82.5496 288.092 90.8497C285.784 99.1498 276.322 101.18 274.376 101.089C272.429 100.999 269.94 98.9694 267.993 94.6389C266.046 90.3084 267.269 88.0078 265.503 83.542C263.692 79.1213 262.923 68.656 275.01 67.4832Z" fill="#F6B286"/>
<path d="M273.199 86.0232C273.199 86.6548 273.607 87.1511 274.059 87.1511C274.512 87.1511 274.919 86.6548 274.919 86.0232C274.919 85.3916 274.512 84.8954 274.059 84.8954C273.561 84.8954 273.199 85.3916 273.199 86.0232Z" fill="#3C5263"/>
<path d="M266.409 86.7449C266.409 87.3314 266.726 87.8276 267.043 87.8276C267.359 87.8276 267.631 87.3314 267.631 86.6998C267.631 86.1133 267.314 85.6171 266.997 85.6171C266.635 85.6171 266.363 86.1133 266.409 86.7449Z" fill="#3C5263"/>
<path d="M272.791 83.9482C272.882 83.9482 272.973 83.9482 273.063 83.9031C273.154 83.858 273.652 83.7227 275.598 83.9482H275.689C276.006 83.9933 276.322 83.7678 276.368 83.4069C276.413 83.0911 276.187 82.7753 275.825 82.7301H275.734C274.059 82.5497 273.063 82.5497 272.565 82.7753C272.248 82.9106 272.158 83.2715 272.294 83.5873C272.339 83.8129 272.565 83.9482 272.791 83.9482Z" fill="#3C5263"/>
<path d="M267.54 318.742C270.075 319.329 290.13 318.832 290.265 318.111C290.401 317.434 290.582 314.321 289.858 314.276C289.858 314.276 289.994 311.253 289.858 309.855H276.911C276.594 309.945 276.232 310.08 275.87 310.216C275.643 310.306 275.372 310.396 275.1 310.486C274.693 310.622 274.285 310.802 273.878 310.983C273.652 311.073 273.471 311.163 273.244 311.253C272.837 311.434 272.384 311.614 271.977 311.84C271.75 311.975 271.524 312.065 271.252 312.201C269.577 313.058 268.129 314.005 267.495 314.953C266.997 314.953 266.68 318.517 267.54 318.742Z" fill="#283642"/>
<path d="M273.652 315.448C280.849 315.448 289.767 314.366 289.903 314.366C289.948 314.366 289.994 314.275 289.994 314.23C289.994 314.185 289.903 314.14 289.858 314.14C289.722 314.14 274.195 316.035 267.586 314.817C267.54 314.817 267.45 314.862 267.45 314.907C267.45 314.952 267.495 315.042 267.54 315.042C269.17 315.358 271.298 315.448 273.652 315.448Z" fill="white"/>
<path d="M275.146 310.531C275.146 310.712 275.281 310.847 275.417 310.847C276.458 311.073 277.771 311.93 277.816 311.93C277.862 311.975 277.952 311.975 277.997 311.975C278.133 311.975 278.224 311.93 278.314 311.795C278.405 311.614 278.36 311.389 278.224 311.298C278.179 311.253 277.002 310.486 275.915 310.171C275.643 310.306 275.372 310.396 275.146 310.531Z" fill="#FCFAFC"/>
<path d="M273.29 311.253C273.29 311.389 273.335 311.479 273.471 311.569L275.327 312.697C275.372 312.742 275.462 312.742 275.508 312.742C275.644 312.742 275.734 312.697 275.825 312.562C275.915 312.381 275.87 312.156 275.689 312.065L273.923 310.983C273.697 311.073 273.516 311.163 273.29 311.253Z" fill="#FCFAFC"/>
<path d="M271.298 312.201C271.343 312.246 271.388 312.291 271.433 312.336L273.199 313.374C273.244 313.419 273.335 313.419 273.38 313.419C273.516 313.419 273.606 313.374 273.697 313.238C273.787 313.058 273.742 312.832 273.561 312.742L271.977 311.84C271.796 311.975 271.569 312.065 271.298 312.201Z" fill="#FCFAFC"/>
<path d="M266.092 85.1211C266.182 85.1211 266.318 85.076 266.409 85.0309C266.635 84.9406 267.45 84.7602 267.631 84.8504C267.948 84.9858 268.265 84.8504 268.401 84.5346C268.536 84.2188 268.401 83.8579 268.084 83.7226C267.45 83.4519 266.092 83.8128 265.73 84.0384C265.458 84.2188 265.367 84.5797 265.549 84.8504C265.73 85.0309 265.911 85.1211 266.092 85.1211Z" fill="#3C5263"/>
<path d="M299.455 186.075C299.5 194.511 293.434 210.524 291.85 216.84C290.265 223.155 288.953 252.837 288.409 258.114C287.866 263.392 291.85 310.667 291.85 310.667C291.85 310.667 275.508 311.975 271.796 310.667C272.837 304.893 273.561 302.502 273.561 302.502C273.561 302.502 255.951 262.31 253.597 257.302C251.243 252.295 251.47 247.063 252.013 240.206C252.556 233.395 257.038 189.278 257.038 189.278L293.163 184.09L299.455 186.075Z" fill="#323487"/>
<path d="M273.561 302.727C273.697 302.727 273.788 302.637 273.788 302.502C275.055 291.225 270.89 259.693 269.351 255.363C268.446 252.747 268.31 246.476 268.22 240.928C268.174 237.049 268.084 233.395 267.767 231.229C267.043 226.448 263.828 196.405 263.828 190.767C263.828 190.631 263.738 190.541 263.602 190.541C263.466 190.541 263.376 190.631 263.376 190.767C263.376 196.405 266.635 226.493 267.314 231.32C267.631 233.44 267.676 237.094 267.767 240.973C267.857 246.837 267.948 252.882 268.899 255.543C270.438 259.829 274.557 291.225 273.29 302.457C273.335 302.592 273.425 302.727 273.561 302.727Z" fill="#323487"/>
<path d="M269.849 92.2487H270.936C271.071 92.2487 271.162 92.1585 271.162 92.0232C271.162 91.8878 271.071 91.7976 270.936 91.7976H269.849C269.623 91.7976 269.397 91.7074 269.261 91.4818C269.08 91.2562 269.08 90.9855 269.17 90.6697C269.351 90.0833 269.532 88.9103 269.713 87.196C269.713 87.0606 269.623 86.9253 269.487 86.9253C269.351 86.9253 269.215 87.0155 269.215 87.1509C269.034 89.2261 268.808 90.1284 268.717 90.5344C268.582 90.9855 268.627 91.4367 268.899 91.7976C269.125 92.0683 269.442 92.2487 269.849 92.2487Z" fill="#BA8567"/>
<path d="M280.171 104.292C277.817 105.736 271.57 106.909 266.59 113.314C261.565 119.675 256.359 130.681 253.688 135.508C251.606 139.252 248.482 146.018 254.186 150.619C257.264 153.1 258.758 153.732 258.758 153.732C258.758 153.732 257.174 183.414 257.083 189.323C265.775 189.233 280.261 190.045 284.924 190.812C289.587 191.533 295.517 190.09 299.455 188.376C299.772 180.572 295.879 169.565 295.97 163.34C296.196 147.823 304.118 137.673 306.789 130.275C309.46 122.877 308.69 120.441 307.196 116.562C305.702 112.637 289.406 102.307 289.406 102.307L280.171 104.292Z" fill="#FFC727"/>
<path d="M277.726 97.0749C278.269 99.0597 280.171 103.345 280.171 104.292C280.171 105.24 278.948 106.728 282.389 108.217C287.278 110.337 292.936 106.909 294.702 103.48C296.332 100.232 286.825 88.2786 286.825 88.2786L277.726 97.0749Z" fill="#F6B286"/>
<path d="M278.948 100.323C278.994 100.323 278.994 100.323 279.039 100.323C281.8 99.2852 286.735 96.6689 288.319 90.9401C288.364 90.8047 288.274 90.6694 288.138 90.6243C288.002 90.5792 287.866 90.6694 287.821 90.8047C286.282 96.3531 281.529 98.8793 278.812 99.8717C278.677 99.9168 278.631 100.052 278.677 100.187C278.767 100.278 278.858 100.323 278.948 100.323Z" fill="#BA8567"/>
<path d="M306.744 130.275C306.97 125.855 308.418 116.742 303.031 112.051C298.731 108.307 293.163 108.487 290.492 101.09C287.821 93.6917 287.414 88.5041 286.78 88.2335C286.146 87.9628 286.282 84.9405 285.014 84.3541C279.039 81.4671 275.689 73.979 275.689 73.979C273.561 74.8361 269.894 74.8361 267.857 76.2796C265.82 77.7682 264.96 78.941 264.553 80.0687C263.059 77.0915 263.33 68.0246 272.746 65.0925C282.162 62.1153 287.64 64.5512 292.303 70.2349C296.151 74.9263 298.052 86.9253 299.41 92.0227C300.768 97.12 302.986 101.09 308.464 106.728C314.032 112.322 317.472 126.712 306.744 130.275Z" fill="#3C5263"/>
<path d="M285.014 86.0234C285.014 87.6024 285.874 88.9107 286.915 88.9107C287.957 88.9107 288.817 87.6024 288.817 86.0234C288.817 84.4444 287.957 83.1361 286.915 83.1361C285.874 83.1361 285.014 84.4444 285.014 86.0234Z" fill="#F6B286"/>
<path d="M290.582 148.996C292.665 148.905 294.838 149.266 295.562 149.582C296.286 149.853 298.278 152.198 298.414 152.92C298.55 153.642 298.188 154.454 297.463 154.454C297.735 155.942 297.327 156.799 296.784 157.837C296.286 158.784 295.155 158.784 295.155 157.837C294.883 159.235 294.249 159.686 293.253 159.416C292.891 160.634 292.031 160.543 291.669 160.408C291.352 160.273 291.126 159.867 291.216 158.694C291.307 157.882 291.397 157.431 290.809 157.566C289.722 157.792 284.878 156.393 284.878 156.393L290.582 148.996Z" fill="#F6B286"/>
<path d="M297.463 154.589C297.508 154.589 297.508 154.589 297.463 154.589C297.554 154.589 297.599 154.499 297.599 154.454C297.011 151.928 294.385 151.296 293.932 151.296C293.887 151.296 293.796 151.341 293.796 151.431C293.796 151.476 293.842 151.567 293.932 151.567C294.385 151.567 296.829 152.153 297.373 154.544C297.373 154.544 297.418 154.589 297.463 154.589Z" fill="#BA8567"/>
<path d="M295.154 157.973C295.2 157.973 295.245 157.928 295.29 157.882C295.607 156.484 295.562 155.627 295.109 154.95C294.657 154.273 293.389 153.416 292.348 152.83C292.302 152.785 292.212 152.83 292.167 152.875C292.121 152.92 292.167 153.01 292.212 153.055C293.253 153.642 294.475 154.499 294.883 155.131C295.29 155.717 295.336 156.529 295.019 157.882C295.064 157.882 295.064 157.973 295.154 157.973Z" fill="#BA8567"/>
<path d="M246.807 98.5635L245.992 98.789L246.173 99.2853L246.762 99.1951L246.807 98.5635Z" fill="#544D44"/>
<path d="M251.787 117.735L257.943 118.096C258.577 118.141 259.03 117.554 258.849 116.968L254.096 99.5558C254.005 99.195 253.643 98.9243 253.281 98.8792L247.124 98.5183C246.49 98.4732 246.038 99.0596 246.219 99.646L250.972 117.058C251.062 117.464 251.379 117.735 251.787 117.735Z" fill="#544D44"/>
<path d="M250.836 118.005L256.993 118.366C257.626 118.411 258.079 117.825 257.898 117.239L253.145 99.8265C253.054 99.4656 252.692 99.1949 252.33 99.1498L246.173 98.7889C245.54 98.7438 245.087 99.3303 245.268 99.9167L250.021 117.329C250.112 117.69 250.474 117.96 250.836 118.005Z" fill="#3C5263"/>
<path d="M293.253 159.551C293.299 159.551 293.344 159.506 293.389 159.461C293.615 158.604 293.751 157.07 293.48 156.664C293.299 156.393 292.755 155.987 292.122 155.536C291.85 155.356 291.578 155.13 291.352 154.95C291.307 154.905 291.216 154.905 291.171 154.95C291.126 154.995 291.126 155.085 291.171 155.13C291.443 155.311 291.714 155.536 291.986 155.717C292.574 156.168 293.163 156.574 293.299 156.8C293.48 157.07 293.389 158.379 293.163 159.416C293.117 159.461 293.163 159.506 293.253 159.551Z" fill="#BA8567"/>
<path d="M264.462 124.321C264.553 124.321 264.643 124.276 264.689 124.185C265.775 121.704 270.076 115.299 271.615 113.495C271.705 113.404 271.705 113.224 271.569 113.179C271.479 113.089 271.298 113.089 271.253 113.224C269.713 115.028 265.368 121.524 264.281 124.05C264.236 124.185 264.281 124.321 264.417 124.366C264.372 124.321 264.417 124.321 264.462 124.321Z" fill="#B09B1C"/>
<path d="M265.458 126.215C265.458 126.215 262.968 121.84 262.651 121.073C262.289 120.261 262.697 118.727 262.244 116.968C261.927 115.795 259.709 112.277 257.491 111.69C257.491 111.69 257.853 113.089 258.17 114.442C256.54 114.938 252.285 110.563 251.017 109.931C249.75 109.3 249.161 109.796 249.659 110.743C248.165 109.3 247.667 109.796 247.396 109.931C247.124 110.066 247.169 110.517 247.667 111.42C248.165 112.277 249.523 114.036 249.885 114.758C249.252 114.803 248.708 115.073 248.708 115.705C248.708 116.337 250.067 118.457 250.655 119.449C251.244 120.441 251.696 121.659 253.281 123.374C254.865 125.088 257.626 126.847 258.215 127.569C258.803 128.29 260.886 131.583 260.886 131.583L265.458 126.215Z" fill="#F6B286"/>
<path d="M258.894 115.615C258.939 115.615 259.03 115.615 259.075 115.57C259.166 115.48 259.166 115.344 259.075 115.209C258.577 114.667 258.306 114.307 258.306 114.307C258.215 114.216 258.079 114.171 257.989 114.261C257.898 114.352 257.853 114.487 257.943 114.577C257.943 114.577 258.215 114.983 258.758 115.57C258.758 115.57 258.849 115.615 258.894 115.615Z" fill="#BA8567"/>
<path d="M254.005 115.615C254.05 115.615 254.141 115.615 254.186 115.57C254.277 115.48 254.277 115.345 254.186 115.209L249.75 110.517C249.659 110.427 249.523 110.427 249.387 110.517C249.297 110.608 249.297 110.743 249.387 110.878L253.824 115.57C253.869 115.57 253.914 115.615 254.005 115.615Z" fill="#BA8567"/>
<path d="M252.058 117.239C252.104 117.239 252.194 117.194 252.239 117.149C252.33 117.058 252.33 116.923 252.239 116.788L249.976 114.577C249.885 114.487 249.75 114.487 249.614 114.577C249.523 114.667 249.523 114.803 249.614 114.938L251.877 117.149C251.923 117.239 251.968 117.239 252.058 117.239Z" fill="#BA8567"/>
<path d="M257.174 131.268C260.795 142.725 271.66 158.874 275.463 161.852C279.265 164.829 282.57 163.205 286.916 157.927C291.261 152.649 305.25 126.441 305.567 122.02H289.043C286.056 125.809 277.726 142.68 277.726 142.68C277.726 142.68 267.45 128.065 265.73 125.088C265.005 126.17 260.252 130.05 257.174 131.268Z" fill="#FFC727"/>
<path d="M279.174 163.566C281.574 163.566 284.064 161.806 287.097 158.107C291.623 152.604 305.476 126.486 305.793 122.065C305.793 121.93 305.702 121.84 305.566 121.795C305.431 121.795 305.34 121.885 305.295 122.02C304.978 126.26 290.99 152.559 286.689 157.792C282.208 163.295 279.084 164.378 275.598 161.671C271.931 158.829 262.063 142.68 258.305 131.042C261.112 129.869 264.553 126.847 265.684 125.539C267.812 129.057 277.409 142.68 277.5 142.815L277.726 143.131L277.907 142.77C277.998 142.59 286.282 125.9 289.224 122.155C289.315 122.065 289.269 121.885 289.179 121.84C289.088 121.749 288.907 121.795 288.862 121.885C286.101 125.403 278.948 139.658 277.681 142.184C276.141 139.974 267.495 127.614 265.956 124.952L265.775 124.636L265.548 124.952C264.779 126.035 260.976 129.463 257.989 130.636L257.762 130.726L257.807 130.952C261.52 142.68 271.615 159.145 275.327 162.032C276.639 163.069 277.907 163.566 279.174 163.566Z" fill="#B09B1C"/>
<path d="M280.714 148.906C280.895 148.906 280.985 148.771 280.94 148.635C280.759 147.237 279.627 144.981 277.952 142.545C277.862 142.455 277.726 142.41 277.635 142.5C277.545 142.59 277.5 142.725 277.59 142.816C279.265 145.207 280.306 147.327 280.533 148.68C280.487 148.816 280.578 148.906 280.714 148.906Z" fill="#B09B1C"/>
<path d="M270.211 158.108C270.845 158.108 271.388 157.973 271.705 157.657C271.796 157.567 271.796 157.431 271.75 157.341C271.66 157.251 271.524 157.251 271.433 157.296C269.94 158.559 263.783 155.762 260.116 154.093C259.663 153.912 259.256 153.687 258.894 153.506C258.758 153.461 258.622 153.506 258.577 153.642C258.532 153.777 258.577 153.912 258.713 153.958C259.12 154.138 259.528 154.318 259.935 154.499C264.055 156.394 267.948 158.108 270.211 158.108Z" fill="#B09B1C"/>
<path d="M259.935 141.417C260.026 141.417 260.116 141.327 260.162 141.237C260.207 141.102 260.116 140.966 259.981 140.921C259.573 140.786 259.166 140.65 258.758 140.515C257.355 140.019 255.906 139.523 254.684 139.974C254.548 140.019 254.503 140.154 254.548 140.29C254.593 140.425 254.729 140.47 254.865 140.425C255.906 140.064 257.219 140.515 258.622 140.966C259.03 141.102 259.483 141.237 259.89 141.372C259.89 141.417 259.89 141.417 259.935 141.417Z" fill="#B09B1C"/>
<path d="M275.734 73.0778C275.779 73.0778 275.87 73.0327 275.87 72.9424C275.87 71.9499 277.409 65.6791 277.409 65.634C277.409 65.5889 277.364 65.4987 277.319 65.4987C277.273 65.4987 277.183 65.5438 277.183 65.5889C277.138 65.8596 275.598 71.9048 275.598 72.9424C275.598 73.0327 275.644 73.0778 275.734 73.0778Z" fill="#0A0A0A"/>
<path d="M272.113 96.6692C274.602 96.6692 275.96 94.6391 275.96 94.5939L275.372 94.233C275.281 94.3233 273.652 96.8045 270.619 95.7218L270.392 96.3534C271.026 96.579 271.615 96.6692 272.113 96.6692Z" fill="#3C5263"/>
<path d="M28.3838 295.33C28.3838 295.781 28.4291 296.187 28.4743 296.638C28.5196 296.863 28.5196 297.089 28.5649 297.314C29.5155 302.502 33.7708 307.374 34.5857 308.096C35.7174 309.088 39.5653 309.674 43.0057 309.674C46.4462 309.674 52.5575 309.178 53.644 308.096C54.4588 307.284 57.0844 302.908 58.2161 298.713C58.2614 298.487 58.3519 298.262 58.3972 298.036C58.6688 296.999 58.8046 295.961 58.8046 294.969C58.8046 294.067 58.6236 293.074 58.3519 292.082C58.3067 291.901 58.2614 291.721 58.1709 291.541C56.8128 287.39 53.7798 283.015 53.6892 281.03C53.6892 281.03 49.5697 282.654 44.4091 282.654C39.2031 282.654 34.1782 281.03 34.1782 281.03C33.7708 283.331 30.602 287.21 29.1534 291.45C29.1081 291.631 29.0176 291.811 28.9723 291.992C28.6101 293.119 28.3838 294.202 28.3838 295.33Z" fill="#D1DFEB"/>
<path d="M33.2275 281.526C33.2275 282.564 37.9355 283.421 43.7752 283.421C49.615 283.421 54.3229 282.564 54.3229 281.526C54.3229 280.489 49.615 279.632 43.7752 279.632C37.9355 279.632 33.2275 280.489 33.2275 281.526Z" fill="#D1DFEB"/>
<path d="M34.7214 281.526C34.7214 282.023 38.0261 282.429 42.3719 282.519C42.5983 282.519 42.7793 282.519 43.0057 282.519C43.232 282.519 43.4131 282.519 43.6395 282.519C43.6847 282.519 43.73 282.519 43.7753 282.519C44.0016 282.519 44.2279 282.519 44.409 282.519C44.4996 282.519 44.5901 282.519 44.6806 282.519C44.907 282.519 45.0881 282.519 45.3144 282.519C45.6313 282.519 45.9934 282.519 46.3103 282.474C46.5367 282.474 46.763 282.474 46.9441 282.429C50.2035 282.293 52.5575 281.932 52.5575 281.481C52.5575 281.075 50.2487 280.714 46.9894 280.579C46.763 280.579 46.5819 280.579 46.3556 280.534C45.9934 280.534 45.6313 280.489 45.2239 280.489C44.9975 280.489 44.8164 280.489 44.5901 280.489C44.4543 280.489 44.3185 280.489 44.1827 280.489C44.0016 280.489 43.8205 280.489 43.5942 280.489H43.5036C43.232 280.489 43.0057 280.489 42.7341 280.489C42.5077 280.489 42.2814 280.489 42.1003 280.489C37.9355 280.624 34.7214 281.03 34.7214 281.526Z" fill="#B0C6D9"/>
<path d="M46.2651 282.474C46.4915 282.474 46.7178 282.474 46.8989 282.428C46.8989 281.887 46.9442 281.256 46.9442 280.579C47.2611 269.798 49.1171 245.89 50.5657 239.259C52.1049 232.222 53.7345 230.372 53.7798 230.372L53.2818 230.012C53.1913 230.102 51.5164 231.996 49.9319 239.169C48.4833 245.8 46.6273 269.753 46.3104 280.579C46.3104 281.256 46.2651 281.932 46.2651 282.474Z" fill="#B0C6D9"/>
<path d="M42.5981 232.944C42.5981 233.169 44.1373 254.145 44.1373 262.445C44.1373 267.723 44.3636 275.527 44.59 280.534C44.6353 281.256 44.6353 281.932 44.6805 282.519C44.9069 282.519 45.0879 282.519 45.3143 282.519C45.269 281.932 45.269 281.256 45.2238 280.579C45.0427 275.572 44.7711 267.768 44.7711 262.49C44.7711 254.145 43.2319 233.169 43.2319 232.944H42.5981Z" fill="#B0C6D9"/>
<path d="M42.4625 261.362C42.372 269.121 43.051 275.888 43.549 280.534C43.549 280.759 43.5942 280.94 43.5942 281.12C43.6395 281.616 43.6848 282.068 43.73 282.519C43.9564 282.519 44.1827 282.519 44.3638 282.519C44.3185 282.068 44.2733 281.571 44.228 281.075C44.228 280.895 44.1827 280.714 44.1827 280.534C43.6848 275.888 43.051 269.121 43.0963 261.362C43.2321 248.416 42.8247 246.116 41.8287 243.635L41.2402 243.815C42.1456 246.116 42.5983 247.875 42.4625 261.362Z" fill="#B0C6D9"/>
<path d="M37.4375 264.836C37.4828 264.926 41.0138 272.189 42.1455 280.579C42.236 281.211 42.3266 281.887 42.3718 282.564C42.5982 282.564 42.7793 282.564 43.0056 282.564C42.9603 281.887 42.8698 281.256 42.7793 280.579C41.6475 272.053 38.0713 264.655 38.026 264.565L37.4375 264.836Z" fill="#B0C6D9"/>
<path d="M49.615 228.478C50.9731 231.5 50.8373 231.365 52.3764 232.222C53.3271 232.718 58.3519 229.335 60.1627 228.478C60.4343 228.343 60.8417 227.891 61.2944 227.125C61.3397 227.08 61.385 226.989 61.4302 226.944C62.1093 225.862 62.9241 224.283 63.7842 222.478C63.8295 222.433 63.8295 222.343 63.8748 222.298C64.418 221.17 65.0065 219.952 65.5497 218.689C65.595 218.644 65.595 218.554 65.6403 218.509C66.1382 217.426 66.6362 216.344 67.0889 215.306C67.1342 215.261 67.1342 215.171 67.1794 215.126C67.6774 214.043 68.1301 213.005 68.5375 212.103C68.5828 212.058 68.5828 211.968 68.628 211.923C69.126 210.795 69.5787 209.803 69.8956 209.036C69.9408 208.991 69.9408 208.901 69.9861 208.855C70.1672 208.449 70.303 208.089 70.4388 207.863C70.7104 207.277 70.8462 206.374 70.8009 205.337C70.8009 205.292 70.8009 205.202 70.8009 205.156C70.7557 204.254 70.6651 203.307 70.4841 202.36C70.4841 202.315 70.4388 202.224 70.4388 202.179C69.8956 199.563 68.9449 197.172 68.1753 197.307C68.2206 199.788 66.8173 202.044 66.093 203.487C66.093 203.487 66.0024 203.623 65.8666 203.893C66.0477 202.495 65.6403 199.698 65.3687 198.074C64.2822 198.48 62.9694 199.067 61.5661 199.969C61.5208 200.014 61.4302 200.059 61.385 200.059C60.7512 200.465 60.0722 200.961 59.3931 201.503C59.3479 201.548 59.3026 201.593 59.2573 201.638C58.533 202.224 57.854 202.901 57.1297 203.668C57.0844 203.713 57.0391 203.758 56.9939 203.848L56.9486 203.893C56.2243 204.705 55.5453 205.472 54.8662 206.239C54.821 206.284 54.7757 206.374 54.7304 206.42C53.7798 207.547 52.9197 208.63 52.1501 209.667C52.1048 209.712 52.0595 209.803 52.0143 209.848C51.2447 210.885 50.5657 211.878 49.9772 212.78C49.9319 212.87 49.8866 212.915 49.8414 213.005C49.1623 214.043 48.6191 215.035 48.2569 215.802C48.2117 215.892 48.1664 215.983 48.1211 216.073C47.9853 216.389 47.8495 216.704 47.759 216.93C47.0799 218.689 48.2117 225.41 49.615 228.478Z" fill="#323487"/>
<path d="M52.4216 231.771C52.4669 231.636 56.2242 219.456 58.5782 215.802C60.57 212.78 64.3726 206.6 65.9118 204.074L65.5949 203.893C64.0557 206.42 60.2079 212.599 58.2613 215.622C57.2654 217.156 55.9073 220.313 54.2323 225.05C53.0101 228.568 52.0594 231.636 52.0142 231.681L52.4216 231.771Z" fill="#B0C6D9"/>
<path d="M63.8296 207.051V207.232C64.8255 207.187 68.6281 206.059 70.7105 205.427C70.7105 205.382 70.7105 205.292 70.7105 205.247C68.6734 205.833 64.7802 207.006 63.8296 207.051Z" fill="#B0C6D9"/>
<path d="M62.1545 209.893C62.2451 209.893 62.3356 209.893 62.4714 209.893C64.0106 209.893 67.7679 209.397 69.805 209.081C69.8503 209.036 69.8503 208.946 69.8956 208.901C67.7226 209.216 63.3768 209.803 62.1545 209.713V209.893Z" fill="#B0C6D9"/>
<path d="M55.1831 223.02C55.2736 223.02 55.3642 223.02 55.5 223.02C57.4013 223.02 61.7019 222.659 63.739 222.478C63.7842 222.433 63.7842 222.343 63.8295 222.298C61.7019 222.478 56.9033 222.884 55.1831 222.839V223.02Z" fill="#B0C6D9"/>
<path d="M53.5081 227.756C53.7797 227.801 54.1418 227.801 54.504 227.801C56.5864 227.801 59.7552 227.35 61.2491 227.125C61.2943 227.079 61.3396 226.989 61.3849 226.944C59.7099 227.215 55.4546 227.801 53.5533 227.576L53.5081 227.756Z" fill="#B0C6D9"/>
<path d="M61.249 200.149C61.6112 202.495 62.3355 206.736 63.0598 208.18L63.2409 208.089C62.5166 206.646 61.7923 202.315 61.4301 200.014C61.3848 200.059 61.3396 200.104 61.249 200.149Z" fill="#B0C6D9"/>
<path d="M59.1216 201.728C59.6195 203.939 60.8871 209.127 61.5208 210.706L61.7019 210.661C61.0682 209.082 59.8006 203.758 59.3027 201.638C59.2574 201.638 59.2121 201.683 59.1216 201.728Z" fill="#B0C6D9"/>
<path d="M49.7056 213.141C49.9772 214.268 50.4299 216.343 51.0184 218.464C52.1954 222.794 53.1913 225.41 54.0061 226.222L54.1419 226.132C52.467 224.463 50.4299 215.531 49.8414 212.915C49.7961 213.005 49.7508 213.05 49.7056 213.141Z" fill="#B0C6D9"/>
<path d="M47.9854 216.208C48.2117 217.156 48.6191 218.779 49.1171 220.629C49.8867 223.426 51.1542 227.35 52.6028 230.237L52.7839 230.147C51.3353 227.26 50.0677 223.381 49.2982 220.584C48.7097 218.554 48.3022 216.84 48.0759 215.938C48.0306 216.028 48.0306 216.118 47.9854 216.208Z" fill="#B0C6D9"/>
<path d="M37.5735 226.493C39.7011 229.515 42.7794 234.026 42.7794 234.026C44.4544 233.395 49.0718 229.155 50.5657 223.651C51.9238 218.734 49.8867 201.954 48.0759 197.037C46.6726 197.849 45.1334 198.976 44.8618 200.149C45.3598 198.029 45.8577 196.09 46.2199 194.872C44.5449 193.969 42.5984 194.646 41.693 196.27C40.5612 198.3 35.9438 218.554 35.4006 220.629C34.9026 222.704 35.4458 223.426 37.5735 226.493Z" fill="#323487"/>
<path d="M42.9603 234.026C43.413 230.643 43.3677 224.373 43.3224 218.825C43.2772 215.802 43.2772 212.915 43.3224 210.84C43.3677 208.45 44.0015 204.841 45.0879 200.195C45.5859 198.029 46.0839 196.135 46.446 194.917L46.0839 194.827C45.767 196.044 45.2238 197.939 44.7258 200.104C43.5941 204.796 43.0056 208.404 42.9603 210.84C42.915 212.96 42.915 215.802 42.9603 218.87C43.0056 224.418 43.0961 230.643 42.5981 234.026H42.9603Z" fill="#B0C6D9"/>
<path d="M19.4205 219.636C19.4205 219.682 19.4205 219.772 19.4205 219.817C19.4658 220.539 19.6016 221.306 19.8732 222.163C19.8732 222.208 19.9185 222.298 19.9185 222.343C20.2354 223.245 20.6881 224.147 21.3218 225.14C21.5029 225.41 21.684 225.726 21.9103 226.042C21.9556 226.087 22.0009 226.132 22.0462 226.222C22.6799 227.17 23.4042 228.252 24.2191 229.38C24.2643 229.425 24.3096 229.515 24.3549 229.56C25.0792 230.598 25.8035 231.636 26.5731 232.718C26.6183 232.763 26.6636 232.853 26.7089 232.899C27.4332 233.936 28.1575 234.974 28.8365 235.921C28.8818 235.966 28.9271 236.011 28.9723 236.101C29.8777 237.41 30.7378 238.582 31.4621 239.53C31.5074 239.575 31.5527 239.665 31.5979 239.71C32.3675 240.748 32.956 241.469 33.2729 241.83C34.6762 243.454 38.9315 245.755 41.7835 244.401C42.6889 243.95 44.3186 240.116 43.549 235.289C43.549 235.199 43.5037 235.154 43.5037 235.064C43.2774 233.711 42.8699 232.267 42.1909 230.824C42.1456 230.778 42.1456 230.688 42.1004 230.643C41.9646 230.418 41.874 230.147 41.7382 229.921C41.1497 228.794 40.5612 227.756 39.9727 226.809C39.9275 226.764 39.9275 226.719 39.8822 226.628C39.0221 225.23 38.162 224.057 37.3924 223.065C37.3471 223.02 37.3018 222.975 37.2566 222.929C36.5323 222.027 35.8985 221.26 35.31 220.629C35.2647 220.584 35.2195 220.539 35.1742 220.494C34.3593 219.591 33.7256 219.05 33.454 218.779C33.2276 218.554 32.6844 218.238 31.9601 217.877C31.9148 217.832 31.8695 217.832 31.779 217.787C30.7831 217.336 29.4703 216.795 28.248 216.298C28.2028 216.298 28.1575 216.253 28.0669 216.253C27.1163 215.892 26.2109 215.532 25.4866 215.306C24.9434 216.344 24.536 217.922 24.8076 220.133C23.7664 218.283 23.3137 216.073 23.0873 214.539C22.0009 214.223 21.1408 214.178 20.507 215.035C20.1448 215.712 19.33 217.381 19.4205 219.636Z" fill="#323487"/>
<path d="M41.5572 244.356L41.9193 244.266C41.0592 240.973 31.1905 228.072 26.9805 222.569C26.4825 221.892 26.0751 221.351 25.7582 220.99C25.5319 220.674 25.3056 220.313 25.0792 219.952C24.038 218.103 23.5853 215.892 23.359 214.404L22.9968 214.449C23.2232 215.983 23.6759 218.238 24.7171 220.133C24.9434 220.494 25.1697 220.854 25.3961 221.215C25.6677 221.576 26.0751 222.117 26.6184 222.794C30.5115 227.801 40.6971 241.154 41.5572 244.356Z" fill="#B0C6D9"/>
<path d="M38.5693 266.685C40.7875 265.377 43.6847 261.994 43.6847 260.55C43.6847 259.107 34.6762 252.656 33.6803 251.529C33.6803 251.529 33.0012 253.333 32.3674 253.604C31.7337 253.874 32.3674 251.303 30.9188 250.266C29.4702 249.228 23.4042 244.582 21.9555 242.101C20.5069 239.62 20.688 239.259 20.2353 239.755C19.7826 240.251 19.6016 241.334 19.6016 241.334C19.6016 241.334 19.2847 239.033 18.6509 238.447C18.0171 237.815 16.9759 238.221 16.7496 239.124C16.5233 240.026 16.6591 242.146 16.7496 243.274C16.8401 244.401 19.511 246.567 21.5029 248.912C23.4947 251.303 32.5033 261.723 34.1782 263.167C35.8984 264.655 38.5693 266.685 38.5693 266.685Z" fill="#323487"/>
<path d="M47.9854 259.423C47.9854 259.423 56.9939 256.761 59.5742 252.521C62.1546 248.281 68.5375 239.485 71.2537 238.041C74.0151 236.598 76.1427 236.056 76.1427 236.056C76.1427 236.056 72.1591 234.613 71.6158 234.703C71.0726 234.793 68.5828 237.094 68.5828 237.094C68.5828 237.094 69.624 233.711 69.0355 233.711C68.4017 233.711 66.093 233.124 64.7802 234.252C63.4674 235.38 63.1505 238.943 63.1505 238.943L62.064 235.199C62.064 235.199 58.5783 237.77 56.5865 239.62C54.5946 241.469 50.792 246.341 50.2488 250.807C49.7508 255.273 47.9854 259.423 47.9854 259.423Z" fill="#323487"/>
<path d="M43.1415 275.346C43.1415 275.346 37.845 269.933 33.4991 268.76C29.1533 267.588 25.0338 266.46 23.3136 270.475C21.6386 274.489 24.898 276.79 26.754 277.376C28.6101 277.918 30.1945 277.918 31.3715 277.376C32.5032 276.835 32.5938 276.925 33.4991 277.782C34.4045 278.639 36.3511 280.308 38.7051 279.857C41.1043 279.361 41.2854 276.068 43.1415 275.346Z" fill="#323487"/>
<path d="M43.1415 276.249C43.1415 276.249 41.8287 270.023 46.1746 266.415C50.5204 262.806 60.4343 260.866 62.4714 260.641L61.5661 263.528C61.5661 263.528 64.5086 262.716 64.8254 261.859C65.1876 260.957 65.8666 262.986 65.2781 265.242C64.6444 267.497 59.6195 273.407 56.3148 274.76C53.0555 276.068 43.1415 276.249 43.1415 276.249Z" fill="#323487"/>
<path d="M43.2319 276.249C43.3225 276.158 53.1911 265.783 61.5659 263.573L61.5206 263.483C57.0843 264.655 52.2405 267.903 48.9811 270.565C45.4501 273.407 42.9603 276.023 42.915 276.068L43.2319 276.249Z" fill="#B0C6D9"/>
<path d="M26.2561 270.339C27.6142 270.835 29.0175 271.377 30.4209 271.783C31.1452 271.963 31.8695 272.144 32.5938 272.234L33.137 272.324L33.4086 272.369L33.6802 272.414L33.9519 272.46L34.2235 272.505C34.4045 272.55 34.5856 272.595 34.7667 272.595C36.2153 272.911 37.6186 273.317 39.022 273.768C39.701 273.993 40.4253 274.264 41.0591 274.535L41.5571 274.76C41.7381 274.851 41.8739 274.896 42.055 274.986C42.1456 275.031 42.2361 275.076 42.2814 275.121L42.5077 275.257C42.5983 275.302 42.6435 275.347 42.7341 275.392L42.9604 275.527L43.1868 275.257L42.9604 275.121C42.8699 275.076 42.7793 275.031 42.7341 274.986L42.5077 274.851C42.4172 274.805 42.3266 274.76 42.2361 274.715C42.055 274.625 41.9192 274.58 41.7381 274.49L41.2402 274.264C40.5611 273.993 39.8368 273.768 39.1578 273.497C37.7545 273.046 36.3058 272.64 34.8572 272.324C34.6762 272.279 34.4951 272.234 34.314 272.234L34.0424 272.189L33.7708 272.144L33.4992 272.099L33.2275 272.053L32.6843 272.008C31.96 271.918 31.2357 271.783 30.5114 271.557C29.1081 271.196 27.75 270.655 26.3466 270.114L26.2561 270.339Z" fill="#B0C6D9"/>
<path d="M17.3833 242.777L22.6345 248.642C24.4 250.581 26.1202 252.566 27.931 254.506C29.7418 256.4 31.462 258.385 33.1822 260.37C34.0423 261.362 34.8572 262.355 35.7173 263.392C36.1247 263.889 36.5321 264.385 36.9396 264.926C37.1206 265.197 37.347 265.422 37.5281 265.693L37.7997 266.099L38.0713 266.505L38.3882 266.324L38.1166 265.918L37.8449 265.512C37.6639 265.242 37.4375 265.016 37.2564 264.746C36.849 264.249 36.4416 263.708 36.0342 263.212C35.2193 262.22 34.3592 261.227 33.4991 260.235C31.7789 258.25 30.0587 256.265 28.2026 254.371C26.4371 252.431 24.6716 250.491 22.9061 248.551L17.6096 242.687L17.3833 242.777Z" fill="#B0C6D9"/>
<path d="M74.0149 236.056C72.6568 236.688 71.2988 237.364 69.986 238.086C68.6732 238.808 67.4056 239.575 66.1381 240.432C65.5043 240.838 64.9158 241.289 64.3273 241.74C63.7388 242.191 63.1503 242.642 62.6071 243.138C61.4754 244.086 60.4795 245.168 59.6193 246.341L59.5288 246.431L59.4383 246.567L59.3025 246.792L59.1667 247.018L59.0308 247.243L58.5329 248.191C58.1707 248.777 57.7633 249.363 57.3106 249.95C56.4505 251.078 55.4999 252.16 54.5039 253.243C53.508 254.325 52.5121 255.363 51.4709 256.355C50.4297 257.348 49.3433 258.34 48.1663 259.242L48.3926 259.513C49.5696 258.611 50.6561 257.618 51.6972 256.581C52.7384 255.543 53.7796 254.506 54.7303 253.423C55.7262 252.341 56.6316 251.258 57.537 250.085C57.9897 249.499 58.3971 248.912 58.7592 248.281L59.2572 247.334L59.393 247.108L59.5288 246.882L59.6646 246.657L59.7552 246.567L59.8457 246.476C60.6605 245.304 61.7017 244.266 62.7882 243.319C63.3314 242.823 63.9199 242.371 64.5084 241.92C65.0969 241.469 65.6854 241.063 66.3192 240.612C67.5414 239.8 68.809 238.988 70.1218 238.267C71.4346 237.545 72.7474 236.823 74.1055 236.192L74.0149 236.056Z" fill="#B0C6D9"/>
<path d="M30.4661 227.531L30.6471 227.622C30.6924 227.576 33.318 223.291 35.3551 220.539C35.3099 220.494 35.2646 220.448 35.2193 220.403C33.1822 223.11 30.6019 227.306 30.4661 227.531Z" fill="#B0C6D9"/>
<path d="M32.6843 230.509L32.8654 230.599C32.9107 230.554 35.4005 225.681 37.3923 222.975C37.347 222.929 37.3018 222.884 37.2565 222.839C36.5775 223.696 35.8079 224.914 34.9025 226.403C33.6802 228.524 32.6843 230.509 32.6843 230.509Z" fill="#B0C6D9"/>
<path d="M37.166 236.779L37.3018 236.869C37.3471 236.824 39.7916 233.485 42.1456 230.778C42.1003 230.733 42.1004 230.643 42.0551 230.598C39.7464 233.26 37.3471 236.553 37.166 236.779Z" fill="#B0C6D9"/>
<path d="M39.3843 239.62L39.5201 239.711C39.5654 239.665 41.6477 237.184 43.5038 235.199C43.5038 235.109 43.4585 235.064 43.4585 234.974C41.6025 236.959 39.5201 239.485 39.3843 239.62Z" fill="#B0C6D9"/>
<path d="M21.9556 225.997C22.0008 226.042 22.0461 226.087 22.0914 226.177C25.4413 226.403 30.0135 227.034 30.0587 227.034L30.104 226.854C29.7871 226.809 25.2602 226.177 21.9556 225.997Z" fill="#B0C6D9"/>
<path d="M24.219 229.335C24.2643 229.38 24.3095 229.47 24.3548 229.515C24.9433 229.56 25.6223 229.606 26.3466 229.651C29.4249 229.921 32.458 230.237 32.458 230.237L32.5032 230.057C32.1864 230.057 27.8405 229.56 24.219 229.335Z" fill="#B0C6D9"/>
<path d="M31.4622 239.484C31.5074 239.53 31.5527 239.62 31.598 239.665C35.3553 239.936 39.8369 240.838 39.8822 240.838L39.9275 240.657C39.8369 240.657 35.2648 239.755 31.4622 239.484Z" fill="#B0C6D9"/>
<path d="M54.323 281.526C54.6398 282.068 55.0473 282.835 54.4588 283.421C53.5534 284.323 47.6231 285 43.3226 285C38.9767 285 34.2235 284.143 33.1823 283.421C32.6843 283.06 32.7296 281.932 33.2728 281.526C33.2728 281.526 33.7255 283.421 43.5489 283.421C53.2818 283.466 54.323 281.526 54.323 281.526Z" fill="#D1DFEB"/>
<path d="M28.927 292.037C30.7378 292.578 33.137 292.894 35.0836 293.12C38.1166 293.435 41.7382 293.571 45.4955 293.571C46.4461 293.571 47.3515 293.571 48.3022 293.526C50.0677 293.48 51.7879 293.21 53.5081 292.894C54.323 292.759 55.2284 292.623 56.0432 292.488C56.7675 292.398 57.5371 292.307 58.3067 292.082C58.2614 291.901 58.2161 291.721 58.1256 291.541C57.4013 291.721 56.6317 291.856 55.9527 291.947C55.0925 292.082 54.2324 292.217 53.3723 292.353C51.6974 292.623 49.9771 292.939 48.3022 292.984C40.0632 293.165 32.7749 292.578 29.1081 291.495C29.0175 291.631 28.9723 291.811 28.927 292.037Z" fill="white"/>
<path d="M28.4744 296.638C28.5196 296.863 28.5196 297.089 28.5649 297.315C31.0094 298.217 33.5445 298.848 36.0343 299.48C36.5775 299.615 39.3842 299.796 42.7341 299.796C43.0963 299.796 43.549 299.796 44.0469 299.796C46.6273 299.796 50.3846 299.706 53.4176 299.345C53.8703 299.3 54.3683 299.254 54.821 299.209C55.4095 299.164 56.0433 299.119 56.677 299.029C57.175 298.939 57.6729 298.848 58.1709 298.713C58.2162 298.488 58.3067 298.262 58.352 298.036C57.7635 298.217 57.175 298.352 56.5412 298.442C55.9527 298.533 55.3642 298.578 54.7305 298.623C54.2778 298.668 53.7798 298.668 53.2818 298.758C46.8536 299.57 36.9397 299.119 36.1248 298.894C33.635 298.217 30.9642 297.585 28.4744 296.638Z" fill="white"/>
</svg>
