<svg width="235" height="261" viewBox="0 0 235 261" fill="none" xmlns="http://www.w3.org/2000/svg">
<ellipse cx="38.675" cy="74.4454" rx="38.675" ry="74.4454" transform="matrix(0.00275536 -0.999933 -1.00006 -0.00341446 204.418 215.251)" fill="#323487"/>
<mask id="mask0_44_583" style="mask-type:alpha" maskUnits="userSpaceOnUse" x="57" y="139" width="146" height="75">
<ellipse cx="36.8936" cy="72.5338" rx="36.8936" ry="72.5338" transform="matrix(0.00275536 -0.999933 -1.00006 -0.00341446 202.511 213.464)" fill="black"/>
</mask>
<g mask="url(#mask0_44_583)">
<path d="M143.899 227.146C135.513 231.036 126.597 222.874 118.86 206.565C113.353 192.739 115.292 185.335 118.844 182.616C120.778 181.135 126.055 178.227 130.702 175.777C132.883 174.627 134.926 173.579 136.419 172.826C140.194 170.03 150.192 167.638 159.985 180.439C163.835 185.103 174.114 206.27 165.695 214.407L157.599 219.139L143.899 227.146Z" fill="white"/>
<path d="M136.419 172.826C140.194 170.03 150.192 167.638 159.985 180.439C163.835 185.103 174.114 206.27 165.695 214.407M136.419 172.826C132.451 178.683 140.471 197.633 143.421 201.858C146.372 206.083 157.461 218.737 165.695 214.407M136.419 172.826C134.926 173.579 132.883 174.627 130.702 175.777M165.695 214.407C163.248 215.837 160.406 217.498 157.599 219.139M130.702 175.777C126.055 178.227 120.778 181.135 118.844 182.616C115.292 185.335 113.353 192.739 118.86 206.565C126.597 222.874 135.513 231.036 143.899 227.146C143.899 227.146 150.643 223.204 157.599 219.139M130.702 175.777C129.309 180.42 125.822 190.203 136.756 206.397C140.836 211.731 150.819 221.172 157.599 219.139" stroke="black"/>
<path d="M151.923 185.513L148.595 193.609L140.895 184.103L143.756 175.791L151.923 185.513Z" fill="url(#paint0_linear_44_583)"/>
</g>
<path d="M53.4524 121.174L47.6288 125.948L47.4634 133.494L42.6876 127.648L35.158 127.468L40.9816 122.693L41.147 115.147L45.9228 120.993L53.4524 121.174Z" fill="#F2C301"/>
<path d="M138.296 17.9505L133.249 22.0886L133.106 28.6284L128.967 23.5619L122.441 23.4053L127.488 19.2672L127.632 12.7275L131.771 17.7939L138.296 17.9505Z" fill="#323487"/>
<path d="M196.871 95.5042L193.377 98.3691L193.278 102.897L190.413 99.389L185.895 99.2806L189.389 96.4158L189.488 91.8883L192.354 95.3958L196.871 95.5042Z" fill="#323487"/>
<path d="M171.871 166.504L168.377 169.369L168.278 173.897L165.413 170.389L160.895 170.281L164.389 167.416L164.488 162.888L167.354 166.396L171.871 166.504Z" fill="#F2C301"/>
<path d="M80.0603 108.197L102.343 77.2007C103.039 76.2323 104.243 75.7682 105.409 76.0188L142.933 84.0807C144.996 84.5239 145.969 86.9019 144.808 88.664L125.262 118.339C124.609 119.331 123.432 119.844 122.261 119.648L82.0007 112.907C79.8093 112.54 78.7633 110.001 80.0603 108.197Z" fill="#FFC727"/>
<path d="M120.745 127.977L76.9665 120.549C74.7239 120.168 72.8902 122.324 73.6259 124.477L84.5971 156.574C84.9432 157.587 85.8023 158.338 86.8518 158.547L132.746 167.657C135.066 168.117 136.982 165.836 136.127 163.63L123.041 129.851C122.659 128.865 121.787 128.153 120.745 127.977Z" fill="#FFC727"/>
<path d="M110.965 38.9783L104.514 66.6039C104.128 68.2577 105.19 69.902 106.857 70.2298L150.404 78.7943C151.847 79.0782 153.284 78.2733 153.795 76.8937L163.842 49.7987C164.487 48.0613 163.417 46.1611 161.598 45.81L114.455 36.7148C112.873 36.4095 111.332 37.409 110.965 38.9783Z" fill="#FFC727"/>
<path d="M98.3805 73.5334L71.0077 110.57C70.0665 111.844 68.2975 112.166 66.9673 111.307L43.0861 95.8795C41.6495 94.9515 41.2783 93.0121 42.2705 91.6191L69.2728 53.7112C70.2157 52.3876 72.041 52.0553 73.3897 52.9618L97.6413 69.2604C99.0602 70.214 99.3966 72.1587 98.3805 73.5334Z" fill="white" stroke="black" stroke-width="0.5"/>
<path d="M143.257 160.883L130.629 128.289C130.263 127.344 130.399 126.278 130.99 125.455L154.185 93.1609C155.575 91.2255 158.558 91.6052 159.419 93.8273L172.297 127.068C172.669 128.028 172.523 129.111 171.91 129.938L148.465 161.585C147.058 163.483 144.11 163.086 143.257 160.883Z" fill="white" stroke="black" stroke-width="0.5"/>
<defs>
<linearGradient id="paint0_linear_44_583" x1="141.688" y1="186.31" x2="151.007" y2="182.964" gradientUnits="userSpaceOnUse">
<stop stop-color="#313284"/>
<stop offset="1" stop-color="#1A1C56"/>
</linearGradient>
</defs>
</svg>
