<svg width="611" height="150" viewBox="0 0 611 150" fill="none" xmlns="http://www.w3.org/2000/svg">
<path d="M55.22 94.13C55.22 98.6033 54.1567 102.747 52.03 106.56C49.9033 110.373 46.75 113.417 42.57 115.69C38.39 117.963 33.0733 119.1 26.62 119.1C23.54 119.1 20.7533 118.917 18.26 118.55C15.7667 118.257 13.3833 117.743 11.11 117.01C8.91 116.277 6.6 115.323 4.18 114.15V95.23C7.99333 97.3567 11.8433 99.0067 15.73 100.18C19.69 101.28 23.2833 101.83 26.51 101.83C28.4167 101.83 29.9567 101.573 31.13 101.06C32.3767 100.547 33.2933 99.85 33.88 98.97C34.4667 98.09 34.76 97.1 34.76 96C34.76 94.68 34.3933 93.5433 33.66 92.59C32.9267 91.6367 31.6433 90.61 29.81 89.51C28.05 88.41 25.5567 87.0533 22.33 85.44C19.6167 84.0467 17.16 82.6167 14.96 81.15C12.8333 79.6833 11 78.0333 9.46 76.2C7.92 74.3667 6.74667 72.2767 5.94 69.93C5.13333 67.51 4.73 64.65 4.73 61.35C4.73 56.4367 5.83 52.2933 8.03 48.92C10.3033 45.4733 13.4933 42.87 17.6 41.11C21.7067 39.2767 26.5833 38.36 32.23 38.36C36.63 38.36 40.7367 38.91 44.55 40.01C48.3633 41.0367 51.92 42.3567 55.22 43.97L49.28 60.36C46.1267 58.7467 43.0833 57.5 40.15 56.62C37.2167 55.74 34.5033 55.3 32.01 55.3C30.3967 55.3 29.04 55.52 27.94 55.96C26.9133 56.4 26.1433 57.0233 25.63 57.83C25.19 58.5633 24.97 59.4067 24.97 60.36C24.97 61.68 25.3367 62.8167 26.07 63.77C26.8767 64.7233 28.2333 65.7867 30.14 66.96C32.12 68.06 34.9067 69.49 38.5 71.25C42.02 73.0833 45.0267 75.0267 47.52 77.08C50.0133 79.1333 51.92 81.5167 53.24 84.23C54.56 86.9433 55.22 90.2433 55.22 94.13ZM128.725 118H108.375V85.66H86.7049V118H66.2449V39.46H86.7049V68.83H108.375V39.46H128.725V118ZM188.126 118L184.606 103.04H162.166L158.646 118H136.426L159.636 39.24H186.586L210.126 118H188.126ZM177.456 71.58C177.089 69.9667 176.612 68.0233 176.026 65.75C175.512 63.4033 174.999 61.02 174.486 58.6C174.046 56.18 173.679 54.1633 173.386 52.55C173.092 54.1633 172.689 56.1067 172.176 58.38C171.736 60.6533 171.259 62.9633 170.746 65.31C170.232 67.5833 169.792 69.6367 169.426 71.47L166.016 86.21H180.756L177.456 71.58ZM241.907 39.46C248.654 39.46 254.264 40.34 258.737 42.1C263.211 43.86 266.547 46.4633 268.747 49.91C271.021 53.2833 272.157 57.5367 272.157 62.67C272.157 65.75 271.681 68.61 270.727 71.25C269.774 73.89 268.381 76.2367 266.547 78.29C264.714 80.3433 262.477 82.1767 259.837 83.79L280.297 118H257.527L242.457 89.07H238.167V118H217.817V39.46H241.907ZM241.577 55.41H238.167V73.67H241.357C243.484 73.67 245.281 73.34 246.747 72.68C248.287 71.9467 249.461 70.8467 250.267 69.38C251.074 67.9133 251.477 66.0067 251.477 63.66C251.477 61.9 251.111 60.3967 250.377 59.15C249.717 57.9033 248.654 56.9867 247.187 56.4C245.721 55.74 243.851 55.41 241.577 55.41ZM330.447 118H286.997V39.46H330.447V56.07H307.347V69.05H328.797V85.66H307.347V101.17H330.447V118Z" fill="#F2C301"/>
<path d="M370.32 56.95L371.076 58.2457C371.081 58.2426 371.086 58.2394 371.092 58.2362L370.32 56.95ZM365.81 61.57L364.528 60.7915C364.521 60.8029 364.514 60.8143 364.508 60.8258L365.81 61.57ZM363.06 69.05L361.597 68.7207L363.06 69.05ZM363.72 91.82L362.291 92.2761C362.294 92.2852 362.297 92.2943 362.3 92.3034L363.72 91.82ZM368.89 99.63L367.972 100.816C367.98 100.822 367.988 100.829 367.996 100.835L368.89 99.63ZM395.4 97.21H396.9C396.9 96.6955 396.636 96.2169 396.201 95.9421C395.767 95.6672 395.221 95.6343 394.756 95.8551L395.4 97.21ZM395.4 114.7L396.071 116.042C396.579 115.788 396.9 115.268 396.9 114.7H395.4ZM385.72 118L385.432 116.528C385.422 116.53 385.412 116.532 385.401 116.534L385.72 118ZM355.91 114.26L355.082 115.511C355.089 115.516 355.096 115.52 355.104 115.525L355.91 114.26ZM344.8 100.29L346.192 99.73L344.8 100.29ZM343.48 62.56L344.911 63.0086L344.913 63.0026L343.48 62.56ZM350.19 49.69L349.04 48.7274C349.036 48.7321 349.032 48.7367 349.028 48.7414L350.19 49.69ZM361.08 41.33L360.456 39.966L360.447 39.9701L361.08 41.33ZM387.15 39.68L386.813 41.1416L386.819 41.143L387.15 39.68ZM398.59 43.86L399.999 44.3741C400.259 43.662 399.947 42.8679 399.271 42.5236L398.59 43.86ZM392.65 60.14L391.906 61.4424C392.29 61.6617 392.751 61.7005 393.166 61.5486C393.581 61.3967 393.908 61.0694 394.059 60.6541L392.65 60.14ZM384.84 56.62L385.314 55.197L384.84 56.62ZM376.48 53.8C373.953 53.8 371.63 54.415 369.548 55.6638L371.092 58.2362C372.677 57.285 374.461 56.8 376.48 56.8V53.8ZM369.564 55.6543C367.553 56.8276 365.881 58.5629 364.528 60.7915L367.092 62.3485C368.232 60.4704 369.567 59.1257 371.076 58.2457L369.564 55.6543ZM364.508 60.8258C363.243 63.0382 362.281 65.6793 361.597 68.7207L364.523 69.3793C365.159 66.554 366.03 64.2084 367.112 62.3142L364.508 60.8258ZM361.597 68.7207C360.907 71.7846 360.57 75.2348 360.57 79.06H363.57C363.57 75.4051 363.893 72.1821 364.523 69.3793L361.597 68.7207ZM360.57 79.06C360.57 84.2181 361.129 88.6362 362.291 92.2761L365.149 91.3639C364.111 88.1105 363.57 84.0219 363.57 79.06H360.57ZM362.3 92.3034C363.543 95.9545 365.411 98.8336 367.972 100.816L369.808 98.4439C367.822 96.9064 366.244 94.5788 365.14 91.3366L362.3 92.3034ZM367.996 100.835C370.58 102.752 373.773 103.66 377.47 103.66V100.66C374.274 100.66 371.746 99.8815 369.784 98.4254L367.996 100.835ZM377.47 103.66C380.777 103.66 383.977 103.16 387.064 102.157L386.136 99.3035C383.356 100.207 380.469 100.66 377.47 100.66V103.66ZM387.064 102.157C390.062 101.182 393.055 99.9845 396.044 98.5649L394.756 95.8551C391.878 97.2221 389.005 98.3711 386.136 99.3035L387.064 102.157ZM393.9 97.21V114.7H396.9V97.21H393.9ZM394.729 113.358C391.77 114.838 388.672 115.894 385.432 116.528L386.008 119.472C389.515 118.786 392.87 117.642 396.071 116.042L394.729 113.358ZM385.401 116.534C382.143 117.243 378.657 117.6 374.94 117.6V120.6C378.849 120.6 382.55 120.224 386.039 119.466L385.401 116.534ZM374.94 117.6C367.522 117.6 361.478 116.032 356.716 112.995L355.104 115.525C360.462 118.942 367.104 120.6 374.94 120.6V117.6ZM356.738 113.009C352.026 109.891 348.508 105.486 346.192 99.73L343.408 100.85C345.932 107.121 349.82 112.029 355.082 115.511L356.738 113.009ZM346.192 99.73C343.86 93.9352 342.67 87.0207 342.67 78.95H339.67C339.67 87.306 340.9 94.6181 343.408 100.85L346.192 99.73ZM342.67 78.95C342.67 73.0639 343.424 67.7548 344.911 63.0086L342.049 62.1114C340.456 67.1919 339.67 72.8094 339.67 78.95H342.67ZM344.913 63.0026C346.403 58.1775 348.555 54.0647 351.352 50.6386L349.028 48.7414C345.958 52.502 343.637 56.9692 342.047 62.1174L344.913 63.0026ZM351.34 50.6526C354.206 47.2283 357.659 44.5771 361.713 42.6899L360.447 39.9701C355.994 42.0429 352.188 44.9651 349.04 48.7274L351.34 50.6526ZM361.704 42.694C365.804 40.8177 370.536 39.86 375.93 39.86V36.86C370.178 36.86 365.009 37.8823 360.456 39.966L361.704 42.694ZM375.93 39.86C379.476 39.86 383.103 40.2854 386.813 41.1416L387.487 38.2184C383.571 37.3146 379.718 36.86 375.93 36.86V39.86ZM386.819 41.143C390.578 41.994 394.274 43.3432 397.909 45.1964L399.271 42.5236C395.426 40.5634 391.496 39.126 387.481 38.217L386.819 41.143ZM397.181 43.3459L391.241 59.6259L394.059 60.6541L399.999 44.3741L397.181 43.3459ZM393.394 58.8376C390.747 57.325 388.054 56.1101 385.314 55.197L384.366 58.043C386.906 58.8899 389.42 60.0217 391.906 61.4424L393.394 58.8376ZM385.314 55.197C382.513 54.2633 379.566 53.8 376.48 53.8V56.8C379.261 56.8 381.887 57.2167 384.366 58.043L385.314 55.197ZM456.635 118L455.175 118.344C455.334 119.021 455.939 119.5 456.635 119.5V118ZM453.115 103.04L454.575 102.696C454.415 102.019 453.811 101.54 453.115 101.54V103.04ZM430.675 103.04V101.54C429.979 101.54 429.374 102.019 429.215 102.696L430.675 103.04ZM427.155 118V119.5C427.851 119.5 428.455 119.021 428.615 118.344L427.155 118ZM404.935 118L403.496 117.576C403.362 118.03 403.45 118.52 403.734 118.898C404.017 119.277 404.462 119.5 404.935 119.5V118ZM428.145 39.24V37.74C427.48 37.74 426.894 38.178 426.706 38.816L428.145 39.24ZM455.095 39.24L456.532 38.8104C456.342 38.1752 455.758 37.74 455.095 37.74V39.24ZM478.635 118V119.5C479.109 119.5 479.555 119.276 479.838 118.896C480.121 118.516 480.208 118.024 480.072 117.57L478.635 118ZM445.965 71.58L447.428 71.2499L447.427 71.2476L445.965 71.58ZM444.535 65.75L443.069 66.0705C443.073 66.0887 443.078 66.1068 443.082 66.1248L444.535 65.75ZM442.995 58.6L441.519 58.8683C441.522 58.8827 441.524 58.897 441.527 58.9113L442.995 58.6ZM441.895 52.55L443.371 52.2817C443.241 51.5684 442.62 51.05 441.895 51.05C441.17 51.05 440.549 51.5684 440.419 52.2817L441.895 52.55ZM440.685 58.38L439.222 58.0496C439.218 58.0647 439.215 58.0798 439.212 58.095L440.685 58.38ZM439.255 65.31L440.718 65.6404L440.72 65.6305L439.255 65.31ZM437.935 71.47L439.396 71.8081C439.4 71.7935 439.403 71.7789 439.406 71.7642L437.935 71.47ZM434.525 86.21L433.063 85.8719C432.96 86.3174 433.066 86.7856 433.351 87.1435C433.635 87.5014 434.068 87.71 434.525 87.71V86.21ZM449.265 86.21V87.71C449.721 87.71 450.152 87.5027 450.436 87.1467C450.721 86.7907 450.828 86.3246 450.728 85.8799L449.265 86.21ZM458.095 117.656L454.575 102.696L451.655 103.384L455.175 118.344L458.095 117.656ZM453.115 101.54H430.675V104.54H453.115V101.54ZM429.215 102.696L425.695 117.656L428.615 118.344L432.135 103.384L429.215 102.696ZM427.155 116.5H404.935V119.5H427.155V116.5ZM406.374 118.424L429.584 39.664L426.706 38.816L403.496 117.576L406.374 118.424ZM428.145 40.74H455.095V37.74H428.145V40.74ZM453.658 39.6695L477.198 118.43L480.072 117.57L456.532 38.8104L453.658 39.6695ZM478.635 116.5H456.635V119.5H478.635V116.5ZM447.427 71.2476C447.057 69.6156 446.576 67.6573 445.987 65.3752L443.082 66.1248C443.667 68.3894 444.14 70.3178 444.502 71.9124L447.427 71.2476ZM446 65.4295C445.487 63.086 444.975 60.7057 444.462 58.2887L441.527 58.9113C442.041 61.3343 442.555 63.7207 443.069 66.0705L446 65.4295ZM444.471 58.3317C444.031 55.9117 443.664 53.895 443.371 52.2817L440.419 52.8183C440.712 54.4317 441.079 56.4483 441.519 58.8683L444.471 58.3317ZM440.419 52.2817C440.131 53.8676 439.732 55.7891 439.222 58.0496L442.148 58.7104C442.664 56.4243 443.072 54.459 443.371 52.8183L440.419 52.2817ZM439.212 58.095C438.774 60.356 438.3 62.6542 437.789 64.9894L440.72 65.6305C441.236 63.2725 441.715 60.9507 442.157 58.665L439.212 58.095ZM437.792 64.9796C437.276 67.2622 436.833 69.3279 436.464 71.1758L439.406 71.7642C439.769 69.9455 440.207 67.9045 440.718 65.6404L437.792 64.9796ZM436.473 71.1319L433.063 85.8719L435.986 86.5481L439.396 71.8081L436.473 71.1319ZM434.525 87.71H449.265V84.71H434.525V87.71ZM450.728 85.8799L447.428 71.2499L444.502 71.91L447.802 86.5401L450.728 85.8799ZM530.546 42.1L531.095 40.7041L530.546 42.1ZM540.556 49.91L539.292 50.7171C539.298 50.7275 539.305 50.738 539.312 50.7483L540.556 49.91ZM542.536 71.25L541.125 70.7405L542.536 71.25ZM538.356 78.29L537.237 77.291V77.291L538.356 78.29ZM531.646 83.79L530.864 82.5101C530.162 82.9391 529.937 83.8537 530.359 84.5599L531.646 83.79ZM552.106 118V119.5C552.646 119.5 553.145 119.21 553.411 118.74C553.677 118.27 553.671 117.694 553.394 117.23L552.106 118ZM529.336 118L528.006 118.693C528.264 119.189 528.777 119.5 529.336 119.5V118ZM514.266 89.07L515.597 88.377C515.338 87.8811 514.825 87.57 514.266 87.57V89.07ZM509.976 89.07V87.57C509.148 87.57 508.476 88.2416 508.476 89.07H509.976ZM509.976 118V119.5C510.805 119.5 511.476 118.828 511.476 118H509.976ZM489.626 118H488.126C488.126 118.828 488.798 119.5 489.626 119.5V118ZM489.626 39.46V37.96C488.798 37.96 488.126 38.6316 488.126 39.46H489.626ZM509.976 55.41V53.91C509.148 53.91 508.476 54.5816 508.476 55.41H509.976ZM509.976 73.67H508.476C508.476 74.4984 509.148 75.17 509.976 75.17V73.67ZM518.556 72.68L519.172 74.0479C519.182 74.0435 519.191 74.0389 519.201 74.0343L518.556 72.68ZM522.076 69.38L520.762 68.6571L522.076 69.38ZM522.186 59.15L520.861 59.8518C520.871 59.8716 520.882 59.8912 520.893 59.9105L522.186 59.15ZM518.996 56.4L518.381 57.7679C518.4 57.7766 518.419 57.7849 518.439 57.7927L518.996 56.4ZM513.716 40.96C520.345 40.96 525.754 41.8264 529.997 43.4958L531.095 40.7041C526.392 38.8536 520.581 37.96 513.716 37.96V40.96ZM529.997 43.4958C534.229 45.1609 537.291 47.5818 539.292 50.7171L541.821 49.1029C539.422 45.3449 535.81 42.5591 531.095 40.7041L529.997 43.4958ZM539.312 50.7483C541.38 53.8162 542.466 57.7571 542.466 62.67H545.466C545.466 57.3162 544.279 52.7505 541.8 49.0717L539.312 50.7483ZM542.466 62.67C542.466 65.5932 542.014 68.2791 541.125 70.7405L543.947 71.7595C544.965 68.9409 545.466 65.9068 545.466 62.67H542.466ZM541.125 70.7405C540.236 73.2038 538.94 75.3835 537.237 77.291L539.475 79.289C541.439 77.0898 542.93 74.5762 543.947 71.7595L541.125 70.7405ZM537.237 77.291C535.513 79.2221 533.394 80.964 530.864 82.5101L532.428 85.0699C535.178 83.3893 537.533 81.4646 539.475 79.289L537.237 77.291ZM530.359 84.5599L550.819 118.77L553.394 117.23L532.934 83.0201L530.359 84.5599ZM552.106 116.5H529.336V119.5H552.106V116.5ZM530.667 117.307L515.597 88.377L512.936 89.763L528.006 118.693L530.667 117.307ZM514.266 87.57H509.976V90.57H514.266V87.57ZM508.476 89.07V118H511.476V89.07H508.476ZM509.976 116.5H489.626V119.5H509.976V116.5ZM491.126 118V39.46H488.126V118H491.126ZM489.626 40.96H513.716V37.96H489.626V40.96ZM513.386 53.91H509.976V56.91H513.386V53.91ZM508.476 55.41V73.67H511.476V55.41H508.476ZM509.976 75.17H513.166V72.17H509.976V75.17ZM513.166 75.17C515.44 75.17 517.46 74.8182 519.172 74.0479L517.941 71.3121C516.719 71.8618 515.146 72.17 513.166 72.17V75.17ZM519.201 74.0343C521.019 73.1686 522.429 71.8505 523.391 70.1029L520.762 68.6571C520.11 69.8428 519.173 70.7248 517.911 71.3257L519.201 74.0343ZM523.391 70.1029C524.358 68.3435 524.786 66.1633 524.786 63.66H521.786C521.786 65.85 521.408 67.4831 520.762 68.6571L523.391 70.1029ZM524.786 63.66C524.786 61.6905 524.375 59.9119 523.479 58.3895L520.893 59.9105C521.464 60.8814 521.786 62.1095 521.786 63.66H524.786ZM523.512 58.4482C522.665 56.8495 521.308 55.7091 519.553 55.0073L518.439 57.7927C519.618 58.2643 520.387 58.9572 520.861 59.8518L523.512 58.4482ZM519.612 55.0321C517.889 54.2568 515.79 53.91 513.386 53.91V56.91C515.529 56.91 517.17 57.2232 518.381 57.7679L519.612 55.0321ZM605.556 118V119.5C606.384 119.5 607.056 118.828 607.056 118H605.556ZM562.106 118H560.606C560.606 118.828 561.277 119.5 562.106 119.5V118ZM562.106 39.46V37.96C561.277 37.96 560.606 38.6316 560.606 39.46H562.106ZM605.556 39.46H607.056C607.056 38.6316 606.384 37.96 605.556 37.96V39.46ZM605.556 56.07V57.57C606.384 57.57 607.056 56.8984 607.056 56.07H605.556ZM582.456 56.07V54.57C581.627 54.57 580.956 55.2416 580.956 56.07H582.456ZM582.456 69.05H580.956C580.956 69.8784 581.627 70.55 582.456 70.55V69.05ZM603.906 69.05H605.406C605.406 68.2216 604.734 67.55 603.906 67.55V69.05ZM603.906 85.66V87.16C604.734 87.16 605.406 86.4884 605.406 85.66H603.906ZM582.456 85.66V84.16C581.627 84.16 580.956 84.8316 580.956 85.66H582.456ZM582.456 101.17H580.956C580.956 101.998 581.627 102.67 582.456 102.67V101.17ZM605.556 101.17H607.056C607.056 100.342 606.384 99.67 605.556 99.67V101.17ZM605.556 116.5H562.106V119.5H605.556V116.5ZM563.606 118V39.46H560.606V118H563.606ZM562.106 40.96H605.556V37.96H562.106V40.96ZM604.056 39.46V56.07H607.056V39.46H604.056ZM605.556 54.57H582.456V57.57H605.556V54.57ZM580.956 56.07V69.05H583.956V56.07H580.956ZM582.456 70.55H603.906V67.55H582.456V70.55ZM602.406 69.05V85.66H605.406V69.05H602.406ZM603.906 84.16H582.456V87.16H603.906V84.16ZM580.956 85.66V101.17H583.956V85.66H580.956ZM582.456 102.67H605.556V99.67H582.456V102.67ZM604.056 101.17V118H607.056V101.17H604.056Z" fill="#F2C301"/>
</svg>
